{"glyphs":{"0":{"ha":833,"x_min":0,"x_max":0,"o":"m 417 -17 b 99 446 219 -17 99 151 b 417 903 99 743 219 903 b 735 446 614 903 735 743 b 417 -17 735 151 614 -17 m 417 75 b 628 446 540 75 628 192 b 417 811 628 701 540 811 b 206 446 293 811 206 701 b 417 75 206 192 293 75 m 417 363 b 331 456 371 363 331 397 b 417 547 331 513 371 547 b 503 456 463 547 503 513 b 417 363 503 397 463 363 "},"1":{"ha":833,"x_min":0,"x_max":0,"o":"m 135 94 l 390 94 l 390 747 l 192 747 l 192 821 b 419 886 296 835 363 856 l 504 886 l 504 94 l 736 94 l 736 0 l 135 0 "},"2":{"ha":833,"x_min":0,"x_max":0,"o":"m 101 68 b 567 636 401 333 567 489 b 374 810 567 738 504 810 b 161 703 290 810 218 763 l 96 768 b 388 903 175 849 263 903 b 676 642 565 903 676 799 b 268 90 676 475 510 310 b 433 99 324 94 381 99 l 725 99 l 725 0 l 101 0 "},"3":{"ha":833,"x_min":0,"x_max":0,"o":"m 399 -17 b 79 108 246 -17 144 43 l 138 183 b 392 78 196 128 278 78 b 604 240 513 78 604 142 b 282 417 604 346 515 417 l 282 504 b 572 669 492 504 572 576 b 392 810 572 756 500 810 b 174 719 308 810 232 772 l 113 792 b 396 903 186 856 282 903 b 689 678 563 903 689 821 b 500 467 689 571 610 503 l 500 461 b 719 236 618 436 719 358 b 399 -17 719 79 575 -17 "},"4":{"ha":833,"x_min":0,"x_max":0,"o":"m 511 336 l 511 611 b 518 768 513 660 515 719 l 511 768 b 421 639 483 725 450 682 l 181 336 m 511 244 l 54 244 l 54 321 l 497 886 l 619 886 l 619 336 l 757 336 l 757 244 l 619 244 l 619 0 l 511 0 "},"5":{"ha":833,"x_min":0,"x_max":0,"o":"m 397 -17 b 78 104 239 -17 146 43 l 135 179 b 385 78 193 126 265 78 b 610 281 510 78 610 157 b 392 475 610 403 524 475 b 211 421 318 475 274 456 l 150 460 l 179 886 l 681 886 l 681 788 l 281 788 l 257 525 b 421 561 308 547 353 561 b 725 283 590 561 725 475 b 397 -17 725 92 567 -17 "},"6":{"ha":833,"x_min":0,"x_max":0,"o":"m 444 456 b 218 336 374 456 289 421 b 446 74 235 165 317 74 b 633 268 551 74 633 151 b 444 456 633 389 567 456 m 446 -17 b 107 410 253 -17 107 125 b 478 903 107 765 285 903 b 725 808 586 903 667 863 l 661 738 b 485 807 615 781 551 807 b 214 426 343 807 219 711 b 465 542 286 497 376 542 b 742 268 629 542 742 450 b 446 -17 742 99 604 -17 "},"7":{"ha":833,"x_min":0,"x_max":0,"o":"m 314 0 b 608 788 329 336 406 539 l 97 788 l 97 886 l 739 886 l 739 815 b 433 0 504 547 446 347 l 314 0 "},"8":{"ha":833,"x_min":0,"x_max":0,"o":"m 419 -17 b 94 226 219 -17 94 86 b 285 463 94 349 190 418 l 285 468 b 150 675 211 514 150 582 b 424 903 150 811 265 903 b 699 667 597 903 699 804 b 564 456 699 583 638 507 l 564 450 b 738 219 661 401 738 346 b 419 -17 738 88 622 -17 m 489 483 b 600 661 561 536 600 596 b 421 818 600 749 538 818 b 254 675 322 818 254 761 b 489 483 254 569 357 525 m 422 68 b 628 224 554 68 628 132 b 350 431 628 347 506 378 b 199 238 264 383 199 326 b 422 68 199 139 286 68 "},"9":{"ha":833,"x_min":0,"x_max":0,"o":"m 201 618 b 390 431 201 497 267 431 b 617 549 460 431 544 465 b 389 813 599 721 519 813 b 201 618 283 813 201 735 m 357 -17 b 110 76 249 -17 168 24 l 174 149 b 350 78 218 106 282 78 b 619 458 490 78 614 175 b 368 344 547 388 458 344 b 93 618 204 344 93 436 b 388 903 93 788 231 903 b 728 476 581 903 728 761 b 357 -17 728 121 549 -17 "}," ":{"ha":833,"x_min":0,"x_max":0,"o":""},"A":{"ha":833,"x_min":0,"x_max":0,"o":"m 279 371 l 551 371 l 508 510 b 418 817 476 611 446 711 l 413 817 b 322 510 383 711 354 611 m 351 911 l 482 911 l 789 0 l 667 0 l 581 278 l 250 278 l 163 0 l 44 0 "},"B":{"ha":833,"x_min":0,"x_max":0,"o":"m 138 911 l 396 911 b 708 689 582 911 708 849 b 549 490 708 599 657 518 l 549 485 b 760 267 682 464 760 392 b 417 0 760 88 621 0 l 138 0 m 376 528 b 594 679 532 528 594 578 b 382 814 594 778 522 814 l 253 814 l 253 528 m 400 97 b 646 272 556 97 646 149 b 400 431 646 385 560 431 l 253 431 l 253 97 "},"C":{"ha":833,"x_min":0,"x_max":0,"o":"m 488 -17 b 90 456 263 -17 90 158 b 499 928 90 749 261 928 b 747 817 607 928 694 875 l 682 743 b 499 826 635 793 575 826 b 210 458 324 826 210 685 b 499 85 210 229 324 85 b 704 186 582 85 646 121 l 769 115 b 488 -17 697 32 608 -17 "},"D":{"ha":833,"x_min":0,"x_max":0,"o":"m 121 911 l 346 911 b 768 460 619 911 768 749 b 351 0 768 169 619 0 l 121 0 m 338 94 b 649 460 546 94 649 229 b 338 817 649 689 546 817 l 236 817 l 236 94 "},"E":{"ha":833,"x_min":0,"x_max":0,"o":"m 158 911 l 722 911 l 722 814 l 275 814 l 275 528 l 653 528 l 653 429 l 275 429 l 275 99 l 736 99 l 736 0 l 158 0 "},"F":{"ha":833,"x_min":0,"x_max":0,"o":"m 185 911 l 744 911 l 744 814 l 301 814 l 301 506 l 676 506 l 676 408 l 301 408 l 301 0 l 185 0 "},"G":{"ha":833,"x_min":0,"x_max":0,"o":"m 468 -17 b 74 456 239 -17 74 158 b 478 928 74 750 242 928 b 729 817 599 928 678 871 l 664 743 b 478 826 619 790 565 826 b 194 458 307 826 194 685 b 475 85 194 229 296 85 b 633 139 539 85 599 106 l 633 376 l 451 376 l 451 472 l 740 472 l 740 89 b 468 -17 683 31 586 -17 "},"H":{"ha":833,"x_min":0,"x_max":0,"o":"m 110 911 l 226 911 l 226 529 l 607 529 l 607 911 l 724 911 l 724 0 l 607 0 l 607 429 l 226 429 l 226 0 l 110 0 "},"I":{"ha":833,"x_min":0,"x_max":0,"o":"m 132 99 l 358 99 l 358 814 l 132 814 l 132 911 l 701 911 l 701 814 l 475 814 l 475 99 l 701 99 l 701 0 l 132 0 "},"J":{"ha":833,"x_min":0,"x_max":0,"o":"m 383 -17 b 113 135 282 -17 175 31 l 185 206 b 381 85 236 124 310 85 b 569 301 511 85 569 151 l 569 815 l 188 815 l 188 913 l 685 913 l 685 292 b 383 -17 685 122 610 -17 "},"K":{"ha":833,"x_min":0,"x_max":0,"o":"m 136 911 l 253 911 l 253 454 l 257 454 l 640 911 l 772 911 l 483 565 l 806 0 l 675 0 l 410 478 l 253 290 l 253 0 l 136 0 "},"L":{"ha":833,"x_min":0,"x_max":0,"o":"m 186 911 l 300 911 l 300 99 l 751 99 l 751 0 l 186 0 "},"M":{"ha":833,"x_min":0,"x_max":0,"o":"m 100 911 l 242 911 l 369 522 l 414 375 l 419 375 l 463 522 l 592 911 l 733 911 l 733 0 l 622 0 l 622 456 b 642 778 622 544 636 700 l 638 778 l 586 600 l 456 242 l 372 242 l 244 600 l 192 778 l 189 778 b 208 456 197 700 208 544 l 208 0 l 100 0 "},"N":{"ha":833,"x_min":0,"x_max":0,"o":"m 114 911 l 242 911 l 533 339 l 621 150 l 624 150 b 608 439 619 240 608 343 l 608 911 l 719 911 l 719 0 l 592 0 l 300 572 l 213 761 l 210 761 b 225 476 214 668 225 571 l 225 0 l 114 0 "},"O":{"ha":833,"x_min":0,"x_max":0,"o":"m 417 -17 b 67 460 211 -17 67 161 b 417 928 67 754 211 928 b 767 460 622 928 767 754 b 417 -17 767 161 622 -17 m 417 85 b 647 460 556 85 647 226 b 417 826 647 689 556 826 b 186 460 278 826 186 689 b 417 85 186 226 278 85 "},"P":{"ha":833,"x_min":0,"x_max":0,"o":"m 142 911 l 417 911 b 754 643 618 911 754 843 b 417 361 754 451 617 361 l 257 361 l 257 0 l 142 0 m 403 456 b 638 643 563 456 638 514 b 403 818 638 775 560 818 l 257 818 l 257 456 "},"Q":{"ha":833,"x_min":0,"x_max":0,"o":"m 417 79 b 647 460 556 79 647 218 b 417 826 647 689 556 826 b 186 460 278 826 186 689 b 417 79 186 218 278 79 m 668 -226 b 361 -12 507 -226 406 -135 b 67 460 185 18 67 189 b 417 928 67 754 211 928 b 767 460 622 928 767 754 b 483 -10 767 194 653 25 b 681 -128 515 -89 586 -128 b 749 -114 708 -128 732 -121 l 771 -207 b 668 -226 740 -218 707 -226 "},"R":{"ha":833,"x_min":0,"x_max":0,"o":"m 139 911 l 422 911 b 740 656 607 911 740 844 b 536 397 740 514 660 429 l 768 0 l 636 0 l 417 385 l 254 385 l 254 0 l 139 0 m 406 479 b 625 656 547 479 625 538 b 406 818 625 775 547 818 l 254 818 l 254 479 "},"S":{"ha":833,"x_min":0,"x_max":0,"o":"m 424 -17 b 93 118 290 -17 175 36 l 163 199 b 429 85 231 131 325 85 b 628 229 554 85 628 144 b 464 394 628 326 557 354 l 333 451 b 136 686 242 488 136 553 b 435 928 136 825 261 928 b 715 815 549 928 649 882 l 654 740 b 431 826 594 793 525 826 b 254 693 325 826 254 775 b 417 542 254 606 339 574 l 544 486 b 746 243 657 440 746 378 b 424 -17 746 99 624 -17 "},"T":{"ha":833,"x_min":0,"x_max":0,"o":"m 358 814 l 58 814 l 58 911 l 775 911 l 775 814 l 475 814 l 475 0 l 358 0 "},"U":{"ha":833,"x_min":0,"x_max":0,"o":"m 418 -17 b 110 344 239 -17 110 83 l 110 911 l 226 911 l 226 342 b 418 85 226 153 308 85 b 611 342 528 85 611 153 l 611 911 l 724 911 l 724 344 b 418 -17 724 83 596 -17 "},"V":{"ha":833,"x_min":0,"x_max":0,"o":"m 60 911 l 182 911 l 329 419 b 417 118 361 311 383 225 l 422 118 b 510 419 456 225 479 311 l 656 911 l 774 911 l 485 0 l 350 0 "},"W":{"ha":833,"x_min":0,"x_max":0,"o":"m 14 913 l 144 913 l 211 340 b 229 129 219 264 225 219 l 233 129 b 278 339 250 219 260 264 l 367 678 l 478 678 l 564 339 b 608 129 583 264 592 219 l 614 129 b 631 339 619 219 622 264 l 694 913 l 819 913 l 686 0 l 542 0 l 453 367 b 419 531 439 422 428 475 l 415 531 b 383 367 406 475 397 422 l 294 0 l 153 0 "},"X":{"ha":833,"x_min":0,"x_max":0,"o":"m 347 471 l 93 911 l 221 911 l 349 678 b 422 546 372 636 393 599 l 428 546 b 493 678 453 599 471 636 l 618 911 l 740 911 l 486 465 l 758 0 l 631 0 l 493 246 b 413 392 468 290 443 336 l 407 392 b 333 246 381 336 357 290 l 197 0 l 75 0 "},"Y":{"ha":833,"x_min":0,"x_max":0,"o":"m 358 325 l 53 911 l 175 911 l 313 640 b 417 428 347 571 379 501 l 422 428 b 529 642 458 501 494 571 l 661 911 l 781 911 l 475 325 l 475 0 l 358 0 "},"Z":{"ha":833,"x_min":0,"x_max":0,"o":"m 90 69 l 599 815 l 135 815 l 135 913 l 742 913 l 742 843 l 232 99 l 749 99 l 749 0 l 90 0 "},"a":{"ha":833,"x_min":0,"x_max":0,"o":"m 342 -17 b 113 175 215 -17 113 54 b 601 428 113 326 253 400 b 422 597 599 519 553 597 b 186 517 335 597 249 556 l 142 594 b 442 692 210 639 324 692 b 715 414 626 692 715 582 l 715 0 l 622 0 l 613 92 l 608 92 b 342 -17 533 33 438 -17 m 372 75 b 601 175 449 75 525 111 l 601 353 b 224 183 313 329 224 272 b 372 75 224 107 294 75 "},"b":{"ha":833,"x_min":0,"x_max":0,"o":"m 444 -17 b 235 75 379 -17 299 18 l 231 75 l 221 0 l 129 0 l 129 989 l 243 989 l 243 719 l 239 589 l 243 589 b 469 692 304 651 390 692 b 750 349 651 692 750 557 b 444 -17 750 118 606 -17 m 426 79 b 632 347 544 79 632 181 b 442 596 632 496 576 596 b 243 494 382 596 313 564 l 243 158 b 426 79 307 101 378 79 "},"c":{"ha":833,"x_min":0,"x_max":0,"o":"m 481 -17 b 111 336 269 -17 111 113 b 488 692 111 563 283 692 b 733 593 597 692 678 647 l 676 519 b 492 597 621 568 563 597 b 229 336 336 597 229 492 b 489 78 229 182 333 78 b 697 163 572 78 642 115 l 749 89 b 481 -17 674 22 581 -17 "},"d":{"ha":833,"x_min":0,"x_max":0,"o":"m 376 -17 b 83 336 200 -17 83 111 b 390 692 83 556 231 692 b 592 604 471 692 533 660 l 596 604 l 590 729 l 590 989 l 704 989 l 704 0 l 610 0 l 600 89 l 596 89 b 376 -17 540 32 460 -17 m 400 79 b 590 181 467 79 531 114 l 590 517 b 413 596 529 574 471 596 b 201 338 296 596 201 492 b 400 79 201 176 275 79 "},"e":{"ha":833,"x_min":0,"x_max":0,"o":"m 442 601 b 213 394 331 601 233 528 l 643 394 b 442 601 633 533 557 601 m 458 -17 b 94 339 256 -17 94 114 b 439 692 94 558 258 692 b 747 375 633 692 747 565 b 742 306 747 349 744 324 l 210 306 b 472 75 224 153 332 75 b 678 139 553 75 617 100 l 719 64 b 458 -17 653 19 567 -17 "},"f":{"ha":833,"x_min":0,"x_max":0,"o":"m 336 582 l 143 582 l 143 668 l 336 675 l 336 732 b 608 1006 336 897 422 1006 b 803 967 675 1006 739 993 l 776 881 b 619 913 721 906 678 913 b 449 736 499 913 449 846 l 449 675 l 732 675 l 732 582 l 449 582 l 449 0 l 336 0 "},"g":{"ha":833,"x_min":0,"x_max":0,"o":"m 411 -311 b 100 -124 214 -311 100 -243 b 211 26 100 -69 139 -15 l 211 32 b 142 143 175 51 142 86 b 222 269 142 186 171 235 l 222 275 b 139 450 176 310 139 369 b 404 692 139 597 261 692 b 504 675 443 692 475 686 l 783 675 l 783 582 l 608 582 b 665 446 639 550 665 500 b 404 214 665 301 550 214 b 290 239 369 214 328 222 b 238 161 257 218 238 193 b 378 83 238 108 289 83 l 529 83 b 786 -75 703 83 786 39 b 411 -311 786 -201 640 -311 m 404 290 b 560 450 490 290 560 353 b 404 608 560 544 490 608 b 249 450 319 608 249 544 b 404 290 249 353 319 290 m 419 -228 b 674 -93 576 -228 674 -162 b 519 -11 674 -29 622 -11 l 388 -11 b 285 0 349 -11 314 -8 b 199 -112 221 -35 199 -74 b 419 -228 199 -183 275 -228 "},"h":{"ha":833,"x_min":0,"x_max":0,"o":"m 129 989 l 243 989 l 243 719 l 236 560 l 240 560 b 493 692 310 635 388 692 b 726 419 653 692 726 597 l 726 0 l 613 0 l 613 404 b 457 593 613 532 568 593 b 243 471 376 593 322 553 l 243 0 l 129 0 "},"i":{"ha":833,"x_min":0,"x_max":0,"o":"m 439 582 l 125 582 l 125 675 l 553 675 l 553 0 l 439 0 m 483 817 b 392 906 432 817 392 851 b 483 994 392 958 432 994 b 575 906 535 994 575 958 b 483 817 575 851 535 817 "},"j":{"ha":833,"x_min":0,"x_max":0,"o":"m 269 -301 b 76 -256 199 -301 131 -282 l 114 -171 b 268 -208 163 -194 217 -208 b 439 -25 403 -208 439 -140 l 439 582 l 125 582 l 125 675 l 553 675 l 553 -17 b 269 -301 553 -183 488 -301 m 483 817 b 392 906 432 817 392 851 b 483 994 392 958 432 994 b 575 906 535 994 575 958 b 483 817 575 851 535 817 "},"k":{"ha":833,"x_min":0,"x_max":0,"o":"m 147 989 l 261 989 l 261 319 l 267 319 l 631 675 l 761 675 l 492 410 l 797 0 l 669 0 l 421 340 l 261 183 l 261 0 l 147 0 "},"l":{"ha":833,"x_min":0,"x_max":0,"o":"m 565 -17 b 343 226 422 -17 343 67 l 343 896 l 103 896 l 103 989 l 457 989 l 457 218 b 590 78 457 119 510 78 b 717 108 629 78 671 88 l 746 24 b 565 -17 683 -3 639 -17 "},"m":{"ha":833,"x_min":0,"x_max":0,"o":"m 81 675 l 172 675 l 182 586 l 185 586 b 339 692 219 649 261 692 b 467 575 406 692 447 653 b 625 692 506 647 547 692 b 775 483 719 692 775 618 l 775 0 l 661 0 l 661 475 b 589 593 661 553 639 593 b 481 489 542 593 517 558 l 481 0 l 375 0 l 375 475 b 306 593 375 553 356 593 b 194 489 258 593 228 558 l 194 0 l 81 0 "},"n":{"ha":833,"x_min":0,"x_max":0,"o":"m 129 675 l 224 675 l 233 560 l 239 560 b 493 692 310 635 388 692 b 726 419 653 692 726 597 l 726 0 l 613 0 l 613 404 b 457 593 613 532 568 593 b 243 471 376 593 322 553 l 243 0 l 129 0 "},"o":{"ha":833,"x_min":0,"x_max":0,"o":"m 417 -17 b 83 336 239 -17 83 113 b 417 692 83 563 239 692 b 750 336 594 692 750 563 b 417 -17 750 113 594 -17 m 417 78 b 632 336 546 78 632 182 b 417 597 632 492 546 597 b 201 336 288 597 201 492 b 417 78 201 182 288 78 "},"p":{"ha":833,"x_min":0,"x_max":0,"o":"m 129 675 l 224 675 l 233 589 l 238 589 b 471 692 300 649 388 692 b 750 347 653 692 750 557 b 443 -17 750 118 606 -17 b 242 71 381 -17 301 15 l 238 71 l 243 -57 l 243 -285 l 129 -285 m 424 79 b 632 347 544 79 632 181 b 442 596 632 496 576 596 b 243 494 382 596 313 564 l 243 158 b 424 79 307 101 378 79 "},"q":{"ha":833,"x_min":0,"x_max":0,"o":"m 590 -39 l 596 86 l 592 86 b 375 -17 536 29 458 -17 b 83 336 200 -17 83 111 b 390 692 83 556 231 692 b 599 600 472 692 535 660 l 603 600 l 613 675 l 704 675 l 704 -285 l 590 -285 m 400 79 b 590 181 467 79 531 114 l 590 517 b 413 596 529 574 471 596 b 201 338 296 596 201 492 b 400 79 201 176 275 79 "},"r":{"ha":833,"x_min":0,"x_max":0,"o":"m 203 675 l 297 675 l 307 515 l 311 515 b 613 692 382 624 488 692 b 746 664 663 692 704 685 l 719 565 b 594 589 672 582 647 589 b 317 396 493 589 397 536 l 317 0 l 203 0 "},"s":{"ha":833,"x_min":0,"x_max":0,"o":"m 431 -17 b 99 89 299 -17 181 32 l 151 164 b 444 72 229 108 319 72 b 615 178 558 72 615 121 b 404 303 615 229 588 265 b 140 500 229 339 140 399 b 421 692 140 608 236 692 b 693 606 524 692 626 651 l 638 532 b 411 603 575 575 497 603 b 256 506 296 603 256 557 b 451 393 256 447 314 422 b 731 185 676 344 731 288 b 431 -17 731 75 624 -17 "},"t":{"ha":833,"x_min":0,"x_max":0,"o":"m 547 -17 b 286 263 350 -17 286 96 l 286 582 l 96 582 l 96 668 l 290 675 l 306 892 l 400 892 l 400 675 l 732 675 l 732 582 l 400 582 l 400 261 b 571 76 400 140 440 76 b 733 107 635 76 685 89 l 758 24 b 547 -17 697 1 632 -17 "},"u":{"ha":833,"x_min":0,"x_max":0,"o":"m 342 -17 b 107 256 181 -17 107 78 l 107 675 l 222 675 l 222 271 b 378 82 222 143 265 82 b 588 207 456 82 513 119 l 588 675 l 701 675 l 701 0 l 608 0 l 599 118 l 593 118 b 342 -17 525 39 446 -17 "},"v":{"ha":833,"x_min":0,"x_max":0,"o":"m 71 675 l 186 675 l 342 292 b 418 93 369 224 394 157 l 424 93 b 497 292 447 157 469 224 l 653 675 l 763 675 l 483 0 l 356 0 "},"w":{"ha":833,"x_min":0,"x_max":0,"o":"m 11 675 l 125 675 l 206 283 b 236 97 218 219 228 161 l 242 97 b 281 283 250 161 265 221 l 364 633 l 478 633 l 558 283 b 600 97 574 219 592 161 l 606 97 b 636 283 617 161 624 219 l 717 675 l 822 675 l 678 0 l 531 0 l 453 322 b 419 522 442 369 431 436 l 414 522 b 381 322 403 436 392 369 l 306 0 l 158 0 "},"x":{"ha":833,"x_min":0,"x_max":0,"o":"m 346 350 l 108 675 l 235 675 l 342 526 b 421 413 365 490 393 450 l 426 413 b 503 529 451 450 479 492 l 604 675 l 725 675 l 485 340 l 743 0 l 618 0 l 500 156 b 411 278 472 194 440 239 l 406 278 b 322 156 378 238 350 199 l 211 0 l 89 0 "},"y":{"ha":833,"x_min":0,"x_max":0,"o":"m 182 -290 b 93 -276 150 -290 117 -285 l 117 -186 b 178 -196 135 -192 157 -196 b 363 -51 272 -196 329 -135 l 383 -1 l 68 675 l 183 675 l 349 301 b 432 106 375 242 404 171 l 438 106 b 510 301 461 169 488 240 l 657 675 l 765 675 l 468 -56 b 182 -290 418 -189 335 -290 "},"z":{"ha":833,"x_min":0,"x_max":0,"o":"m 99 61 l 561 582 l 150 582 l 150 675 l 725 675 l 725 614 l 261 93 l 738 93 l 738 0 l 99 0 "},"À":{"ha":833,"x_min":0,"x_max":0,"o":"m 279 371 l 551 371 l 508 510 b 418 817 476 611 446 711 l 413 817 b 322 510 383 711 354 611 m 351 911 l 482 911 l 789 0 l 667 0 l 581 278 l 250 278 l 163 0 l 44 0 m 246 1128 l 311 1204 l 507 1026 l 457 968 "},"Á":{"ha":833,"x_min":0,"x_max":0,"o":"m 279 371 l 551 371 l 508 510 b 418 817 476 611 446 711 l 413 817 b 322 510 383 711 354 611 m 351 911 l 482 911 l 789 0 l 667 0 l 581 278 l 250 278 l 163 0 l 44 0 m 326 1026 l 522 1204 l 588 1128 l 376 968 "},"Â":{"ha":833,"x_min":0,"x_max":0,"o":"m 279 371 l 551 371 l 508 510 b 418 817 476 611 446 711 l 413 817 b 322 510 383 711 354 611 m 351 911 l 482 911 l 789 0 l 667 0 l 581 278 l 250 278 l 163 0 l 44 0 m 211 1007 l 357 1164 l 476 1164 l 622 1007 l 572 971 l 419 1100 l 414 1100 l 261 971 "},"Ã":{"ha":833,"x_min":0,"x_max":0,"o":"m 279 371 l 551 371 l 508 510 b 418 817 476 611 446 711 l 413 817 b 322 510 383 711 354 611 m 351 911 l 482 911 l 789 0 l 667 0 l 581 278 l 250 278 l 163 0 l 44 0 m 521 985 b 315 1083 417 985 381 1083 b 249 992 281 1083 254 1051 l 171 997 b 313 1168 176 1103 229 1168 b 518 1069 417 1168 453 1069 b 585 1161 553 1069 578 1101 l 663 1156 b 521 985 657 1049 604 985 "},"Ä":{"ha":833,"x_min":0,"x_max":0,"o":"m 279 371 l 551 371 l 508 510 b 418 817 476 611 446 711 l 413 817 b 322 510 383 711 354 611 m 351 911 l 482 911 l 789 0 l 667 0 l 581 278 l 250 278 l 163 0 l 44 0 m 290 993 b 219 1064 250 993 219 1022 b 290 1133 219 1106 250 1133 b 360 1064 331 1133 360 1106 b 290 993 360 1022 331 993 m 543 993 b 474 1064 503 993 474 1022 b 543 1133 474 1106 503 1133 b 614 1064 583 1133 614 1106 b 543 993 614 1022 583 993 "},"Ā":{"ha":833,"x_min":0,"x_max":0,"o":"m 279 371 l 551 371 l 508 510 b 418 817 476 611 446 711 l 413 817 b 322 510 383 711 354 611 m 351 911 l 482 911 l 789 0 l 667 0 l 581 278 l 250 278 l 163 0 l 44 0 m 231 1100 l 603 1100 l 603 1021 l 231 1021 "},"Ă":{"ha":833,"x_min":0,"x_max":0,"o":"m 279 371 l 551 371 l 508 510 b 418 817 476 611 446 711 l 413 817 b 322 510 383 711 354 611 m 351 911 l 482 911 l 789 0 l 667 0 l 581 278 l 250 278 l 163 0 l 44 0 m 417 979 b 214 1158 288 979 225 1061 l 283 1169 b 417 1053 294 1104 338 1053 b 550 1169 496 1053 539 1104 l 619 1158 b 417 979 608 1061 546 979 "},"Å":{"ha":833,"x_min":0,"x_max":0,"o":"m 279 371 l 551 371 l 508 510 b 418 817 476 611 446 711 l 413 817 b 322 510 383 711 354 611 m 351 911 l 482 911 l 789 0 l 667 0 l 581 278 l 250 278 l 163 0 l 44 0 m 417 1021 b 488 1096 454 1021 488 1047 b 417 1171 488 1143 454 1171 b 344 1096 376 1171 344 1143 b 417 1021 344 1047 376 1021 m 417 971 b 282 1096 339 971 282 1021 b 417 1222 282 1172 339 1222 b 551 1096 493 1222 551 1172 b 417 971 551 1021 493 971 "},"Ǻ":{"ha":833,"x_min":0,"x_max":0,"o":"m 417 971 b 282 1096 339 971 282 1021 b 333 1199 282 1140 301 1176 l 517 1344 l 568 1275 l 458 1217 b 551 1096 514 1201 551 1157 b 417 971 551 1021 493 971 m 279 371 l 551 371 l 508 510 b 418 817 476 611 446 711 l 413 817 b 322 510 383 711 354 611 m 351 911 l 482 911 l 789 0 l 667 0 l 581 278 l 250 278 l 163 0 l 44 0 m 417 1021 b 488 1096 454 1021 488 1047 b 417 1171 488 1143 454 1171 b 344 1096 376 1171 344 1143 b 417 1021 344 1047 376 1021 "},"Ǎ":{"ha":833,"x_min":0,"x_max":0,"o":"m 279 371 l 551 371 l 508 510 b 418 817 476 611 446 711 l 413 817 b 322 510 383 711 354 611 m 351 911 l 482 911 l 789 0 l 667 0 l 581 278 l 250 278 l 163 0 l 44 0 m 211 1138 l 261 1174 l 414 1046 l 419 1046 l 572 1174 l 622 1138 l 476 981 l 357 981 "},"Ą":{"ha":833,"x_min":0,"x_max":0,"o":"m 279 371 l 551 371 l 508 510 b 418 817 476 611 446 711 l 413 817 b 322 510 383 711 354 611 m 715 -312 b 572 -186 635 -312 572 -271 b 693 0 572 -100 638 -36 l 667 0 l 581 278 l 250 278 l 163 0 l 44 0 l 351 911 l 482 911 l 789 0 b 663 -161 718 -32 663 -93 b 738 -232 663 -208 697 -232 b 807 -203 768 -232 790 -218 l 843 -262 b 715 -312 811 -290 768 -312 "},"Ạ":{"ha":833,"x_min":0,"x_max":0,"o":"m 279 371 l 551 371 l 508 510 b 418 817 476 611 446 711 l 413 817 b 322 510 383 711 354 611 m 351 911 l 482 911 l 789 0 l 667 0 l 581 278 l 250 278 l 163 0 l 44 0 m 417 -299 b 325 -210 365 -299 325 -264 b 417 -121 325 -157 365 -121 b 508 -210 468 -121 508 -157 b 417 -299 508 -264 468 -299 "},"Ả":{"ha":833,"x_min":0,"x_max":0,"o":"m 279 371 l 551 371 l 508 510 b 418 817 476 611 446 711 l 413 817 b 322 510 383 711 354 611 m 351 911 l 482 911 l 789 0 l 667 0 l 581 278 l 250 278 l 163 0 l 44 0 m 360 1022 b 438 1086 404 1035 438 1051 b 322 1144 438 1122 400 1142 l 335 1211 b 526 1099 456 1207 526 1169 b 372 969 526 1018 453 983 "},"Ấ":{"ha":833,"x_min":0,"x_max":0,"o":"m 279 371 l 551 371 l 508 510 b 418 817 476 611 446 711 l 413 817 b 322 510 383 711 354 611 m 543 1104 l 678 1233 l 726 1179 l 585 1060 m 351 911 l 482 911 l 789 0 l 667 0 l 581 278 l 250 278 l 163 0 l 44 0 m 238 1007 l 367 1132 l 467 1132 l 596 1007 l 549 971 l 419 1067 l 414 1067 l 285 971 "},"Ầ":{"ha":833,"x_min":0,"x_max":0,"o":"m 279 371 l 551 371 l 508 510 b 418 817 476 611 446 711 l 413 817 b 322 510 383 711 354 611 m 124 1182 l 172 1233 l 290 1101 l 249 1060 m 351 911 l 482 911 l 789 0 l 667 0 l 581 278 l 250 278 l 163 0 l 44 0 m 238 1007 l 367 1132 l 467 1132 l 596 1007 l 549 971 l 419 1067 l 414 1067 l 285 971 "},"Ẩ":{"ha":833,"x_min":0,"x_max":0,"o":"m 279 371 l 551 371 l 508 510 b 418 817 476 611 446 711 l 413 817 b 322 510 383 711 354 611 m 561 1096 b 624 1146 596 1104 624 1117 b 525 1200 624 1182 594 1196 l 538 1258 b 704 1157 646 1254 704 1221 b 576 1047 704 1086 643 1058 m 351 911 l 482 911 l 789 0 l 667 0 l 581 278 l 250 278 l 163 0 l 44 0 m 238 1007 l 367 1132 l 467 1132 l 596 1007 l 549 971 l 419 1067 l 414 1067 l 285 971 "},"Ẫ":{"ha":833,"x_min":0,"x_max":0,"o":"m 279 371 l 551 371 l 508 510 b 418 817 476 611 446 711 l 413 817 b 322 510 383 711 354 611 m 351 911 l 482 911 l 789 0 l 667 0 l 581 278 l 250 278 l 163 0 l 44 0 m 238 1007 l 367 1128 l 467 1128 l 596 1007 l 549 971 l 419 1063 l 414 1063 l 285 971 m 508 1165 b 331 1235 419 1165 388 1235 b 278 1171 297 1235 283 1211 l 215 1178 b 325 1304 219 1249 250 1304 b 503 1236 414 1304 446 1236 b 556 1300 536 1236 550 1260 l 618 1293 b 508 1165 614 1221 583 1165 "},"Ậ":{"ha":833,"x_min":0,"x_max":0,"o":"m 279 371 l 551 371 l 508 510 b 418 817 476 611 446 711 l 413 817 b 322 510 383 711 354 611 m 351 911 l 482 911 l 789 0 l 667 0 l 581 278 l 250 278 l 163 0 l 44 0 m 211 1007 l 357 1164 l 476 1164 l 622 1007 l 572 971 l 419 1100 l 414 1100 l 261 971 m 417 -299 b 325 -210 365 -299 325 -264 b 417 -121 325 -157 365 -121 b 508 -210 468 -121 508 -157 b 417 -299 508 -264 468 -299 "},"Ắ":{"ha":833,"x_min":0,"x_max":0,"o":"m 279 371 l 551 371 l 508 510 b 418 817 476 611 446 711 l 413 817 b 322 510 383 711 354 611 m 351 911 l 482 911 l 789 0 l 667 0 l 581 278 l 250 278 l 163 0 l 44 0 m 417 979 b 214 1158 288 979 225 1061 l 279 1169 b 417 1047 290 1101 335 1047 b 554 1169 499 1047 543 1101 l 619 1158 b 417 979 608 1061 546 979 m 364 1156 l 496 1317 l 569 1267 l 421 1115 "},"Ằ":{"ha":833,"x_min":0,"x_max":0,"o":"m 279 371 l 551 371 l 508 510 b 418 817 476 611 446 711 l 413 817 b 322 510 383 711 354 611 m 351 911 l 482 911 l 789 0 l 667 0 l 581 278 l 250 278 l 163 0 l 44 0 m 417 979 b 214 1158 288 979 225 1061 l 279 1169 b 417 1047 290 1101 335 1047 b 554 1169 499 1047 543 1101 l 619 1158 b 417 979 608 1061 546 979 m 264 1267 l 338 1317 l 469 1156 l 413 1115 "},"Ẳ":{"ha":833,"x_min":0,"x_max":0,"o":"m 279 371 l 551 371 l 508 510 b 418 817 476 611 446 711 l 413 817 b 322 510 383 711 354 611 m 351 911 l 482 911 l 789 0 l 667 0 l 581 278 l 250 278 l 163 0 l 44 0 m 417 979 b 214 1158 288 979 225 1061 l 279 1169 b 417 1047 290 1101 335 1047 b 554 1169 499 1047 543 1101 l 619 1158 b 417 979 608 1061 546 979 m 371 1160 b 432 1210 404 1168 432 1181 b 335 1264 432 1246 403 1260 l 346 1322 b 514 1221 454 1318 514 1286 b 385 1111 514 1150 451 1122 "},"Ẵ":{"ha":833,"x_min":0,"x_max":0,"o":"m 279 371 l 551 371 l 508 510 b 418 817 476 611 446 711 l 413 817 b 322 510 383 711 354 611 m 351 911 l 482 911 l 789 0 l 667 0 l 581 278 l 250 278 l 163 0 l 44 0 m 417 983 b 218 1131 288 983 228 1053 l 282 1142 b 417 1046 292 1092 332 1046 b 551 1142 501 1046 542 1092 l 615 1131 b 417 983 606 1053 546 983 m 508 1171 b 331 1240 419 1171 388 1240 b 278 1175 297 1240 283 1217 l 215 1182 b 325 1310 219 1254 250 1310 b 503 1240 414 1310 446 1240 b 556 1304 536 1240 550 1264 l 618 1297 b 508 1171 614 1226 583 1171 "},"Ặ":{"ha":833,"x_min":0,"x_max":0,"o":"m 279 371 l 551 371 l 508 510 b 418 817 476 611 446 711 l 413 817 b 322 510 383 711 354 611 m 351 911 l 482 911 l 789 0 l 667 0 l 581 278 l 250 278 l 163 0 l 44 0 m 417 979 b 214 1158 288 979 225 1061 l 283 1169 b 417 1053 294 1104 338 1053 b 550 1169 496 1053 539 1104 l 619 1158 b 417 979 608 1061 546 979 m 417 -299 b 325 -210 365 -299 325 -264 b 417 -121 325 -157 365 -121 b 508 -210 468 -121 508 -157 b 417 -299 508 -264 468 -299 "},"Æ":{"ha":833,"x_min":0,"x_max":0,"o":"m 257 358 l 440 358 l 440 819 l 436 819 b 321 524 399 719 358 622 m 365 911 l 808 911 l 808 814 l 546 814 l 546 529 l 750 529 l 750 431 l 546 431 l 546 99 l 821 99 l 821 0 l 440 0 l 440 265 l 221 265 l 119 0 l -1 0 "},"Ǽ":{"ha":833,"x_min":0,"x_max":0,"o":"m 257 358 l 440 358 l 440 819 l 436 819 b 321 524 399 719 358 622 m 365 911 l 808 911 l 808 814 l 546 814 l 546 529 l 750 529 l 750 431 l 546 431 l 546 99 l 821 99 l 821 0 l 440 0 l 440 265 l 221 265 l 119 0 l -1 0 m 493 1026 l 689 1204 l 754 1128 l 543 968 "},"Ǣ":{"ha":833,"x_min":0,"x_max":0,"o":"m 257 358 l 440 358 l 440 819 l 436 819 b 321 524 399 719 358 622 m 365 911 l 808 911 l 808 814 l 546 814 l 546 529 l 750 529 l 750 431 l 546 431 l 546 99 l 821 99 l 821 0 l 440 0 l 440 265 l 221 265 l 119 0 l -1 0 m 397 1100 l 769 1100 l 769 1021 l 397 1021 "},"Ƀ":{"ha":833,"x_min":0,"x_max":0,"o":"m 146 225 l 36 225 l 36 303 l 146 311 l 146 911 l 404 911 b 717 689 590 911 717 849 b 557 490 717 599 665 518 l 557 485 b 768 267 690 464 768 392 b 425 0 768 88 629 0 l 146 0 m 408 97 b 654 272 564 97 654 149 b 408 431 654 385 568 431 l 261 431 l 261 311 l 458 311 l 458 225 l 261 225 l 261 97 m 385 528 b 603 679 540 528 603 578 b 390 814 603 778 531 814 l 261 814 l 261 528 "},"Ḇ":{"ha":833,"x_min":0,"x_max":0,"o":"m 138 911 l 396 911 b 708 689 582 911 708 849 b 549 490 708 599 657 518 l 549 485 b 760 267 682 464 760 392 b 417 0 760 88 621 0 l 138 0 m 376 528 b 594 679 532 528 594 578 b 382 814 594 778 522 814 l 253 814 l 253 528 m 400 97 b 646 272 556 97 646 149 b 400 431 646 385 560 431 l 253 431 l 253 97 m 242 -157 l 611 -157 l 611 -236 l 242 -236 "},"Ç":{"ha":833,"x_min":0,"x_max":0,"o":"m 354 -258 b 506 -189 471 -250 506 -229 b 399 -122 506 -153 478 -133 l 443 -14 b 90 456 240 7 90 178 b 499 928 90 749 261 928 b 747 817 607 928 694 875 l 682 743 b 499 826 635 793 575 826 b 210 458 324 826 210 685 b 499 85 210 229 324 85 b 704 186 582 85 646 121 l 769 115 b 519 -15 704 39 624 -7 l 493 -89 b 594 -187 557 -104 594 -131 b 365 -314 594 -268 513 -307 "},"Ć":{"ha":833,"x_min":0,"x_max":0,"o":"m 488 -17 b 90 456 263 -17 90 158 b 499 928 90 749 261 928 b 747 817 607 928 694 875 l 682 743 b 499 826 635 793 575 826 b 210 458 324 826 210 685 b 499 85 210 229 324 85 b 704 186 582 85 646 121 l 769 115 b 488 -17 697 32 608 -17 m 390 1026 l 586 1204 l 651 1128 l 440 968 "},"Ĉ":{"ha":833,"x_min":0,"x_max":0,"o":"m 488 -17 b 90 456 263 -17 90 158 b 499 928 90 749 261 928 b 747 817 607 928 694 875 l 682 743 b 499 826 635 793 575 826 b 210 458 324 826 210 685 b 499 85 210 229 324 85 b 704 186 582 85 646 121 l 769 115 b 488 -17 697 32 608 -17 m 275 1007 l 421 1164 l 540 1164 l 686 1007 l 636 971 l 483 1100 l 478 1100 l 325 971 "},"Č":{"ha":833,"x_min":0,"x_max":0,"o":"m 488 -17 b 90 456 263 -17 90 158 b 499 928 90 749 261 928 b 747 817 607 928 694 875 l 682 743 b 499 826 635 793 575 826 b 210 458 324 826 210 685 b 499 85 210 229 324 85 b 704 186 582 85 646 121 l 769 115 b 488 -17 697 32 608 -17 m 275 1138 l 325 1174 l 478 1046 l 483 1046 l 636 1174 l 686 1138 l 540 981 l 421 981 "},"Ċ":{"ha":833,"x_min":0,"x_max":0,"o":"m 488 -17 b 90 456 263 -17 90 158 b 499 928 90 749 261 928 b 747 817 607 928 694 875 l 682 743 b 499 826 635 793 575 826 b 210 458 324 826 210 685 b 499 85 210 229 324 85 b 704 186 582 85 646 121 l 769 115 b 488 -17 697 32 608 -17 m 481 992 b 399 1071 435 992 399 1024 b 481 1149 399 1117 435 1149 b 563 1071 526 1149 563 1117 b 481 992 563 1024 526 992 "},"Ď":{"ha":833,"x_min":0,"x_max":0,"o":"m 121 911 l 346 911 b 768 460 619 911 768 749 b 351 0 768 169 619 0 l 121 0 m 338 94 b 649 460 546 94 649 229 b 338 817 649 689 546 817 l 236 817 l 236 94 m 211 1138 l 261 1174 l 414 1046 l 419 1046 l 572 1174 l 622 1138 l 476 981 l 357 981 "},"Ḍ":{"ha":833,"x_min":0,"x_max":0,"o":"m 121 911 l 346 911 b 768 460 619 911 768 749 b 351 0 768 169 619 0 l 121 0 m 338 94 b 649 460 546 94 649 229 b 338 817 649 689 546 817 l 236 817 l 236 94 m 408 -299 b 317 -210 357 -299 317 -264 b 408 -121 317 -157 357 -121 b 500 -210 460 -121 500 -157 b 408 -299 500 -264 460 -299 "},"Ḏ":{"ha":833,"x_min":0,"x_max":0,"o":"m 121 911 l 346 911 b 768 460 619 911 768 749 b 351 0 768 169 619 0 l 121 0 m 338 94 b 649 460 546 94 649 229 b 338 817 649 689 546 817 l 236 817 l 236 94 m 224 -157 l 593 -157 l 593 -236 l 224 -236 "},"Ḑ":{"ha":833,"x_min":0,"x_max":0,"o":"m 338 94 b 649 460 546 94 649 229 b 338 817 649 689 546 817 l 236 817 l 236 94 m 121 911 l 346 911 b 768 460 619 911 768 749 b 439 7 768 203 651 40 l 404 -89 b 506 -187 468 -104 506 -131 b 276 -314 506 -268 424 -307 l 265 -258 b 417 -189 382 -250 417 -229 b 310 -122 417 -153 389 -133 l 361 0 b 351 0 357 0 354 0 l 121 0 "},"Đ":{"ha":833,"x_min":0,"x_max":0,"o":"m 121 436 l 17 436 l 17 514 l 121 522 l 121 911 l 346 911 b 768 460 619 911 768 749 b 351 0 768 169 619 0 l 121 0 m 338 94 b 647 460 544 94 647 229 b 338 817 647 689 544 817 l 236 817 l 236 522 l 436 522 l 436 436 l 236 436 l 236 94 "},"Ɗ":{"ha":833,"x_min":0,"x_max":0,"o":"m 290 826 b 131 624 185 806 131 725 b 236 444 131 535 167 486 l 181 364 b 28 618 86 411 28 490 b 374 928 28 797 144 928 b 788 469 653 928 788 763 b 428 0 788 171 653 0 l 290 0 m 435 94 b 668 469 586 94 668 232 b 406 832 668 694 589 824 l 406 94 "},"È":{"ha":833,"x_min":0,"x_max":0,"o":"m 158 911 l 722 911 l 722 814 l 275 814 l 275 528 l 653 528 l 653 429 l 275 429 l 275 99 l 736 99 l 736 0 l 158 0 m 289 1128 l 354 1204 l 550 1026 l 500 968 "},"É":{"ha":833,"x_min":0,"x_max":0,"o":"m 158 911 l 722 911 l 722 814 l 275 814 l 275 528 l 653 528 l 653 429 l 275 429 l 275 99 l 736 99 l 736 0 l 158 0 m 369 1026 l 565 1204 l 631 1128 l 419 968 "},"Ê":{"ha":833,"x_min":0,"x_max":0,"o":"m 158 911 l 722 911 l 722 814 l 275 814 l 275 528 l 653 528 l 653 429 l 275 429 l 275 99 l 736 99 l 736 0 l 158 0 m 254 1007 l 400 1164 l 519 1164 l 665 1007 l 615 971 l 463 1100 l 457 1100 l 304 971 "},"Ě":{"ha":833,"x_min":0,"x_max":0,"o":"m 158 911 l 722 911 l 722 814 l 275 814 l 275 528 l 653 528 l 653 429 l 275 429 l 275 99 l 736 99 l 736 0 l 158 0 m 254 1138 l 304 1174 l 457 1046 l 463 1046 l 615 1174 l 665 1138 l 519 981 l 400 981 "},"Ë":{"ha":833,"x_min":0,"x_max":0,"o":"m 158 911 l 722 911 l 722 814 l 275 814 l 275 528 l 653 528 l 653 429 l 275 429 l 275 99 l 736 99 l 736 0 l 158 0 m 333 993 b 263 1064 293 993 263 1022 b 333 1133 263 1106 293 1133 b 403 1064 374 1133 403 1106 b 333 993 403 1022 374 993 m 586 993 b 517 1064 546 993 517 1022 b 586 1133 517 1106 546 1133 b 657 1064 626 1133 657 1106 b 586 993 657 1022 626 993 "},"Ē":{"ha":833,"x_min":0,"x_max":0,"o":"m 158 911 l 722 911 l 722 814 l 275 814 l 275 528 l 653 528 l 653 429 l 275 429 l 275 99 l 736 99 l 736 0 l 158 0 m 274 1100 l 646 1100 l 646 1021 l 274 1021 "},"Ĕ":{"ha":833,"x_min":0,"x_max":0,"o":"m 158 911 l 722 911 l 722 814 l 275 814 l 275 528 l 653 528 l 653 429 l 275 429 l 275 99 l 736 99 l 736 0 l 158 0 m 460 979 b 257 1158 331 979 268 1061 l 326 1169 b 460 1053 338 1104 381 1053 b 593 1169 539 1053 582 1104 l 663 1158 b 460 979 651 1061 589 979 "},"Ė":{"ha":833,"x_min":0,"x_max":0,"o":"m 158 911 l 722 911 l 722 814 l 275 814 l 275 528 l 653 528 l 653 429 l 275 429 l 275 99 l 736 99 l 736 0 l 158 0 m 460 992 b 378 1071 414 992 378 1024 b 460 1149 378 1117 414 1149 b 542 1071 506 1149 542 1117 b 460 992 542 1024 506 992 "},"Ę":{"ha":833,"x_min":0,"x_max":0,"o":"m 642 -312 b 499 -186 560 -312 499 -271 b 618 0 499 -103 557 -36 l 160 0 l 160 911 l 722 911 l 722 814 l 276 814 l 276 528 l 653 528 l 653 429 l 276 429 l 276 99 l 736 99 l 736 0 l 731 0 b 588 -161 660 -11 588 -87 b 664 -232 588 -210 625 -232 b 733 -203 693 -232 715 -218 l 768 -262 b 642 -312 736 -290 694 -312 "},"Ẹ":{"ha":833,"x_min":0,"x_max":0,"o":"m 158 911 l 722 911 l 722 814 l 275 814 l 275 528 l 653 528 l 653 429 l 275 429 l 275 99 l 736 99 l 736 0 l 158 0 m 463 -299 b 371 -210 411 -299 371 -264 b 463 -121 371 -157 411 -121 b 554 -210 514 -121 554 -157 b 463 -299 554 -264 514 -299 "},"Ẻ":{"ha":833,"x_min":0,"x_max":0,"o":"m 158 911 l 722 911 l 722 814 l 275 814 l 275 528 l 653 528 l 653 429 l 275 429 l 275 99 l 736 99 l 736 0 l 158 0 m 403 1022 b 481 1086 447 1035 481 1051 b 365 1144 481 1122 443 1142 l 378 1211 b 569 1099 499 1207 569 1169 b 415 969 569 1018 496 983 "},"Ẽ":{"ha":833,"x_min":0,"x_max":0,"o":"m 158 911 l 722 911 l 722 814 l 275 814 l 275 528 l 653 528 l 653 429 l 275 429 l 275 99 l 736 99 l 736 0 l 158 0 m 564 985 b 358 1083 460 985 424 1083 b 292 992 324 1083 297 1051 l 214 997 b 356 1168 219 1103 272 1168 b 561 1069 460 1168 496 1069 b 628 1161 596 1069 621 1101 l 706 1156 b 564 985 700 1049 647 985 "},"Ế":{"ha":833,"x_min":0,"x_max":0,"o":"m 158 911 l 722 911 l 722 814 l 275 814 l 275 528 l 653 528 l 653 429 l 275 429 l 275 99 l 736 99 l 736 0 l 158 0 m 281 1007 l 410 1132 l 510 1132 l 639 1007 l 592 971 l 463 1067 l 457 1067 l 328 971 m 586 1104 l 721 1233 l 769 1179 l 628 1060 "},"Ề":{"ha":833,"x_min":0,"x_max":0,"o":"m 158 911 l 722 911 l 722 814 l 275 814 l 275 528 l 653 528 l 653 429 l 275 429 l 275 99 l 736 99 l 736 0 l 158 0 m 281 1007 l 410 1132 l 510 1132 l 639 1007 l 592 971 l 463 1067 l 457 1067 l 328 971 m 167 1182 l 215 1233 l 333 1101 l 292 1060 "},"Ể":{"ha":833,"x_min":0,"x_max":0,"o":"m 158 911 l 722 911 l 722 814 l 275 814 l 275 528 l 653 528 l 653 429 l 275 429 l 275 99 l 736 99 l 736 0 l 158 0 m 281 1007 l 410 1132 l 510 1132 l 639 1007 l 592 971 l 463 1067 l 457 1067 l 328 971 m 604 1096 b 667 1146 639 1104 667 1117 b 568 1200 667 1182 638 1196 l 581 1258 b 747 1157 689 1254 747 1221 b 619 1047 747 1086 686 1058 "},"Ễ":{"ha":833,"x_min":0,"x_max":0,"o":"m 158 911 l 722 911 l 722 814 l 275 814 l 275 528 l 653 528 l 653 429 l 275 429 l 275 99 l 736 99 l 736 0 l 158 0 m 281 1007 l 410 1128 l 510 1128 l 639 1007 l 592 971 l 463 1063 l 457 1063 l 328 971 m 551 1165 b 374 1235 463 1165 431 1235 b 321 1171 340 1235 326 1211 l 258 1178 b 368 1304 263 1249 293 1304 b 546 1236 457 1304 489 1236 b 599 1300 579 1236 593 1260 l 661 1293 b 551 1165 657 1221 626 1165 "},"Ệ":{"ha":833,"x_min":0,"x_max":0,"o":"m 158 911 l 722 911 l 722 814 l 275 814 l 275 528 l 653 528 l 653 429 l 275 429 l 275 99 l 736 99 l 736 0 l 158 0 m 254 1007 l 400 1164 l 519 1164 l 665 1007 l 615 971 l 463 1100 l 457 1100 l 304 971 m 463 -299 b 371 -210 411 -299 371 -264 b 463 -121 371 -157 411 -121 b 554 -210 514 -121 554 -157 b 463 -299 554 -264 514 -299 "},"Ḗ":{"ha":833,"x_min":0,"x_max":0,"o":"m 158 911 l 722 911 l 722 814 l 275 814 l 275 528 l 653 528 l 653 429 l 275 429 l 275 99 l 736 99 l 736 0 l 158 0 m 274 1100 l 646 1100 l 646 1021 l 274 1021 m 392 1201 l 560 1344 l 614 1278 l 435 1149 "},"Ǵ":{"ha":833,"x_min":0,"x_max":0,"o":"m 468 -17 b 74 456 239 -17 74 158 b 478 928 74 750 242 928 b 729 817 599 928 678 871 l 664 743 b 478 826 619 790 565 826 b 194 458 307 826 194 685 b 475 85 194 229 296 85 b 633 139 539 85 599 106 l 633 376 l 451 376 l 451 472 l 740 472 l 740 89 b 468 -17 683 31 586 -17 m 368 1026 l 564 1204 l 629 1128 l 418 968 "},"Ĝ":{"ha":833,"x_min":0,"x_max":0,"o":"m 468 -17 b 74 456 239 -17 74 158 b 478 928 74 750 242 928 b 729 817 599 928 678 871 l 664 743 b 478 826 619 790 565 826 b 194 458 307 826 194 685 b 475 85 194 229 296 85 b 633 139 539 85 599 106 l 633 376 l 451 376 l 451 472 l 740 472 l 740 89 b 468 -17 683 31 586 -17 m 253 1007 l 399 1164 l 518 1164 l 664 1007 l 614 971 l 461 1100 l 456 1100 l 303 971 "},"Ğ":{"ha":833,"x_min":0,"x_max":0,"o":"m 468 -17 b 74 456 239 -17 74 158 b 478 928 74 750 242 928 b 729 817 599 928 678 871 l 664 743 b 478 826 619 790 565 826 b 194 458 307 826 194 685 b 475 85 194 229 296 85 b 633 139 539 85 599 106 l 633 376 l 451 376 l 451 472 l 740 472 l 740 89 b 468 -17 683 31 586 -17 m 458 979 b 256 1158 329 979 267 1061 l 325 1169 b 458 1053 336 1104 379 1053 b 592 1169 538 1053 581 1104 l 661 1158 b 458 979 650 1061 588 979 "},"Ġ":{"ha":833,"x_min":0,"x_max":0,"o":"m 468 -17 b 74 456 239 -17 74 158 b 478 928 74 750 242 928 b 729 817 599 928 678 871 l 664 743 b 478 826 619 790 565 826 b 194 458 307 826 194 685 b 475 85 194 229 296 85 b 633 139 539 85 599 106 l 633 376 l 451 376 l 451 472 l 740 472 l 740 89 b 468 -17 683 31 586 -17 m 458 992 b 376 1071 413 992 376 1024 b 458 1149 376 1117 413 1149 b 540 1071 504 1149 540 1117 b 458 992 540 1024 504 992 "},"Ģ":{"ha":833,"x_min":0,"x_max":0,"o":"m 468 -17 b 74 456 239 -17 74 158 b 478 928 74 750 242 928 b 729 817 599 928 678 871 l 664 743 b 478 826 619 790 565 826 b 194 458 307 826 194 685 b 475 85 194 229 296 85 b 633 139 539 85 599 106 l 633 376 l 451 376 l 451 472 l 740 472 l 740 89 b 468 -17 683 31 586 -17 m 326 -258 b 478 -192 443 -250 478 -229 b 379 -133 478 -156 443 -139 l 404 -81 b 567 -187 525 -94 567 -125 b 338 -314 567 -268 485 -307 "},"Ǧ":{"ha":833,"x_min":0,"x_max":0,"o":"m 468 -17 b 74 456 239 -17 74 158 b 478 928 74 750 242 928 b 729 817 599 928 678 871 l 664 743 b 478 826 619 790 565 826 b 194 458 307 826 194 685 b 475 85 194 229 296 85 b 633 139 539 85 599 106 l 633 376 l 451 376 l 451 472 l 740 472 l 740 89 b 468 -17 683 31 586 -17 m 253 1138 l 303 1174 l 456 1046 l 461 1046 l 614 1174 l 664 1138 l 518 981 l 399 981 "},"Ḡ":{"ha":833,"x_min":0,"x_max":0,"o":"m 468 -17 b 74 456 239 -17 74 158 b 478 928 74 750 242 928 b 729 817 599 928 678 871 l 664 743 b 478 826 619 790 565 826 b 194 458 307 826 194 685 b 475 85 194 229 296 85 b 633 139 539 85 599 106 l 633 376 l 451 376 l 451 472 l 740 472 l 740 89 b 468 -17 683 31 586 -17 m 272 1100 l 644 1100 l 644 1021 l 272 1021 "},"Ɠ":{"ha":833,"x_min":0,"x_max":0,"o":"m 664 743 b 478 826 619 790 565 826 b 194 458 307 826 194 685 b 475 85 194 229 296 85 b 633 139 539 85 599 106 l 633 376 l 451 376 l 451 472 l 740 472 l 740 89 b 468 -17 683 31 586 -17 b 74 456 239 -17 74 158 b 478 928 74 750 242 928 b 586 911 518 928 554 921 b 576 971 579 931 576 950 b 731 1117 576 1057 639 1117 b 818 1099 768 1117 796 1107 l 796 1011 b 749 1024 781 1017 768 1024 b 674 949 701 1024 674 990 b 729 817 674 899 693 869 "},"Ĥ":{"ha":833,"x_min":0,"x_max":0,"o":"m 110 911 l 226 911 l 226 529 l 607 529 l 607 911 l 724 911 l 724 0 l 607 0 l 607 429 l 226 429 l 226 0 l 110 0 m 211 1007 l 357 1164 l 476 1164 l 622 1007 l 572 971 l 419 1100 l 414 1100 l 261 971 "},"Ḧ":{"ha":833,"x_min":0,"x_max":0,"o":"m 110 911 l 226 911 l 226 529 l 607 529 l 607 911 l 724 911 l 724 0 l 607 0 l 607 429 l 226 429 l 226 0 l 110 0 m 290 993 b 219 1064 250 993 219 1022 b 290 1133 219 1106 250 1133 b 360 1064 331 1133 360 1106 b 290 993 360 1022 331 993 m 543 993 b 474 1064 503 993 474 1022 b 543 1133 474 1106 503 1133 b 614 1064 583 1133 614 1106 b 543 993 614 1022 583 993 "},"Ḥ":{"ha":833,"x_min":0,"x_max":0,"o":"m 110 911 l 226 911 l 226 529 l 607 529 l 607 911 l 724 911 l 724 0 l 607 0 l 607 429 l 226 429 l 226 0 l 110 0 m 417 -299 b 325 -210 365 -299 325 -264 b 417 -121 325 -157 365 -121 b 508 -210 468 -121 508 -157 b 417 -299 508 -264 468 -299 "},"Ḩ":{"ha":833,"x_min":0,"x_max":0,"o":"m 110 911 l 226 911 l 226 529 l 607 529 l 607 911 l 724 911 l 724 0 l 607 0 l 607 429 l 226 429 l 226 0 l 208 0 l 176 -89 b 278 -187 240 -104 278 -131 b 49 -314 278 -268 196 -307 l 38 -258 b 189 -189 154 -250 189 -229 b 82 -122 189 -153 161 -133 l 133 0 l 110 0 "},"Ḫ":{"ha":833,"x_min":0,"x_max":0,"o":"m 110 911 l 226 911 l 226 529 l 607 529 l 607 911 l 724 911 l 724 0 l 607 0 l 607 429 l 226 429 l 226 0 l 110 0 m 417 -321 b 200 -111 268 -321 207 -214 l 271 -100 b 417 -244 282 -171 326 -244 b 563 -100 507 -244 551 -171 l 633 -111 b 417 -321 626 -214 565 -321 "},"Ħ":{"ha":833,"x_min":0,"x_max":0,"o":"m 110 672 l 14 672 l 14 750 l 110 758 l 110 911 l 226 911 l 226 758 l 607 758 l 607 911 l 724 911 l 724 758 l 819 758 l 819 672 l 724 672 l 724 0 l 607 0 l 607 429 l 226 429 l 226 0 l 110 0 m 607 529 l 607 672 l 226 672 l 226 529 "},"Ì":{"ha":833,"x_min":0,"x_max":0,"o":"m 132 99 l 358 99 l 358 814 l 132 814 l 132 911 l 701 911 l 701 814 l 475 814 l 475 99 l 701 99 l 701 0 l 132 0 m 246 1128 l 311 1204 l 507 1026 l 457 968 "},"Í":{"ha":833,"x_min":0,"x_max":0,"o":"m 132 99 l 358 99 l 358 814 l 132 814 l 132 911 l 701 911 l 701 814 l 475 814 l 475 99 l 701 99 l 701 0 l 132 0 m 326 1026 l 522 1204 l 588 1128 l 376 968 "},"Î":{"ha":833,"x_min":0,"x_max":0,"o":"m 132 99 l 358 99 l 358 814 l 132 814 l 132 911 l 701 911 l 701 814 l 475 814 l 475 99 l 701 99 l 701 0 l 132 0 m 211 1007 l 357 1164 l 476 1164 l 622 1007 l 572 971 l 419 1100 l 414 1100 l 261 971 "},"Ĩ":{"ha":833,"x_min":0,"x_max":0,"o":"m 132 99 l 358 99 l 358 814 l 132 814 l 132 911 l 701 911 l 701 814 l 475 814 l 475 99 l 701 99 l 701 0 l 132 0 m 521 985 b 315 1083 417 985 381 1083 b 249 992 281 1083 254 1051 l 171 997 b 313 1168 176 1103 229 1168 b 518 1069 417 1168 453 1069 b 585 1161 553 1069 578 1101 l 663 1156 b 521 985 657 1049 604 985 "},"Ï":{"ha":833,"x_min":0,"x_max":0,"o":"m 132 99 l 358 99 l 358 814 l 132 814 l 132 911 l 701 911 l 701 814 l 475 814 l 475 99 l 701 99 l 701 0 l 132 0 m 290 993 b 219 1064 250 993 219 1022 b 290 1133 219 1106 250 1133 b 360 1064 331 1133 360 1106 b 290 993 360 1022 331 993 m 543 993 b 474 1064 503 993 474 1022 b 543 1133 474 1106 503 1133 b 614 1064 583 1133 614 1106 b 543 993 614 1022 583 993 "},"Ī":{"ha":833,"x_min":0,"x_max":0,"o":"m 132 99 l 358 99 l 358 814 l 132 814 l 132 911 l 701 911 l 701 814 l 475 814 l 475 99 l 701 99 l 701 0 l 132 0 m 231 1100 l 603 1100 l 603 1021 l 231 1021 "},"İ":{"ha":833,"x_min":0,"x_max":0,"o":"m 132 99 l 358 99 l 358 814 l 132 814 l 132 911 l 701 911 l 701 814 l 475 814 l 475 99 l 701 99 l 701 0 l 132 0 m 417 992 b 335 1071 371 992 335 1024 b 417 1149 335 1117 371 1149 b 499 1071 463 1149 499 1117 b 417 992 499 1024 463 992 "},"Ǐ":{"ha":833,"x_min":0,"x_max":0,"o":"m 132 99 l 358 99 l 358 814 l 132 814 l 132 911 l 701 911 l 701 814 l 475 814 l 475 99 l 701 99 l 701 0 l 132 0 m 211 1138 l 261 1174 l 414 1046 l 419 1046 l 572 1174 l 622 1138 l 476 981 l 357 981 "},"Į":{"ha":833,"x_min":0,"x_max":0,"o":"m 432 -312 b 289 -186 351 -312 289 -271 b 388 0 289 -108 342 -44 l 132 0 l 132 99 l 358 99 l 358 814 l 132 814 l 132 911 l 701 911 l 701 814 l 475 814 l 475 99 l 701 99 l 701 0 l 482 0 b 379 -161 411 -53 379 -110 b 454 -232 379 -210 417 -232 b 524 -203 485 -232 507 -218 l 558 -262 b 432 -312 526 -290 485 -312 "},"Ỉ":{"ha":833,"x_min":0,"x_max":0,"o":"m 132 99 l 358 99 l 358 814 l 132 814 l 132 911 l 701 911 l 701 814 l 475 814 l 475 99 l 701 99 l 701 0 l 132 0 m 360 1022 b 438 1086 404 1035 438 1051 b 322 1144 438 1122 400 1142 l 335 1211 b 526 1099 456 1207 526 1169 b 372 969 526 1018 453 983 "},"Ị":{"ha":833,"x_min":0,"x_max":0,"o":"m 132 99 l 358 99 l 358 814 l 132 814 l 132 911 l 701 911 l 701 814 l 475 814 l 475 99 l 701 99 l 701 0 l 132 0 m 417 -299 b 325 -210 365 -299 325 -264 b 417 -121 325 -157 365 -121 b 508 -210 468 -121 508 -157 b 417 -299 508 -264 468 -299 "},"Ĭ":{"ha":833,"x_min":0,"x_max":0,"o":"m 132 99 l 358 99 l 358 814 l 132 814 l 132 911 l 701 911 l 701 814 l 475 814 l 475 99 l 701 99 l 701 0 l 132 0 m 417 979 b 214 1158 288 979 225 1061 l 283 1169 b 417 1053 294 1104 338 1053 b 550 1169 496 1053 539 1104 l 619 1158 b 417 979 608 1061 546 979 "},"Ĵ":{"ha":833,"x_min":0,"x_max":0,"o":"m 383 -17 b 113 135 282 -17 175 31 l 185 206 b 381 85 236 124 310 85 b 569 301 511 85 569 151 l 569 815 l 188 815 l 188 913 l 685 913 l 685 292 b 383 -17 685 122 610 -17 m 244 1007 l 390 1164 l 510 1164 l 656 1007 l 606 971 l 453 1100 l 447 1100 l 294 971 "},"Ķ":{"ha":833,"x_min":0,"x_max":0,"o":"m 136 911 l 253 911 l 253 454 l 257 454 l 640 911 l 772 911 l 483 565 l 806 0 l 675 0 l 410 478 l 253 290 l 253 0 l 136 0 m 338 -258 b 489 -192 454 -250 489 -229 b 390 -133 489 -156 454 -139 l 415 -81 b 578 -187 536 -94 578 -125 b 349 -314 578 -268 496 -307 "},"Ḳ":{"ha":833,"x_min":0,"x_max":0,"o":"m 136 911 l 253 911 l 253 454 l 257 454 l 640 911 l 772 911 l 483 565 l 806 0 l 675 0 l 410 478 l 253 290 l 253 0 l 136 0 m 469 -299 b 378 -210 418 -299 378 -264 b 469 -121 378 -157 418 -121 b 561 -210 521 -121 561 -157 b 469 -299 561 -264 521 -299 "},"Ḵ":{"ha":833,"x_min":0,"x_max":0,"o":"m 136 911 l 253 911 l 253 454 l 257 454 l 640 911 l 772 911 l 483 565 l 806 0 l 675 0 l 410 478 l 253 290 l 253 0 l 136 0 m 285 -157 l 654 -157 l 654 -236 l 285 -236 "},"Ĺ":{"ha":833,"x_min":0,"x_max":0,"o":"m 186 911 l 300 911 l 300 99 l 751 99 l 751 0 l 186 0 m 172 1026 l 368 1204 l 433 1128 l 222 968 "},"Ľ":{"ha":833,"x_min":0,"x_max":0,"o":"m 186 911 l 300 911 l 300 99 l 751 99 l 751 0 l 186 0 m 526 1086 l 629 1086 l 629 974 l 610 714 l 531 714 "},"Ļ":{"ha":833,"x_min":0,"x_max":0,"o":"m 186 911 l 300 911 l 300 99 l 751 99 l 751 0 l 186 0 m 353 -258 b 504 -192 469 -250 504 -229 b 406 -133 504 -156 469 -139 l 431 -81 b 593 -187 551 -94 593 -125 b 364 -314 593 -268 511 -307 "},"Ḷ":{"ha":833,"x_min":0,"x_max":0,"o":"m 186 911 l 300 911 l 300 99 l 751 99 l 751 0 l 186 0 m 485 -299 b 393 -210 433 -299 393 -264 b 485 -121 393 -157 433 -121 b 576 -210 536 -121 576 -157 b 485 -299 576 -264 536 -299 "},"Ḹ":{"ha":833,"x_min":0,"x_max":0,"o":"m 186 911 l 300 911 l 300 99 l 751 99 l 751 0 l 186 0 m 76 1100 l 449 1100 l 449 1021 l 76 1021 m 485 -299 b 393 -210 433 -299 393 -264 b 485 -121 393 -157 433 -121 b 576 -210 536 -121 576 -157 b 485 -299 576 -264 536 -299 "},"Ḻ":{"ha":833,"x_min":0,"x_max":0,"o":"m 186 911 l 300 911 l 300 99 l 751 99 l 751 0 l 186 0 m 300 -157 l 669 -157 l 669 -236 l 300 -236 "},"Ł":{"ha":833,"x_min":0,"x_max":0,"o":"m 186 324 l 54 251 l 14 325 l 186 417 l 186 911 l 300 911 l 300 468 l 593 625 l 633 551 l 300 374 l 300 99 l 751 99 l 751 0 l 186 0 "},"Ŀ":{"ha":833,"x_min":0,"x_max":0,"o":"m 186 911 l 300 911 l 300 99 l 751 99 l 751 0 l 186 0 m 649 397 b 557 486 597 397 557 432 b 649 575 557 539 597 575 b 740 486 700 575 740 539 b 649 397 740 432 700 397 "},"Ḿ":{"ha":833,"x_min":0,"x_max":0,"o":"m 100 911 l 242 911 l 369 522 l 414 375 l 419 375 l 463 522 l 592 911 l 733 911 l 733 0 l 622 0 l 622 456 b 642 778 622 544 636 700 l 638 778 l 586 600 l 456 242 l 372 242 l 244 600 l 192 778 l 189 778 b 208 456 197 700 208 544 l 208 0 l 100 0 m 326 1026 l 522 1204 l 588 1128 l 376 968 "},"Ṁ":{"ha":833,"x_min":0,"x_max":0,"o":"m 100 911 l 242 911 l 369 522 l 414 375 l 419 375 l 463 522 l 592 911 l 733 911 l 733 0 l 622 0 l 622 456 b 642 778 622 544 636 700 l 638 778 l 586 600 l 456 242 l 372 242 l 244 600 l 192 778 l 189 778 b 208 456 197 700 208 544 l 208 0 l 100 0 m 417 992 b 335 1071 371 992 335 1024 b 417 1149 335 1117 371 1149 b 499 1071 463 1149 499 1117 b 417 992 499 1024 463 992 "},"Ṃ":{"ha":833,"x_min":0,"x_max":0,"o":"m 100 911 l 242 911 l 369 522 l 414 375 l 419 375 l 463 522 l 592 911 l 733 911 l 733 0 l 622 0 l 622 456 b 642 778 622 544 636 700 l 638 778 l 586 600 l 456 242 l 372 242 l 244 600 l 192 778 l 189 778 b 208 456 197 700 208 544 l 208 0 l 100 0 m 417 -299 b 325 -210 365 -299 325 -264 b 417 -121 325 -157 365 -121 b 508 -210 468 -121 508 -157 b 417 -299 508 -264 468 -299 "},"Ń":{"ha":833,"x_min":0,"x_max":0,"o":"m 114 911 l 242 911 l 533 339 l 621 150 l 624 150 b 608 439 619 240 608 343 l 608 911 l 719 911 l 719 0 l 592 0 l 300 572 l 213 761 l 210 761 b 225 476 214 668 225 571 l 225 0 l 114 0 m 340 1026 l 536 1204 l 601 1128 l 390 968 "},"Ǹ":{"ha":833,"x_min":0,"x_max":0,"o":"m 114 911 l 242 911 l 533 339 l 621 150 l 624 150 b 608 439 619 240 608 343 l 608 911 l 719 911 l 719 0 l 592 0 l 300 572 l 213 761 l 210 761 b 225 476 214 668 225 571 l 225 0 l 114 0 m 260 1128 l 325 1204 l 521 1026 l 471 968 "},"Ň":{"ha":833,"x_min":0,"x_max":0,"o":"m 114 911 l 242 911 l 533 339 l 621 150 l 624 150 b 608 439 619 240 608 343 l 608 911 l 719 911 l 719 0 l 592 0 l 300 572 l 213 761 l 210 761 b 225 476 214 668 225 571 l 225 0 l 114 0 m 225 1138 l 275 1174 l 428 1046 l 433 1046 l 586 1174 l 636 1138 l 490 981 l 371 981 "},"Ñ":{"ha":833,"x_min":0,"x_max":0,"o":"m 114 911 l 242 911 l 533 339 l 621 150 l 624 150 b 608 439 619 240 608 343 l 608 911 l 719 911 l 719 0 l 592 0 l 300 572 l 213 761 l 210 761 b 225 476 214 668 225 571 l 225 0 l 114 0 m 535 985 b 329 1083 431 985 394 1083 b 263 992 294 1083 268 1051 l 185 997 b 326 1168 190 1103 243 1168 b 532 1069 431 1168 467 1069 b 599 1161 567 1069 592 1101 l 676 1156 b 535 985 671 1049 618 985 "},"Ņ":{"ha":833,"x_min":0,"x_max":0,"o":"m 114 911 l 242 911 l 533 339 l 621 150 l 624 150 b 608 439 619 240 608 343 l 608 911 l 719 911 l 719 0 l 592 0 l 300 572 l 213 761 l 210 761 b 225 476 214 668 225 571 l 225 0 l 114 0 m 285 -258 b 436 -192 401 -250 436 -229 b 338 -133 436 -156 401 -139 l 363 -81 b 525 -187 483 -94 525 -125 b 296 -314 525 -268 443 -307 "},"Ṅ":{"ha":833,"x_min":0,"x_max":0,"o":"m 114 911 l 242 911 l 533 339 l 621 150 l 624 150 b 608 439 619 240 608 343 l 608 911 l 719 911 l 719 0 l 592 0 l 300 572 l 213 761 l 210 761 b 225 476 214 668 225 571 l 225 0 l 114 0 m 431 992 b 349 1071 385 992 349 1024 b 431 1149 349 1117 385 1149 b 513 1071 476 1149 513 1117 b 431 992 513 1024 476 992 "},"Ṇ":{"ha":833,"x_min":0,"x_max":0,"o":"m 114 911 l 242 911 l 533 339 l 621 150 l 624 150 b 608 439 619 240 608 343 l 608 911 l 719 911 l 719 0 l 592 0 l 300 572 l 213 761 l 210 761 b 225 476 214 668 225 571 l 225 0 l 114 0 m 417 -299 b 325 -210 365 -299 325 -264 b 417 -121 325 -157 365 -121 b 508 -210 468 -121 508 -157 b 417 -299 508 -264 468 -299 "},"Ṉ":{"ha":833,"x_min":0,"x_max":0,"o":"m 114 911 l 242 911 l 533 339 l 621 150 l 624 150 b 608 439 619 240 608 343 l 608 911 l 719 911 l 719 0 l 592 0 l 300 572 l 213 761 l 210 761 b 225 476 214 668 225 571 l 225 0 l 114 0 m 232 -157 l 601 -157 l 601 -236 l 232 -236 "},"Ò":{"ha":833,"x_min":0,"x_max":0,"o":"m 417 -17 b 67 460 211 -17 67 161 b 417 928 67 754 211 928 b 767 460 622 928 767 754 b 417 -17 767 161 622 -17 m 417 85 b 647 460 556 85 647 226 b 417 826 647 689 556 826 b 186 460 278 826 186 689 b 417 85 186 226 278 85 m 246 1128 l 311 1204 l 507 1026 l 457 968 "},"Ó":{"ha":833,"x_min":0,"x_max":0,"o":"m 417 -17 b 67 460 211 -17 67 161 b 417 928 67 754 211 928 b 767 460 622 928 767 754 b 417 -17 767 161 622 -17 m 417 85 b 647 460 556 85 647 226 b 417 826 647 689 556 826 b 186 460 278 826 186 689 b 417 85 186 226 278 85 m 326 1026 l 522 1204 l 588 1128 l 376 968 "},"Ô":{"ha":833,"x_min":0,"x_max":0,"o":"m 417 -17 b 67 460 211 -17 67 161 b 417 928 67 754 211 928 b 767 460 622 928 767 754 b 417 -17 767 161 622 -17 m 417 85 b 647 460 556 85 647 226 b 417 826 647 689 556 826 b 186 460 278 826 186 689 b 417 85 186 226 278 85 m 211 1007 l 357 1164 l 476 1164 l 622 1007 l 572 971 l 419 1100 l 414 1100 l 261 971 "},"Õ":{"ha":833,"x_min":0,"x_max":0,"o":"m 417 -17 b 67 460 211 -17 67 161 b 417 928 67 754 211 928 b 767 460 622 928 767 754 b 417 -17 767 161 622 -17 m 417 85 b 647 460 556 85 647 226 b 417 826 647 689 556 826 b 186 460 278 826 186 689 b 417 85 186 226 278 85 m 521 985 b 315 1083 417 985 381 1083 b 249 992 281 1083 254 1051 l 171 997 b 313 1168 176 1103 229 1168 b 518 1069 417 1168 453 1069 b 585 1161 553 1069 578 1101 l 663 1156 b 521 985 657 1049 604 985 "},"Ö":{"ha":833,"x_min":0,"x_max":0,"o":"m 417 -17 b 67 460 211 -17 67 161 b 417 928 67 754 211 928 b 767 460 622 928 767 754 b 417 -17 767 161 622 -17 m 417 85 b 647 460 556 85 647 226 b 417 826 647 689 556 826 b 186 460 278 826 186 689 b 417 85 186 226 278 85 m 290 993 b 219 1064 250 993 219 1022 b 290 1133 219 1106 250 1133 b 360 1064 331 1133 360 1106 b 290 993 360 1022 331 993 m 543 993 b 474 1064 503 993 474 1022 b 543 1133 474 1106 503 1133 b 614 1064 583 1133 614 1106 b 543 993 614 1022 583 993 "},"Ō":{"ha":833,"x_min":0,"x_max":0,"o":"m 417 -17 b 67 460 211 -17 67 161 b 417 928 67 754 211 928 b 767 460 622 928 767 754 b 417 -17 767 161 622 -17 m 417 85 b 647 460 556 85 647 226 b 417 826 647 689 556 826 b 186 460 278 826 186 689 b 417 85 186 226 278 85 m 231 1100 l 603 1100 l 603 1021 l 231 1021 "},"Ő":{"ha":833,"x_min":0,"x_max":0,"o":"m 417 -17 b 67 460 211 -17 67 161 b 417 928 67 754 211 928 b 767 460 622 928 767 754 b 417 -17 767 161 622 -17 m 417 85 b 647 460 556 85 647 226 b 417 826 647 689 556 826 b 186 460 278 826 186 689 b 417 85 186 226 278 85 m 257 1006 l 385 1217 l 464 1172 l 317 976 m 479 1006 l 608 1217 l 686 1172 l 539 976 "},"Ŏ":{"ha":833,"x_min":0,"x_max":0,"o":"m 417 -17 b 67 460 211 -17 67 161 b 417 928 67 754 211 928 b 767 460 622 928 767 754 b 417 -17 767 161 622 -17 m 417 85 b 647 460 556 85 647 226 b 417 826 647 689 556 826 b 186 460 278 826 186 689 b 417 85 186 226 278 85 m 417 979 b 214 1158 288 979 225 1061 l 283 1169 b 417 1053 294 1104 338 1053 b 550 1169 496 1053 539 1104 l 619 1158 b 417 979 608 1061 546 979 "},"Ǒ":{"ha":833,"x_min":0,"x_max":0,"o":"m 417 -17 b 67 460 211 -17 67 161 b 417 928 67 754 211 928 b 767 460 622 928 767 754 b 417 -17 767 161 622 -17 m 417 85 b 647 460 556 85 647 226 b 417 826 647 689 556 826 b 186 460 278 826 186 689 b 417 85 186 226 278 85 m 211 1138 l 261 1174 l 414 1046 l 419 1046 l 572 1174 l 622 1138 l 476 981 l 357 981 "},"Ǫ":{"ha":833,"x_min":0,"x_max":0,"o":"m 442 -312 b 299 -186 360 -312 299 -271 b 397 -15 299 -112 346 -58 b 67 460 182 1 67 199 b 417 928 67 751 211 928 b 767 460 622 928 767 750 b 515 -3 767 217 676 65 b 388 -161 431 -39 388 -104 b 464 -232 388 -210 425 -232 b 533 -203 493 -232 515 -218 l 568 -262 b 442 -312 536 -290 494 -312 m 417 83 b 647 460 556 83 647 221 b 417 826 647 689 556 826 b 186 460 278 826 186 689 b 417 83 186 221 278 83 "},"Ọ":{"ha":833,"x_min":0,"x_max":0,"o":"m 417 -17 b 67 460 211 -17 67 161 b 417 928 67 754 211 928 b 767 460 622 928 767 754 b 417 -17 767 161 622 -17 m 417 85 b 647 460 556 85 647 226 b 417 826 647 689 556 826 b 186 460 278 826 186 689 b 417 85 186 226 278 85 m 417 -299 b 325 -210 365 -299 325 -264 b 417 -121 325 -157 365 -121 b 508 -210 468 -121 508 -157 b 417 -299 508 -264 468 -299 "},"Ỏ":{"ha":833,"x_min":0,"x_max":0,"o":"m 417 -17 b 67 460 211 -17 67 161 b 417 928 67 754 211 928 b 767 460 622 928 767 754 b 417 -17 767 161 622 -17 m 417 85 b 647 460 556 85 647 226 b 417 826 647 689 556 826 b 186 460 278 826 186 689 b 417 85 186 226 278 85 m 360 1022 b 438 1086 404 1035 438 1051 b 322 1144 438 1122 400 1142 l 335 1211 b 526 1099 456 1207 526 1169 b 372 969 526 1018 453 983 "},"Ố":{"ha":833,"x_min":0,"x_max":0,"o":"m 417 -17 b 67 460 211 -17 67 161 b 417 928 67 754 211 928 b 767 460 622 928 767 754 b 417 -17 767 161 622 -17 m 417 85 b 647 460 556 85 647 226 b 417 826 647 689 556 826 b 186 460 278 826 186 689 b 417 85 186 226 278 85 m 238 1007 l 367 1132 l 467 1132 l 596 1007 l 549 971 l 419 1067 l 414 1067 l 285 971 m 543 1104 l 678 1233 l 726 1179 l 585 1060 "},"Ồ":{"ha":833,"x_min":0,"x_max":0,"o":"m 417 -17 b 67 460 211 -17 67 161 b 417 928 67 754 211 928 b 767 460 622 928 767 754 b 417 -17 767 161 622 -17 m 417 85 b 647 460 556 85 647 226 b 417 826 647 689 556 826 b 186 460 278 826 186 689 b 417 85 186 226 278 85 m 238 1007 l 367 1132 l 467 1132 l 596 1007 l 549 971 l 419 1067 l 414 1067 l 285 971 m 124 1182 l 172 1233 l 290 1101 l 249 1060 "},"Ổ":{"ha":833,"x_min":0,"x_max":0,"o":"m 417 -17 b 67 460 211 -17 67 161 b 417 928 67 754 211 928 b 767 460 622 928 767 754 b 417 -17 767 161 622 -17 m 417 85 b 647 460 556 85 647 226 b 417 826 647 689 556 826 b 186 460 278 826 186 689 b 417 85 186 226 278 85 m 238 1007 l 367 1132 l 467 1132 l 596 1007 l 549 971 l 419 1067 l 414 1067 l 285 971 m 561 1096 b 624 1146 596 1104 624 1117 b 525 1200 624 1182 594 1196 l 538 1258 b 704 1157 646 1254 704 1221 b 576 1047 704 1086 643 1058 "},"Ỗ":{"ha":833,"x_min":0,"x_max":0,"o":"m 417 -17 b 67 460 211 -17 67 161 b 417 928 67 754 211 928 b 767 460 622 928 767 754 b 417 -17 767 161 622 -17 m 417 85 b 647 460 556 85 647 226 b 417 826 647 689 556 826 b 186 460 278 826 186 689 b 417 85 186 226 278 85 m 238 1007 l 367 1128 l 467 1128 l 596 1007 l 549 971 l 419 1063 l 414 1063 l 285 971 m 508 1165 b 331 1235 419 1165 388 1235 b 278 1171 297 1235 283 1211 l 215 1178 b 325 1304 219 1249 250 1304 b 503 1236 414 1304 446 1236 b 556 1300 536 1236 550 1260 l 618 1293 b 508 1165 614 1221 583 1165 "},"Ộ":{"ha":833,"x_min":0,"x_max":0,"o":"m 417 -17 b 67 460 211 -17 67 161 b 417 928 67 754 211 928 b 767 460 622 928 767 754 b 417 -17 767 161 622 -17 m 417 85 b 647 460 556 85 647 226 b 417 826 647 689 556 826 b 186 460 278 826 186 689 b 417 85 186 226 278 85 m 211 1007 l 357 1164 l 476 1164 l 622 1007 l 572 971 l 419 1100 l 414 1100 l 261 971 m 417 -299 b 325 -210 365 -299 325 -264 b 417 -121 325 -157 365 -121 b 508 -210 468 -121 508 -157 b 417 -299 508 -264 468 -299 "},"Ơ":{"ha":833,"x_min":0,"x_max":0,"o":"m 417 -17 b 67 460 211 -17 67 161 b 417 928 67 754 211 928 b 571 889 474 928 525 915 b 679 1008 644 904 679 944 b 658 1089 679 1036 671 1067 l 749 1129 b 781 1017 768 1099 781 1058 b 636 842 781 922 725 864 b 767 460 718 763 767 632 b 417 -17 767 161 622 -17 m 417 85 b 647 460 556 85 647 226 b 417 826 647 689 556 826 b 186 460 278 826 186 689 b 417 85 186 226 278 85 "},"Ớ":{"ha":833,"x_min":0,"x_max":0,"o":"m 417 -17 b 67 460 211 -17 67 161 b 417 928 67 754 211 928 b 571 889 474 928 525 915 b 679 1008 644 904 679 944 b 658 1089 679 1036 671 1067 l 749 1129 b 781 1017 768 1099 781 1058 b 636 842 781 922 725 864 b 767 460 718 763 767 632 b 417 -17 767 161 622 -17 m 417 85 b 647 460 556 85 647 226 b 417 826 647 689 556 826 b 186 460 278 826 186 689 b 417 85 186 226 278 85 m 326 1026 l 522 1204 l 588 1128 l 376 968 "},"Ờ":{"ha":833,"x_min":0,"x_max":0,"o":"m 417 -17 b 67 460 211 -17 67 161 b 417 928 67 754 211 928 b 571 889 474 928 525 915 b 679 1008 644 904 679 944 b 658 1089 679 1036 671 1067 l 749 1129 b 781 1017 768 1099 781 1058 b 636 842 781 922 725 864 b 767 460 718 763 767 632 b 417 -17 767 161 622 -17 m 417 85 b 647 460 556 85 647 226 b 417 826 647 689 556 826 b 186 460 278 826 186 689 b 417 85 186 226 278 85 m 246 1128 l 311 1204 l 507 1026 l 457 968 "},"Ở":{"ha":833,"x_min":0,"x_max":0,"o":"m 417 -17 b 67 460 211 -17 67 161 b 417 928 67 754 211 928 b 571 889 474 928 525 915 b 679 1008 644 904 679 944 b 658 1089 679 1036 671 1067 l 749 1129 b 781 1017 768 1099 781 1058 b 636 842 781 922 725 864 b 767 460 718 763 767 632 b 417 -17 767 161 622 -17 m 360 1022 b 438 1086 404 1035 438 1051 b 322 1144 438 1122 400 1142 l 335 1211 b 526 1099 456 1207 526 1169 b 372 969 526 1018 453 983 m 417 85 b 647 460 556 85 647 226 b 417 826 647 689 556 826 b 186 460 278 826 186 689 b 417 85 186 226 278 85 "},"Ỡ":{"ha":833,"x_min":0,"x_max":0,"o":"m 417 -17 b 67 460 211 -17 67 161 b 417 928 67 754 211 928 b 571 889 474 928 525 915 b 679 1008 644 904 679 944 b 658 1089 679 1036 671 1067 l 749 1129 b 781 1017 768 1099 781 1058 b 636 842 781 922 725 864 b 767 460 718 763 767 632 b 417 -17 767 161 622 -17 m 417 85 b 647 460 556 85 647 226 b 417 826 647 689 556 826 b 186 460 278 826 186 689 b 417 85 186 226 278 85 m 493 985 b 288 1083 389 985 353 1083 b 221 992 253 1083 226 1051 l 143 997 b 285 1168 149 1103 201 1168 b 490 1069 389 1168 425 1069 b 557 1161 525 1069 550 1101 l 635 1156 b 493 985 629 1049 576 985 "},"Ợ":{"ha":833,"x_min":0,"x_max":0,"o":"m 417 -17 b 67 460 211 -17 67 161 b 417 928 67 754 211 928 b 571 889 474 928 525 915 b 679 1008 644 904 679 944 b 658 1089 679 1036 671 1067 l 749 1129 b 781 1017 768 1099 781 1058 b 636 842 781 922 725 864 b 767 460 718 763 767 632 b 417 -17 767 161 622 -17 m 417 -299 b 325 -210 365 -299 325 -264 b 417 -121 325 -157 365 -121 b 508 -210 468 -121 508 -157 b 417 -299 508 -264 468 -299 m 417 85 b 647 460 556 85 647 226 b 417 826 647 689 556 826 b 186 460 278 826 186 689 b 417 85 186 226 278 85 "},"Ṓ":{"ha":833,"x_min":0,"x_max":0,"o":"m 417 -17 b 67 460 211 -17 67 161 b 417 928 67 754 211 928 b 767 460 622 928 767 754 b 417 -17 767 161 622 -17 m 417 85 b 647 460 556 85 647 226 b 417 826 647 689 556 826 b 186 460 278 826 186 689 b 417 85 186 226 278 85 m 231 1100 l 603 1100 l 603 1021 l 231 1021 m 349 1201 l 517 1344 l 571 1278 l 392 1149 "},"Ø":{"ha":833,"x_min":0,"x_max":0,"o":"m 143 142 b 67 460 94 221 67 329 b 417 928 67 754 211 928 b 628 849 499 928 569 900 l 700 956 l 778 906 l 689 775 b 767 460 739 697 767 590 b 417 -17 767 161 622 -17 b 203 67 333 -17 261 13 l 128 -44 l 50 6 m 186 460 b 218 251 186 378 197 308 l 564 757 b 417 826 525 801 475 826 b 186 460 278 826 186 689 m 417 85 b 647 460 556 85 647 226 b 614 667 647 542 636 611 l 267 160 b 417 85 306 111 357 85 "},"Ǿ":{"ha":833,"x_min":0,"x_max":0,"o":"m 143 142 b 67 460 94 221 67 329 b 417 928 67 754 211 928 b 628 849 499 928 569 900 l 700 956 l 778 906 l 689 775 b 767 460 739 697 767 590 b 417 -17 767 161 622 -17 b 203 67 333 -17 261 13 l 128 -44 l 50 6 m 326 1026 l 522 1204 l 588 1128 l 376 968 m 186 460 b 218 251 186 378 197 308 l 564 757 b 417 826 525 801 475 826 b 186 460 278 826 186 689 m 417 85 b 647 460 556 85 647 226 b 614 667 647 542 636 611 l 267 160 b 417 85 306 111 357 85 "},"Œ":{"ha":833,"x_min":0,"x_max":0,"o":"m 411 0 b 46 460 182 0 46 169 b 415 913 46 749 185 913 l 807 913 l 807 815 l 538 815 l 538 528 l 743 528 l 743 429 l 538 429 l 538 99 l 821 99 l 821 0 l 411 0 m 432 94 l 432 817 l 401 817 b 165 460 243 817 165 690 b 401 94 165 228 243 94 "},"Ŕ":{"ha":833,"x_min":0,"x_max":0,"o":"m 139 911 l 422 911 b 740 656 607 911 740 844 b 536 397 740 514 660 429 l 768 0 l 636 0 l 417 385 l 254 385 l 254 0 l 139 0 m 406 479 b 625 656 547 479 625 538 b 406 818 625 775 547 818 l 254 818 l 254 479 m 332 1026 l 528 1204 l 593 1128 l 382 968 "},"Ř":{"ha":833,"x_min":0,"x_max":0,"o":"m 139 911 l 422 911 b 740 656 607 911 740 844 b 536 397 740 514 660 429 l 768 0 l 636 0 l 417 385 l 254 385 l 254 0 l 139 0 m 406 479 b 625 656 547 479 625 538 b 406 818 625 775 547 818 l 254 818 l 254 479 m 217 1138 l 267 1174 l 419 1046 l 425 1046 l 578 1174 l 628 1138 l 482 981 l 363 981 "},"Ṙ":{"ha":833,"x_min":0,"x_max":0,"o":"m 139 911 l 422 911 b 740 656 607 911 740 844 b 536 397 740 514 660 429 l 768 0 l 636 0 l 417 385 l 254 385 l 254 0 l 139 0 m 406 479 b 625 656 547 479 625 538 b 406 818 625 775 547 818 l 254 818 l 254 479 m 422 992 b 340 1071 376 992 340 1024 b 422 1149 340 1117 376 1149 b 504 1071 468 1149 504 1117 b 422 992 504 1024 468 992 "},"Ŗ":{"ha":833,"x_min":0,"x_max":0,"o":"m 406 479 b 625 656 547 479 625 538 b 406 818 625 775 547 818 l 254 818 l 254 479 m 313 -258 b 464 -192 429 -250 464 -229 b 365 -133 464 -156 429 -139 l 390 -81 b 553 -187 511 -94 553 -125 b 324 -314 553 -268 471 -307 m 139 911 l 422 911 b 740 656 607 911 740 844 b 536 397 740 514 660 429 l 768 0 l 636 0 l 417 385 l 254 385 l 254 0 l 139 0 "},"Ṛ":{"ha":833,"x_min":0,"x_max":0,"o":"m 139 911 l 422 911 b 740 656 607 911 740 844 b 536 397 740 514 660 429 l 768 0 l 636 0 l 417 385 l 254 385 l 254 0 l 139 0 m 406 479 b 625 656 547 479 625 538 b 406 818 625 775 547 818 l 254 818 l 254 479 m 444 -299 b 353 -210 393 -299 353 -264 b 444 -121 353 -157 393 -121 b 536 -210 496 -121 536 -157 b 444 -299 536 -264 496 -299 "},"Ṝ":{"ha":833,"x_min":0,"x_max":0,"o":"m 139 911 l 422 911 b 740 656 607 911 740 844 b 536 397 740 514 660 429 l 768 0 l 636 0 l 417 385 l 254 385 l 254 0 l 139 0 m 406 479 b 625 656 547 479 625 538 b 406 818 625 775 547 818 l 254 818 l 254 479 m 236 1100 l 608 1100 l 608 1021 l 236 1021 m 444 -299 b 353 -210 393 -299 353 -264 b 444 -121 353 -157 393 -121 b 536 -210 496 -121 536 -157 b 444 -299 536 -264 496 -299 "},"Ṟ":{"ha":833,"x_min":0,"x_max":0,"o":"m 139 911 l 422 911 b 740 656 607 911 740 844 b 536 397 740 514 660 429 l 768 0 l 636 0 l 417 385 l 254 385 l 254 0 l 139 0 m 406 479 b 625 656 547 479 625 538 b 406 818 625 775 547 818 l 254 818 l 254 479 m 260 -157 l 629 -157 l 629 -236 l 260 -236 "},"Ś":{"ha":833,"x_min":0,"x_max":0,"o":"m 424 -17 b 93 118 290 -17 175 36 l 163 199 b 429 85 231 131 325 85 b 628 229 554 85 628 144 b 464 394 628 326 557 354 l 333 451 b 136 686 242 488 136 553 b 435 928 136 825 261 928 b 715 815 549 928 649 882 l 654 740 b 431 826 594 793 525 826 b 254 693 325 826 254 775 b 417 542 254 606 339 574 l 544 486 b 746 243 657 440 746 378 b 424 -17 746 99 624 -17 m 349 1026 l 544 1204 l 610 1128 l 399 968 "},"Ŝ":{"ha":833,"x_min":0,"x_max":0,"o":"m 424 -17 b 93 118 290 -17 175 36 l 163 199 b 429 85 231 131 325 85 b 628 229 554 85 628 144 b 464 394 628 326 557 354 l 333 451 b 136 686 242 488 136 553 b 435 928 136 825 261 928 b 715 815 549 928 649 882 l 654 740 b 431 826 594 793 525 826 b 254 693 325 826 254 775 b 417 542 254 606 339 574 l 544 486 b 746 243 657 440 746 378 b 424 -17 746 99 624 -17 m 233 1007 l 379 1164 l 499 1164 l 644 1007 l 594 971 l 442 1100 l 436 1100 l 283 971 "},"Š":{"ha":833,"x_min":0,"x_max":0,"o":"m 424 -17 b 93 118 290 -17 175 36 l 163 199 b 429 85 231 131 325 85 b 628 229 554 85 628 144 b 464 394 628 326 557 354 l 333 451 b 136 686 242 488 136 553 b 435 928 136 825 261 928 b 715 815 549 928 649 882 l 654 740 b 431 826 594 793 525 826 b 254 693 325 826 254 775 b 417 542 254 606 339 574 l 544 486 b 746 243 657 440 746 378 b 424 -17 746 99 624 -17 m 233 1138 l 283 1174 l 436 1046 l 442 1046 l 594 1174 l 644 1138 l 499 981 l 379 981 "},"Ṧ":{"ha":833,"x_min":0,"x_max":0,"o":"m 424 -17 b 93 118 290 -17 175 36 l 163 199 b 429 85 231 131 325 85 b 628 229 554 85 628 144 b 464 394 628 326 557 354 l 333 451 b 136 686 242 488 136 553 b 435 928 136 825 261 928 b 715 815 549 928 649 882 l 654 740 b 431 826 594 793 525 826 b 254 693 325 826 254 775 b 417 542 254 606 339 574 l 544 486 b 746 243 657 440 746 378 b 424 -17 746 99 624 -17 m 439 1140 b 367 1213 399 1140 367 1169 b 439 1285 367 1256 399 1285 b 511 1213 479 1285 511 1256 b 439 1140 511 1169 479 1140 m 229 1132 l 268 1174 l 436 1046 l 442 1046 l 610 1174 l 649 1132 l 499 981 l 379 981 "},"Ş":{"ha":833,"x_min":0,"x_max":0,"o":"m 311 -258 b 463 -189 428 -250 463 -229 b 356 -122 463 -153 435 -133 l 400 -17 b 93 118 276 -10 169 42 l 163 199 b 429 85 231 131 325 85 b 628 229 554 85 628 144 b 464 394 628 326 557 354 l 333 451 b 136 686 242 488 136 553 b 435 928 136 825 261 928 b 715 815 549 928 649 882 l 654 740 b 431 826 594 793 525 826 b 254 693 325 826 254 775 b 417 542 254 606 339 574 l 544 486 b 746 243 657 440 746 378 b 478 -14 746 113 646 6 l 450 -89 b 551 -187 514 -104 551 -131 b 322 -314 551 -268 469 -307 "},"Ș":{"ha":833,"x_min":0,"x_max":0,"o":"m 424 -17 b 93 118 290 -17 175 36 l 163 199 b 429 85 231 131 325 85 b 628 229 554 85 628 144 b 464 394 628 326 557 354 l 333 451 b 136 686 242 488 136 553 b 435 928 136 825 261 928 b 715 815 549 928 649 882 l 654 740 b 431 826 594 793 525 826 b 254 693 325 826 254 775 b 417 542 254 606 339 574 l 544 486 b 746 243 657 440 746 378 b 424 -17 746 99 624 -17 m 303 -258 b 454 -192 419 -250 454 -229 b 356 -133 454 -156 419 -139 l 381 -81 b 543 -187 501 -94 543 -125 b 314 -314 543 -268 461 -307 "},"Ṡ":{"ha":833,"x_min":0,"x_max":0,"o":"m 424 -17 b 93 118 290 -17 175 36 l 163 199 b 429 85 231 131 325 85 b 628 229 554 85 628 144 b 464 394 628 326 557 354 l 333 451 b 136 686 242 488 136 553 b 435 928 136 825 261 928 b 715 815 549 928 649 882 l 654 740 b 431 826 594 793 525 826 b 254 693 325 826 254 775 b 417 542 254 606 339 574 l 544 486 b 746 243 657 440 746 378 b 424 -17 746 99 624 -17 m 439 992 b 357 1071 393 992 357 1024 b 439 1149 357 1117 393 1149 b 521 1071 485 1149 521 1117 b 439 992 521 1024 485 992 "},"Ṣ":{"ha":833,"x_min":0,"x_max":0,"o":"m 424 -17 b 93 118 290 -17 175 36 l 163 199 b 429 85 231 131 325 85 b 628 229 554 85 628 144 b 464 394 628 326 557 354 l 333 451 b 136 686 242 488 136 553 b 435 928 136 825 261 928 b 715 815 549 928 649 882 l 654 740 b 431 826 594 793 525 826 b 254 693 325 826 254 775 b 417 542 254 606 339 574 l 544 486 b 746 243 657 440 746 378 b 424 -17 746 99 624 -17 m 435 -299 b 343 -210 383 -299 343 -264 b 435 -121 343 -157 383 -121 b 526 -210 486 -121 526 -157 b 435 -299 526 -264 486 -299 "},"ẞ":{"ha":833,"x_min":0,"x_max":0,"o":"m 542 -17 b 318 85 451 -17 369 21 l 374 158 b 532 81 419 106 467 81 b 669 232 617 81 669 144 b 431 431 669 321 621 394 l 422 506 l 594 719 b 424 832 563 796 503 832 b 225 574 304 832 225 750 l 225 0 l 108 0 l 108 594 b 424 928 108 799 229 928 b 715 714 578 928 671 843 l 547 504 b 790 232 731 449 790 358 b 542 -17 790 90 697 -17 "},"Ť":{"ha":833,"x_min":0,"x_max":0,"o":"m 358 814 l 58 814 l 58 911 l 775 911 l 775 814 l 475 814 l 475 0 l 358 0 m 211 1138 l 261 1174 l 414 1046 l 419 1046 l 572 1174 l 622 1138 l 476 981 l 357 981 "},"Ţ":{"ha":833,"x_min":0,"x_max":0,"o":"m 358 814 l 58 814 l 58 911 l 775 911 l 775 814 l 475 814 l 475 0 l 456 0 l 424 -89 b 525 -187 488 -104 525 -131 b 296 -314 525 -268 443 -307 l 285 -258 b 436 -189 401 -250 436 -229 b 329 -122 436 -153 408 -133 l 381 0 l 358 0 "},"Ț":{"ha":833,"x_min":0,"x_max":0,"o":"m 358 814 l 58 814 l 58 911 l 775 911 l 775 814 l 475 814 l 475 0 l 358 0 m 285 -258 b 436 -192 401 -250 436 -229 b 338 -133 436 -156 401 -139 l 363 -81 b 525 -187 483 -94 525 -125 b 296 -314 525 -268 443 -307 "},"Ṭ":{"ha":833,"x_min":0,"x_max":0,"o":"m 358 814 l 58 814 l 58 911 l 775 911 l 775 814 l 475 814 l 475 0 l 358 0 m 417 -299 b 325 -210 365 -299 325 -264 b 417 -121 325 -157 365 -121 b 508 -210 468 -121 508 -157 b 417 -299 508 -264 468 -299 "},"Ṯ":{"ha":833,"x_min":0,"x_max":0,"o":"m 358 814 l 58 814 l 58 911 l 775 911 l 775 814 l 475 814 l 475 0 l 358 0 m 232 -157 l 601 -157 l 601 -236 l 232 -236 "},"Ŧ":{"ha":833,"x_min":0,"x_max":0,"o":"m 358 425 l 161 425 l 161 506 l 286 511 l 358 511 l 358 814 l 58 814 l 58 911 l 775 911 l 775 814 l 475 814 l 475 511 l 672 511 l 672 425 l 475 425 l 475 0 l 358 0 "},"Ù":{"ha":833,"x_min":0,"x_max":0,"o":"m 418 -17 b 110 344 239 -17 110 83 l 110 911 l 226 911 l 226 342 b 418 85 226 153 308 85 b 611 342 528 85 611 153 l 611 911 l 724 911 l 724 344 b 418 -17 724 83 596 -17 m 246 1128 l 311 1204 l 507 1026 l 457 968 "},"Ú":{"ha":833,"x_min":0,"x_max":0,"o":"m 418 -17 b 110 344 239 -17 110 83 l 110 911 l 226 911 l 226 342 b 418 85 226 153 308 85 b 611 342 528 85 611 153 l 611 911 l 724 911 l 724 344 b 418 -17 724 83 596 -17 m 326 1026 l 522 1204 l 588 1128 l 376 968 "},"Û":{"ha":833,"x_min":0,"x_max":0,"o":"m 418 -17 b 110 344 239 -17 110 83 l 110 911 l 226 911 l 226 342 b 418 85 226 153 308 85 b 611 342 528 85 611 153 l 611 911 l 724 911 l 724 344 b 418 -17 724 83 596 -17 m 211 1007 l 357 1164 l 476 1164 l 622 1007 l 572 971 l 419 1100 l 414 1100 l 261 971 "},"Ũ":{"ha":833,"x_min":0,"x_max":0,"o":"m 418 -17 b 110 344 239 -17 110 83 l 110 911 l 226 911 l 226 342 b 418 85 226 153 308 85 b 611 342 528 85 611 153 l 611 911 l 724 911 l 724 344 b 418 -17 724 83 596 -17 m 521 985 b 315 1083 417 985 381 1083 b 249 992 281 1083 254 1051 l 171 997 b 313 1168 176 1103 229 1168 b 518 1069 417 1168 453 1069 b 585 1161 553 1069 578 1101 l 663 1156 b 521 985 657 1049 604 985 "},"Ü":{"ha":833,"x_min":0,"x_max":0,"o":"m 418 -17 b 110 344 239 -17 110 83 l 110 911 l 226 911 l 226 342 b 418 85 226 153 308 85 b 611 342 528 85 611 153 l 611 911 l 724 911 l 724 344 b 418 -17 724 83 596 -17 m 290 993 b 219 1064 250 993 219 1022 b 290 1133 219 1106 250 1133 b 360 1064 331 1133 360 1106 b 290 993 360 1022 331 993 m 543 993 b 474 1064 503 993 474 1022 b 543 1133 474 1106 503 1133 b 614 1064 583 1133 614 1106 b 543 993 614 1022 583 993 "},"Ū":{"ha":833,"x_min":0,"x_max":0,"o":"m 418 -17 b 110 344 239 -17 110 83 l 110 911 l 226 911 l 226 342 b 418 85 226 153 308 85 b 611 342 528 85 611 153 l 611 911 l 724 911 l 724 344 b 418 -17 724 83 596 -17 m 231 1100 l 603 1100 l 603 1021 l 231 1021 "},"Ŭ":{"ha":833,"x_min":0,"x_max":0,"o":"m 418 -17 b 110 344 239 -17 110 83 l 110 911 l 226 911 l 226 342 b 418 85 226 153 308 85 b 611 342 528 85 611 153 l 611 911 l 724 911 l 724 344 b 418 -17 724 83 596 -17 m 417 979 b 214 1158 288 979 225 1061 l 283 1169 b 417 1053 294 1104 338 1053 b 550 1169 496 1053 539 1104 l 619 1158 b 417 979 608 1061 546 979 "},"Ů":{"ha":833,"x_min":0,"x_max":0,"o":"m 418 -17 b 110 344 239 -17 110 83 l 110 911 l 226 911 l 226 342 b 418 85 226 153 308 85 b 611 342 528 85 611 153 l 611 911 l 724 911 l 724 344 b 418 -17 724 83 596 -17 m 417 971 b 282 1096 339 971 282 1021 b 417 1222 282 1172 339 1222 b 551 1096 493 1222 551 1172 b 417 971 551 1021 493 971 m 417 1021 b 488 1096 454 1021 488 1047 b 417 1171 488 1143 454 1171 b 344 1096 376 1171 344 1143 b 417 1021 344 1047 376 1021 "},"Ű":{"ha":833,"x_min":0,"x_max":0,"o":"m 418 -17 b 110 344 239 -17 110 83 l 110 911 l 226 911 l 226 342 b 418 85 226 153 308 85 b 611 342 528 85 611 153 l 611 911 l 724 911 l 724 344 b 418 -17 724 83 596 -17 m 257 1006 l 385 1217 l 464 1172 l 317 976 m 479 1006 l 608 1217 l 686 1172 l 539 976 "},"Ǔ":{"ha":833,"x_min":0,"x_max":0,"o":"m 418 -17 b 110 344 239 -17 110 83 l 110 911 l 226 911 l 226 342 b 418 85 226 153 308 85 b 611 342 528 85 611 153 l 611 911 l 724 911 l 724 344 b 418 -17 724 83 596 -17 m 211 1138 l 261 1174 l 414 1046 l 419 1046 l 572 1174 l 622 1138 l 476 981 l 357 981 "},"Ų":{"ha":833,"x_min":0,"x_max":0,"o":"m 442 -312 b 299 -186 360 -312 299 -271 b 392 -15 299 -107 354 -49 b 110 344 219 -6 110 107 l 110 911 l 226 911 l 226 342 b 417 85 226 153 307 85 b 611 342 526 85 611 153 l 611 911 l 724 911 l 724 344 b 532 0 724 149 657 50 b 388 -161 422 -44 388 -106 b 464 -232 388 -210 425 -232 b 533 -203 493 -232 515 -218 l 568 -262 b 442 -312 536 -290 494 -312 "},"Ǖ":{"ha":833,"x_min":0,"x_max":0,"o":"m 418 -17 b 110 344 239 -17 110 83 l 110 911 l 226 911 l 226 342 b 418 85 226 153 308 85 b 611 342 528 85 611 153 l 611 911 l 724 911 l 724 344 b 418 -17 724 83 596 -17 m 274 993 b 211 1057 238 993 211 1019 b 274 1119 211 1093 238 1119 b 338 1057 310 1119 338 1093 b 274 993 338 1019 310 993 m 560 993 b 496 1057 524 993 496 1019 b 560 1119 496 1093 524 1119 b 622 1057 596 1119 622 1093 b 560 993 622 1019 596 993 m 231 1260 l 603 1260 l 603 1196 l 231 1196 "},"Ǘ":{"ha":833,"x_min":0,"x_max":0,"o":"m 418 -17 b 110 344 239 -17 110 83 l 110 911 l 226 911 l 226 342 b 418 85 226 153 308 85 b 611 342 528 85 611 153 l 611 911 l 724 911 l 724 344 b 418 -17 724 83 596 -17 m 274 993 b 211 1057 238 993 211 1019 b 274 1119 211 1093 238 1119 b 338 1057 310 1119 338 1093 b 274 993 338 1019 310 993 m 560 993 b 496 1057 524 993 496 1019 b 560 1119 496 1093 524 1119 b 622 1057 596 1119 622 1093 b 560 993 622 1019 596 993 m 364 1179 l 496 1344 l 569 1294 l 415 1143 "},"Ǚ":{"ha":833,"x_min":0,"x_max":0,"o":"m 418 -17 b 110 344 239 -17 110 83 l 110 911 l 226 911 l 226 342 b 418 85 226 153 308 85 b 611 342 528 85 611 153 l 611 911 l 724 911 l 724 344 b 418 -17 724 83 596 -17 m 274 993 b 211 1057 238 993 211 1019 b 274 1119 211 1093 238 1119 b 338 1057 310 1119 338 1093 b 274 993 338 1019 310 993 m 560 993 b 496 1057 524 993 496 1019 b 560 1119 496 1093 524 1119 b 622 1057 596 1119 622 1093 b 560 993 622 1019 596 993 m 229 1299 l 275 1336 l 414 1232 l 419 1232 l 558 1336 l 604 1299 l 467 1165 l 367 1165 "},"Ǜ":{"ha":833,"x_min":0,"x_max":0,"o":"m 418 -17 b 110 344 239 -17 110 83 l 110 911 l 226 911 l 226 342 b 418 85 226 153 308 85 b 611 342 528 85 611 153 l 611 911 l 724 911 l 724 344 b 418 -17 724 83 596 -17 m 274 993 b 211 1057 238 993 211 1019 b 274 1119 211 1093 238 1119 b 338 1057 310 1119 338 1093 b 274 993 338 1019 310 993 m 560 993 b 496 1057 524 993 496 1019 b 560 1119 496 1093 524 1119 b 622 1057 596 1119 622 1093 b 560 993 622 1019 596 993 m 264 1294 l 338 1344 l 469 1179 l 418 1143 "},"Ụ":{"ha":833,"x_min":0,"x_max":0,"o":"m 418 -17 b 110 344 239 -17 110 83 l 110 911 l 226 911 l 226 342 b 418 85 226 153 308 85 b 611 342 528 85 611 153 l 611 911 l 724 911 l 724 344 b 418 -17 724 83 596 -17 m 417 -299 b 325 -210 365 -299 325 -264 b 417 -121 325 -157 365 -121 b 508 -210 468 -121 508 -157 b 417 -299 508 -264 468 -299 "},"Ủ":{"ha":833,"x_min":0,"x_max":0,"o":"m 418 -17 b 110 344 239 -17 110 83 l 110 911 l 226 911 l 226 342 b 418 85 226 153 308 85 b 611 342 528 85 611 153 l 611 911 l 724 911 l 724 344 b 418 -17 724 83 596 -17 m 360 1022 b 438 1086 404 1035 438 1051 b 322 1144 438 1122 400 1142 l 335 1211 b 526 1099 456 1207 526 1169 b 372 969 526 1018 453 983 "},"Ư":{"ha":833,"x_min":0,"x_max":0,"o":"m 418 -17 b 110 344 239 -17 110 83 l 110 911 l 226 911 l 226 342 b 418 85 226 153 308 85 b 611 342 528 85 611 153 l 611 911 l 657 911 b 774 1026 732 921 774 949 b 753 1107 774 1054 765 1085 l 843 1146 b 875 1035 863 1115 875 1076 b 724 861 875 928 808 881 l 724 344 b 418 -17 724 83 596 -17 "},"Ứ":{"ha":833,"x_min":0,"x_max":0,"o":"m 418 -17 b 110 344 239 -17 110 83 l 110 911 l 226 911 l 226 342 b 418 85 226 153 308 85 b 611 342 528 85 611 153 l 611 911 l 657 911 b 774 1026 732 921 774 949 b 753 1107 774 1054 765 1085 l 843 1146 b 875 1035 863 1115 875 1076 b 724 861 875 928 808 881 l 724 344 b 418 -17 724 83 596 -17 m 326 1026 l 522 1204 l 588 1128 l 376 968 "},"Ừ":{"ha":833,"x_min":0,"x_max":0,"o":"m 418 -17 b 110 344 239 -17 110 83 l 110 911 l 226 911 l 226 342 b 418 85 226 153 308 85 b 611 342 528 85 611 153 l 611 911 l 657 911 b 774 1026 732 921 774 949 b 753 1107 774 1054 765 1085 l 843 1146 b 875 1035 863 1115 875 1076 b 724 861 875 928 808 881 l 724 344 b 418 -17 724 83 596 -17 m 246 1128 l 311 1204 l 507 1026 l 457 968 "},"Ử":{"ha":833,"x_min":0,"x_max":0,"o":"m 418 -17 b 110 344 239 -17 110 83 l 110 911 l 226 911 l 226 342 b 418 85 226 153 308 85 b 611 342 528 85 611 153 l 611 911 l 657 911 b 774 1026 732 921 774 949 b 753 1107 774 1054 765 1085 l 843 1146 b 875 1035 863 1115 875 1076 b 724 861 875 928 808 881 l 724 344 b 418 -17 724 83 596 -17 m 360 1022 b 438 1086 404 1035 438 1051 b 322 1144 438 1122 400 1142 l 335 1211 b 526 1099 456 1207 526 1169 b 372 969 526 1018 453 983 "},"Ữ":{"ha":833,"x_min":0,"x_max":0,"o":"m 418 -17 b 110 344 239 -17 110 83 l 110 911 l 226 911 l 226 342 b 418 85 226 153 308 85 b 611 342 528 85 611 153 l 611 911 l 657 911 b 774 1026 732 921 774 949 b 753 1107 774 1054 765 1085 l 843 1146 b 875 1035 863 1115 875 1076 b 724 861 875 928 808 881 l 724 344 b 418 -17 724 83 596 -17 m 521 985 b 315 1083 417 985 381 1083 b 249 992 281 1083 254 1051 l 171 997 b 313 1168 176 1103 229 1168 b 518 1069 417 1168 453 1069 b 585 1161 553 1069 578 1101 l 663 1156 b 521 985 657 1049 604 985 "},"Ự":{"ha":833,"x_min":0,"x_max":0,"o":"m 418 -17 b 110 344 239 -17 110 83 l 110 911 l 226 911 l 226 342 b 418 85 226 153 308 85 b 611 342 528 85 611 153 l 611 911 l 657 911 b 774 1026 732 921 774 949 b 753 1107 774 1054 765 1085 l 843 1146 b 875 1035 863 1115 875 1076 b 724 861 875 928 808 881 l 724 344 b 418 -17 724 83 596 -17 m 417 -299 b 325 -210 365 -299 325 -264 b 417 -121 325 -157 365 -121 b 508 -210 468 -121 508 -157 b 417 -299 508 -264 468 -299 "},"Ṿ":{"ha":833,"x_min":0,"x_max":0,"o":"m 60 911 l 182 911 l 329 419 b 417 118 361 311 383 225 l 422 118 b 510 419 456 225 479 311 l 656 911 l 774 911 l 485 0 l 350 0 m 419 -299 b 328 -210 368 -299 328 -264 b 419 -121 328 -157 368 -121 b 511 -210 471 -121 511 -157 b 419 -299 511 -264 471 -299 "},"Ẁ":{"ha":833,"x_min":0,"x_max":0,"o":"m 14 913 l 144 913 l 211 340 b 229 129 219 264 225 219 l 233 129 b 278 339 250 219 260 264 l 367 678 l 478 678 l 564 339 b 608 129 583 264 592 219 l 614 129 b 631 339 619 219 622 264 l 694 913 l 819 913 l 686 0 l 542 0 l 453 367 b 419 531 439 422 428 475 l 415 531 b 383 367 406 475 397 422 l 294 0 l 153 0 m 246 1128 l 311 1204 l 507 1026 l 457 968 "},"Ẃ":{"ha":833,"x_min":0,"x_max":0,"o":"m 14 913 l 144 913 l 211 340 b 229 129 219 264 225 219 l 233 129 b 278 339 250 219 260 264 l 367 678 l 478 678 l 564 339 b 608 129 583 264 592 219 l 614 129 b 631 339 619 219 622 264 l 694 913 l 819 913 l 686 0 l 542 0 l 453 367 b 419 531 439 422 428 475 l 415 531 b 383 367 406 475 397 422 l 294 0 l 153 0 m 326 1026 l 522 1204 l 588 1128 l 376 968 "},"Ŵ":{"ha":833,"x_min":0,"x_max":0,"o":"m 14 913 l 144 913 l 211 340 b 229 129 219 264 225 219 l 233 129 b 278 339 250 219 260 264 l 367 678 l 478 678 l 564 339 b 608 129 583 264 592 219 l 614 129 b 631 339 619 219 622 264 l 694 913 l 819 913 l 686 0 l 542 0 l 453 367 b 419 531 439 422 428 475 l 415 531 b 383 367 406 475 397 422 l 294 0 l 153 0 m 211 1007 l 357 1164 l 476 1164 l 622 1007 l 572 971 l 419 1100 l 414 1100 l 261 971 "},"Ẅ":{"ha":833,"x_min":0,"x_max":0,"o":"m 14 913 l 144 913 l 211 340 b 229 129 219 264 225 219 l 233 129 b 278 339 250 219 260 264 l 367 678 l 478 678 l 564 339 b 608 129 583 264 592 219 l 614 129 b 631 339 619 219 622 264 l 694 913 l 819 913 l 686 0 l 542 0 l 453 367 b 419 531 439 422 428 475 l 415 531 b 383 367 406 475 397 422 l 294 0 l 153 0 m 290 993 b 219 1064 250 993 219 1022 b 290 1133 219 1106 250 1133 b 360 1064 331 1133 360 1106 b 290 993 360 1022 331 993 m 543 993 b 474 1064 503 993 474 1022 b 543 1133 474 1106 503 1133 b 614 1064 583 1133 614 1106 b 543 993 614 1022 583 993 "},"Ỳ":{"ha":833,"x_min":0,"x_max":0,"o":"m 358 325 l 53 911 l 175 911 l 313 640 b 417 428 347 571 379 501 l 422 428 b 529 642 458 501 494 571 l 661 911 l 781 911 l 475 325 l 475 0 l 358 0 m 246 1128 l 311 1204 l 507 1026 l 457 968 "},"Ý":{"ha":833,"x_min":0,"x_max":0,"o":"m 358 325 l 53 911 l 175 911 l 313 640 b 417 428 347 571 379 501 l 422 428 b 529 642 458 501 494 571 l 661 911 l 781 911 l 475 325 l 475 0 l 358 0 m 326 1026 l 522 1204 l 588 1128 l 376 968 "},"Ŷ":{"ha":833,"x_min":0,"x_max":0,"o":"m 358 325 l 53 911 l 175 911 l 313 640 b 417 428 347 571 379 501 l 422 428 b 529 642 458 501 494 571 l 661 911 l 781 911 l 475 325 l 475 0 l 358 0 m 211 1007 l 357 1164 l 476 1164 l 622 1007 l 572 971 l 419 1100 l 414 1100 l 261 971 "},"Ÿ":{"ha":833,"x_min":0,"x_max":0,"o":"m 358 325 l 53 911 l 175 911 l 313 640 b 417 428 347 571 379 501 l 422 428 b 529 642 458 501 494 571 l 661 911 l 781 911 l 475 325 l 475 0 l 358 0 m 290 993 b 219 1064 250 993 219 1022 b 290 1133 219 1106 250 1133 b 360 1064 331 1133 360 1106 b 290 993 360 1022 331 993 m 543 993 b 474 1064 503 993 474 1022 b 543 1133 474 1106 503 1133 b 614 1064 583 1133 614 1106 b 543 993 614 1022 583 993 "},"Ẏ":{"ha":833,"x_min":0,"x_max":0,"o":"m 358 325 l 53 911 l 175 911 l 313 640 b 417 428 347 571 379 501 l 422 428 b 529 642 458 501 494 571 l 661 911 l 781 911 l 475 325 l 475 0 l 358 0 m 417 992 b 335 1071 371 992 335 1024 b 417 1149 335 1117 371 1149 b 499 1071 463 1149 499 1117 b 417 992 499 1024 463 992 "},"Ỵ":{"ha":833,"x_min":0,"x_max":0,"o":"m 358 325 l 53 911 l 175 911 l 313 640 b 417 428 347 571 379 501 l 422 428 b 529 642 458 501 494 571 l 661 911 l 781 911 l 475 325 l 475 0 l 358 0 m 417 -299 b 325 -210 365 -299 325 -264 b 417 -121 325 -157 365 -121 b 508 -210 468 -121 508 -157 b 417 -299 508 -264 468 -299 "},"Ỷ":{"ha":833,"x_min":0,"x_max":0,"o":"m 358 325 l 53 911 l 175 911 l 313 640 b 417 428 347 571 379 501 l 422 428 b 529 642 458 501 494 571 l 661 911 l 781 911 l 475 325 l 475 0 l 358 0 m 360 1022 b 438 1086 404 1035 438 1051 b 322 1144 438 1122 400 1142 l 335 1211 b 526 1099 456 1207 526 1169 b 372 969 526 1018 453 983 "},"Ỹ":{"ha":833,"x_min":0,"x_max":0,"o":"m 358 325 l 53 911 l 175 911 l 313 640 b 417 428 347 571 379 501 l 422 428 b 529 642 458 501 494 571 l 661 911 l 781 911 l 475 325 l 475 0 l 358 0 m 521 985 b 315 1083 417 985 381 1083 b 249 992 281 1083 254 1051 l 171 997 b 313 1168 176 1103 229 1168 b 518 1069 417 1168 453 1069 b 585 1161 553 1069 578 1101 l 663 1156 b 521 985 657 1049 604 985 "},"Ź":{"ha":833,"x_min":0,"x_max":0,"o":"m 90 69 l 599 815 l 135 815 l 135 913 l 742 913 l 742 843 l 232 99 l 749 99 l 749 0 l 90 0 m 350 1026 l 546 1204 l 611 1128 l 400 968 "},"Ž":{"ha":833,"x_min":0,"x_max":0,"o":"m 90 69 l 599 815 l 135 815 l 135 913 l 742 913 l 742 843 l 232 99 l 749 99 l 749 0 l 90 0 m 235 1138 l 285 1174 l 438 1046 l 443 1046 l 596 1174 l 646 1138 l 500 981 l 381 981 "},"Ż":{"ha":833,"x_min":0,"x_max":0,"o":"m 90 69 l 599 815 l 135 815 l 135 913 l 742 913 l 742 843 l 232 99 l 749 99 l 749 0 l 90 0 m 440 992 b 358 1071 394 992 358 1024 b 440 1149 358 1117 394 1149 b 522 1071 486 1149 522 1117 b 440 992 522 1024 486 992 "},"Ẑ":{"ha":833,"x_min":0,"x_max":0,"o":"m 90 69 l 599 815 l 135 815 l 135 913 l 742 913 l 742 843 l 232 99 l 749 99 l 749 0 l 90 0 m 235 1007 l 381 1164 l 500 1164 l 646 1007 l 596 971 l 443 1100 l 438 1100 l 285 971 "},"Ẓ":{"ha":833,"x_min":0,"x_max":0,"o":"m 90 69 l 599 815 l 135 815 l 135 913 l 742 913 l 742 843 l 232 99 l 749 99 l 749 0 l 90 0 m 431 -299 b 339 -210 379 -299 339 -264 b 431 -121 339 -157 379 -121 b 522 -210 482 -121 522 -157 b 431 -299 522 -264 482 -299 "},"Ẕ":{"ha":833,"x_min":0,"x_max":0,"o":"m 90 69 l 599 815 l 135 815 l 135 913 l 742 913 l 742 843 l 232 99 l 749 99 l 749 0 l 90 0 m 246 -157 l 615 -157 l 615 -236 l 246 -236 "},"Ð":{"ha":833,"x_min":0,"x_max":0,"o":"m 121 436 l 17 436 l 17 514 l 121 522 l 121 911 l 346 911 b 768 460 619 911 768 749 b 351 0 768 169 619 0 l 121 0 m 338 94 b 647 460 544 94 647 229 b 338 817 647 689 544 817 l 236 817 l 236 522 l 436 522 l 436 436 l 236 436 l 236 94 "},"Þ":{"ha":833,"x_min":0,"x_max":0,"o":"m 140 911 l 257 911 l 257 758 l 421 758 b 757 490 622 758 757 689 b 421 208 757 297 619 208 l 257 208 l 257 0 l 140 0 m 406 303 b 642 490 565 303 642 360 b 406 664 642 621 563 664 l 257 664 l 257 303 "},"Ə":{"ha":833,"x_min":0,"x_max":0,"o":"m 417 -17 b 82 454 213 -17 82 171 b 83 486 82 465 82 475 l 649 486 b 413 828 642 704 560 828 b 229 747 338 828 275 794 l 174 826 b 418 928 231 885 311 928 b 764 458 633 928 764 750 b 417 -17 764 167 622 -17 m 417 83 b 647 397 544 83 632 192 l 196 397 b 417 83 210 188 290 83 "},"Ŋ":{"ha":833,"x_min":0,"x_max":0,"o":"m 525 -17 b 421 3 490 -17 446 -10 l 450 107 b 513 93 467 99 486 93 b 643 465 588 93 643 176 b 438 826 643 739 561 826 b 233 696 369 826 285 769 l 233 0 l 118 0 l 118 911 l 231 911 l 231 804 b 463 928 290 872 374 928 b 763 465 635 928 763 806 b 525 -17 763 115 675 -17 "},"Ĳ":{"ha":833,"x_min":0,"x_max":0,"o":"m 156 911 l 271 911 l 271 0 l 156 0 m 488 -229 b 385 -211 444 -229 410 -221 l 407 -119 b 475 -133 426 -126 451 -133 b 563 0 544 -133 563 -82 l 563 911 l 678 911 l 678 -4 b 488 -229 678 -142 625 -229 "},"à":{"ha":833,"x_min":0,"x_max":0,"o":"m 342 -17 b 113 175 215 -17 113 54 b 601 428 113 326 253 400 b 422 597 599 519 553 597 b 186 517 335 597 249 556 l 142 594 b 442 692 210 639 324 692 b 715 414 626 692 715 582 l 715 0 l 622 0 l 613 92 l 608 92 b 342 -17 533 33 438 -17 m 372 75 b 601 175 449 75 525 111 l 601 353 b 224 183 313 329 224 272 b 372 75 224 107 294 75 m 256 1001 l 336 1079 l 533 846 l 474 789 "},"á":{"ha":833,"x_min":0,"x_max":0,"o":"m 342 -17 b 113 175 215 -17 113 54 b 601 428 113 326 253 400 b 422 597 599 519 553 597 b 186 517 335 597 249 556 l 142 594 b 442 692 210 639 324 692 b 715 414 626 692 715 582 l 715 0 l 622 0 l 613 92 l 608 92 b 342 -17 533 33 438 -17 m 372 75 b 601 175 449 75 525 111 l 601 353 b 224 183 313 329 224 272 b 372 75 224 107 294 75 m 356 846 l 553 1079 l 633 1001 l 415 789 "},"â":{"ha":833,"x_min":0,"x_max":0,"o":"m 342 -17 b 113 175 215 -17 113 54 b 601 428 113 326 253 400 b 422 597 599 519 553 597 b 186 517 335 597 249 556 l 142 594 b 442 692 210 639 324 692 b 715 414 626 692 715 582 l 715 0 l 622 0 l 613 92 l 608 92 b 342 -17 533 33 438 -17 m 372 75 b 601 175 449 75 525 111 l 601 353 b 224 183 313 329 224 272 b 372 75 224 107 294 75 m 229 833 l 388 1028 l 501 1028 l 660 833 l 611 789 l 447 946 l 442 946 l 278 789 "},"ã":{"ha":833,"x_min":0,"x_max":0,"o":"m 342 -17 b 113 175 215 -17 113 54 b 601 428 113 326 253 400 b 422 597 599 519 553 597 b 186 517 335 597 249 556 l 142 594 b 442 692 210 639 324 692 b 715 414 626 692 715 582 l 715 0 l 622 0 l 613 92 l 608 92 b 342 -17 533 33 438 -17 m 372 75 b 601 175 449 75 525 111 l 601 353 b 224 183 313 329 224 272 b 372 75 224 107 294 75 m 544 801 b 346 918 446 801 410 918 b 281 808 304 918 285 874 l 204 813 b 344 1001 208 921 249 1001 b 544 885 443 1001 479 885 b 608 994 585 885 604 931 l 685 989 b 544 801 681 882 640 801 "},"ä":{"ha":833,"x_min":0,"x_max":0,"o":"m 342 -17 b 113 175 215 -17 113 54 b 601 428 113 326 253 400 b 422 597 599 519 553 597 b 186 517 335 597 249 556 l 142 594 b 442 692 210 639 324 692 b 715 414 626 692 715 582 l 715 0 l 622 0 l 613 92 l 608 92 b 342 -17 533 33 438 -17 m 372 75 b 601 175 449 75 525 111 l 601 353 b 224 183 313 329 224 272 b 372 75 224 107 294 75 m 310 817 b 233 894 265 817 233 850 b 310 972 233 938 265 972 b 386 894 354 972 386 938 b 310 817 386 850 354 817 m 579 817 b 503 894 535 817 503 850 b 579 972 503 938 535 972 b 656 894 624 972 656 938 b 579 817 656 850 624 817 "},"ā":{"ha":833,"x_min":0,"x_max":0,"o":"m 342 -17 b 113 175 215 -17 113 54 b 601 428 113 326 253 400 b 422 597 599 519 553 597 b 186 517 335 597 249 556 l 142 594 b 442 692 210 639 324 692 b 715 414 626 692 715 582 l 715 0 l 622 0 l 613 92 l 608 92 b 342 -17 533 33 438 -17 m 372 75 b 601 175 449 75 525 111 l 601 353 b 224 183 313 329 224 272 b 372 75 224 107 294 75 m 260 914 l 629 914 l 629 835 l 260 835 "},"ă":{"ha":833,"x_min":0,"x_max":0,"o":"m 342 -17 b 113 175 215 -17 113 54 b 601 428 113 326 253 400 b 422 597 599 519 553 597 b 186 517 335 597 249 556 l 142 594 b 442 692 210 639 324 692 b 715 414 626 692 715 582 l 715 0 l 622 0 l 613 92 l 608 92 b 342 -17 533 33 438 -17 m 372 75 b 601 175 449 75 525 111 l 601 353 b 224 183 313 329 224 272 b 372 75 224 107 294 75 m 444 793 b 228 1003 296 793 235 900 l 299 1014 b 444 869 310 943 354 869 b 590 1014 535 869 579 943 l 661 1003 b 444 793 654 900 593 793 "},"å":{"ha":833,"x_min":0,"x_max":0,"o":"m 342 -17 b 113 175 215 -17 113 54 b 601 428 113 326 253 400 b 422 597 599 519 553 597 b 186 517 335 597 249 556 l 142 594 b 442 692 210 639 324 692 b 715 414 626 692 715 582 l 715 0 l 622 0 l 613 92 l 608 92 b 342 -17 533 33 438 -17 m 372 75 b 601 175 449 75 525 111 l 601 353 b 224 183 313 329 224 272 b 372 75 224 107 294 75 m 444 790 b 292 924 349 790 292 849 b 444 1057 292 999 349 1057 b 597 924 540 1057 597 999 b 444 790 597 849 540 790 m 444 842 b 524 924 489 842 524 878 b 444 1006 524 971 489 1006 b 365 924 400 1006 365 971 b 444 842 365 878 400 842 "},"ǻ":{"ha":833,"x_min":0,"x_max":0,"o":"m 444 790 b 292 924 349 790 292 849 b 357 1036 292 971 315 1013 l 542 1171 l 590 1101 l 489 1053 b 597 924 557 1038 597 986 b 444 790 597 849 540 790 m 342 -17 b 113 175 215 -17 113 54 b 601 428 113 326 253 400 b 422 597 599 519 553 597 b 186 517 335 597 249 556 l 142 594 b 442 692 210 639 324 692 b 715 414 626 692 715 582 l 715 0 l 622 0 l 613 92 l 608 92 b 342 -17 533 33 438 -17 m 372 75 b 601 175 449 75 525 111 l 601 353 b 224 183 313 329 224 272 b 372 75 224 107 294 75 m 444 842 b 524 924 489 842 524 878 b 444 1006 524 971 489 1006 b 365 924 400 1006 365 971 b 444 842 365 878 400 842 "},"ǎ":{"ha":833,"x_min":0,"x_max":0,"o":"m 342 -17 b 113 175 215 -17 113 54 b 601 428 113 326 253 400 b 422 597 599 519 553 597 b 186 517 335 597 249 556 l 142 594 b 442 692 210 639 324 692 b 715 414 626 692 715 582 l 715 0 l 622 0 l 613 92 l 608 92 b 342 -17 533 33 438 -17 m 372 75 b 601 175 449 75 525 111 l 601 353 b 224 183 313 329 224 272 b 372 75 224 107 294 75 m 229 992 l 278 1036 l 442 879 l 447 879 l 611 1036 l 660 992 l 501 797 l 388 797 "},"ą":{"ha":833,"x_min":0,"x_max":0,"o":"m 633 -312 b 490 -183 553 -312 490 -271 b 622 7 490 -100 550 -37 l 613 92 l 608 92 b 342 -17 533 33 438 -17 b 113 175 215 -17 113 54 b 601 428 113 326 253 400 b 422 597 599 519 553 597 b 186 517 335 597 249 556 l 142 594 b 442 692 210 639 324 692 b 715 414 626 692 715 582 l 715 0 b 575 -161 615 -44 575 -104 b 657 -237 575 -214 615 -237 b 729 -208 688 -237 713 -225 l 763 -262 b 633 -312 731 -293 686 -312 m 372 75 b 601 175 449 75 525 111 l 601 353 b 224 183 313 329 224 272 b 372 75 224 107 294 75 "},"ạ":{"ha":833,"x_min":0,"x_max":0,"o":"m 342 -17 b 113 175 215 -17 113 54 b 601 428 113 326 253 400 b 422 597 599 519 553 597 b 186 517 335 597 249 556 l 142 594 b 442 692 210 639 324 692 b 715 414 626 692 715 582 l 715 0 l 622 0 l 613 92 l 608 92 b 342 -17 533 33 438 -17 m 372 75 b 601 175 449 75 525 111 l 601 353 b 224 183 313 329 224 272 b 372 75 224 107 294 75 m 417 -299 b 325 -210 365 -299 325 -264 b 417 -121 325 -157 365 -121 b 508 -210 468 -121 508 -157 b 417 -299 508 -264 468 -299 "},"ả":{"ha":833,"x_min":0,"x_max":0,"o":"m 342 -17 b 113 175 215 -17 113 54 b 601 428 113 326 253 400 b 422 597 599 519 553 597 b 186 517 335 597 249 556 l 142 594 b 442 692 210 639 324 692 b 715 414 626 692 715 582 l 715 0 l 622 0 l 613 92 l 608 92 b 342 -17 533 33 438 -17 m 372 75 b 601 175 449 75 525 111 l 601 353 b 224 183 313 329 224 272 b 372 75 224 107 294 75 m 388 850 b 465 915 432 861 465 879 b 350 981 465 956 428 976 l 357 1056 b 556 925 483 1053 556 1007 b 400 794 556 844 481 810 "},"ấ":{"ha":833,"x_min":0,"x_max":0,"o":"m 342 -17 b 113 175 215 -17 113 54 b 601 428 113 326 253 400 b 422 597 599 519 553 597 b 186 517 335 597 249 556 l 142 594 b 442 692 210 639 324 692 b 715 414 626 692 715 582 l 715 0 l 622 0 l 613 92 l 608 92 b 342 -17 533 33 438 -17 m 372 75 b 601 175 449 75 525 111 l 601 353 b 224 183 313 329 224 272 b 372 75 224 107 294 75 m 258 839 l 397 967 l 492 967 l 631 839 l 590 792 l 447 892 l 442 892 l 299 792 m 582 924 l 703 1090 l 771 1043 l 631 885 "},"ầ":{"ha":833,"x_min":0,"x_max":0,"o":"m 342 -17 b 113 175 215 -17 113 54 b 601 428 113 326 253 400 b 422 597 599 519 553 597 b 186 517 335 597 249 556 l 142 594 b 442 692 210 639 324 692 b 715 414 626 692 715 582 l 715 0 l 622 0 l 613 92 l 608 92 b 342 -17 533 33 438 -17 m 372 75 b 601 175 449 75 525 111 l 601 353 b 224 183 313 329 224 272 b 372 75 224 107 294 75 m 258 839 l 397 967 l 492 967 l 631 839 l 590 792 l 447 892 l 442 892 l 299 792 m 101 1040 l 168 1090 l 307 928 l 258 885 "},"ẩ":{"ha":833,"x_min":0,"x_max":0,"o":"m 342 -17 b 113 175 215 -17 113 54 b 601 428 113 326 253 400 b 422 597 599 519 553 597 b 186 517 335 597 249 556 l 142 594 b 442 692 210 639 324 692 b 715 414 626 692 715 582 l 715 0 l 622 0 l 613 92 l 608 92 b 342 -17 533 33 438 -17 m 372 75 b 601 175 449 75 525 111 l 601 353 b 224 183 313 329 224 272 b 372 75 224 107 294 75 m 258 839 l 397 967 l 492 967 l 631 839 l 590 792 l 447 892 l 442 892 l 299 792 m 593 931 b 651 985 628 940 651 956 b 556 1042 651 1021 624 1039 l 565 1099 b 735 997 674 1096 735 1063 b 606 882 735 924 671 897 "},"ẫ":{"ha":833,"x_min":0,"x_max":0,"o":"m 342 -17 b 113 175 215 -17 113 54 b 601 428 113 326 253 400 b 422 597 599 519 553 597 b 186 517 335 597 249 556 l 142 594 b 442 692 210 639 324 692 b 715 414 626 692 715 582 l 715 0 l 622 0 l 613 92 l 608 92 b 342 -17 533 33 438 -17 m 372 75 b 601 175 449 75 525 111 l 601 353 b 224 183 313 329 224 272 b 372 75 224 107 294 75 m 258 839 l 397 961 l 492 961 l 631 839 l 590 792 l 447 888 l 442 888 l 299 792 m 535 986 b 360 1044 454 986 413 1044 b 314 986 332 1044 321 1026 l 254 992 b 354 1115 261 1064 289 1115 b 529 1057 436 1115 476 1057 b 575 1115 557 1057 568 1075 l 635 1110 b 535 986 628 1039 600 986 "},"ậ":{"ha":833,"x_min":0,"x_max":0,"o":"m 342 -17 b 113 175 215 -17 113 54 b 601 428 113 326 253 400 b 422 597 599 519 553 597 b 186 517 335 597 249 556 l 142 594 b 442 692 210 639 324 692 b 715 414 626 692 715 582 l 715 0 l 622 0 l 613 92 l 608 92 b 342 -17 533 33 438 -17 m 372 75 b 601 175 449 75 525 111 l 601 353 b 224 183 313 329 224 272 b 372 75 224 107 294 75 m 229 833 l 388 1028 l 501 1028 l 660 833 l 611 789 l 447 946 l 442 946 l 278 789 m 417 -299 b 325 -210 365 -299 325 -264 b 417 -121 325 -157 365 -121 b 508 -210 468 -121 508 -157 b 417 -299 508 -264 468 -299 "},"ắ":{"ha":833,"x_min":0,"x_max":0,"o":"m 342 -17 b 113 175 215 -17 113 54 b 601 428 113 326 253 400 b 422 597 599 519 553 597 b 186 517 335 597 249 556 l 142 594 b 442 692 210 639 324 692 b 715 414 626 692 715 582 l 715 0 l 622 0 l 613 92 l 608 92 b 342 -17 533 33 438 -17 m 372 75 b 601 175 449 75 525 111 l 601 353 b 224 183 313 329 224 272 b 372 75 224 107 294 75 m 444 793 b 228 1003 296 793 235 900 l 294 1014 b 444 864 304 940 351 864 b 594 1014 538 864 585 940 l 661 1003 b 444 793 654 900 593 793 m 383 983 l 506 1156 l 578 1100 l 438 943 "},"ằ":{"ha":833,"x_min":0,"x_max":0,"o":"m 342 -17 b 113 175 215 -17 113 54 b 601 428 113 326 253 400 b 422 597 599 519 553 597 b 186 517 335 597 249 556 l 142 594 b 442 692 210 639 324 692 b 715 414 626 692 715 582 l 715 0 l 622 0 l 613 92 l 608 92 b 342 -17 533 33 438 -17 m 372 75 b 601 175 449 75 525 111 l 601 353 b 224 183 313 329 224 272 b 372 75 224 107 294 75 m 444 793 b 228 1003 296 793 235 900 l 294 1014 b 444 864 304 940 351 864 b 594 1014 538 864 585 940 l 661 1003 b 444 793 654 900 593 793 m 311 1100 l 383 1156 l 506 983 l 451 943 "},"ẳ":{"ha":833,"x_min":0,"x_max":0,"o":"m 342 -17 b 113 175 215 -17 113 54 b 601 428 113 326 253 400 b 422 597 599 519 553 597 b 186 517 335 597 249 556 l 142 594 b 442 692 210 639 324 692 b 715 414 626 692 715 582 l 715 0 l 622 0 l 613 92 l 608 92 b 342 -17 533 33 438 -17 m 372 75 b 601 175 449 75 525 111 l 601 353 b 224 183 313 329 224 272 b 372 75 224 107 294 75 m 444 793 b 228 1003 296 793 235 900 l 294 1014 b 444 864 304 940 351 864 b 594 1014 538 864 585 940 l 661 1003 b 444 793 654 900 593 793 m 396 997 b 463 1051 435 1006 463 1022 b 357 1108 463 1088 432 1106 l 367 1178 b 546 1064 479 1175 546 1138 b 407 947 546 989 476 958 "},"ẵ":{"ha":833,"x_min":0,"x_max":0,"o":"m 342 -17 b 113 175 215 -17 113 54 b 601 428 113 326 253 400 b 422 597 599 519 553 597 b 186 517 335 597 249 556 l 142 594 b 442 692 210 639 324 692 b 715 414 626 692 715 582 l 715 0 l 622 0 l 613 92 l 608 92 b 342 -17 533 33 438 -17 m 372 75 b 601 175 449 75 525 111 l 601 353 b 224 183 313 329 224 272 b 372 75 224 107 294 75 m 444 793 b 244 942 308 793 253 871 l 310 953 b 444 858 317 907 358 858 b 579 953 531 858 572 907 l 644 942 b 444 793 636 871 581 793 m 535 986 b 360 1044 454 986 413 1044 b 314 985 332 1044 321 1025 l 249 992 b 354 1114 256 1063 286 1114 b 529 1056 436 1114 476 1056 b 575 1114 557 1056 568 1075 l 640 1108 b 535 986 633 1038 603 986 "},"ặ":{"ha":833,"x_min":0,"x_max":0,"o":"m 342 -17 b 113 175 215 -17 113 54 b 601 428 113 326 253 400 b 422 597 599 519 553 597 b 186 517 335 597 249 556 l 142 594 b 442 692 210 639 324 692 b 715 414 626 692 715 582 l 715 0 l 622 0 l 613 92 l 608 92 b 342 -17 533 33 438 -17 m 372 75 b 601 175 449 75 525 111 l 601 353 b 224 183 313 329 224 272 b 372 75 224 107 294 75 m 444 793 b 228 1003 296 793 235 900 l 299 1014 b 444 869 310 943 354 869 b 590 1014 535 869 579 943 l 661 1003 b 444 793 654 900 593 793 m 417 -299 b 325 -210 365 -299 325 -264 b 417 -121 325 -157 365 -121 b 508 -210 468 -121 508 -157 b 417 -299 508 -264 468 -299 "},"æ":{"ha":833,"x_min":0,"x_max":0,"o":"m 615 601 b 463 394 546 601 476 544 l 736 394 b 615 601 732 533 693 601 m 631 -17 b 422 104 536 -17 467 28 b 201 -17 357 28 283 -17 b 24 167 99 -17 24 53 b 369 419 24 304 125 389 b 247 597 365 551 318 597 b 89 542 192 597 132 571 l 46 619 b 257 692 101 656 178 692 b 428 553 338 692 396 651 b 622 692 474 651 547 692 b 829 383 763 692 829 549 b 824 306 829 357 826 329 l 461 306 b 635 76 468 164 529 76 b 767 121 686 76 731 96 l 808 43 b 631 -17 763 10 700 -17 m 129 178 b 232 75 129 113 171 75 b 393 171 283 75 344 108 b 369 336 378 219 369 275 l 369 346 b 129 178 182 318 129 260 "},"ǽ":{"ha":833,"x_min":0,"x_max":0,"o":"m 615 601 b 463 394 546 601 476 544 l 736 394 b 615 601 732 533 693 601 m 631 -17 b 422 104 536 -17 467 28 b 201 -17 357 28 283 -17 b 24 167 99 -17 24 53 b 369 419 24 304 125 389 b 247 597 365 551 318 597 b 89 542 192 597 132 571 l 46 619 b 257 692 101 656 178 692 b 428 553 338 692 396 651 b 622 692 474 651 547 692 b 829 383 763 692 829 549 b 824 306 829 357 826 329 l 461 306 b 635 76 468 164 529 76 b 767 121 686 76 731 96 l 808 43 b 631 -17 763 10 700 -17 m 350 846 l 547 1079 l 628 1001 l 410 789 m 129 178 b 232 75 129 113 171 75 b 393 171 283 75 344 108 b 369 336 378 219 369 275 l 369 346 b 129 178 182 318 129 260 "},"ǣ":{"ha":833,"x_min":0,"x_max":0,"o":"m 615 601 b 463 394 546 601 476 544 l 736 394 b 615 601 732 533 693 601 m 631 -17 b 422 104 536 -17 467 28 b 201 -17 357 28 283 -17 b 24 167 99 -17 24 53 b 369 419 24 304 125 389 b 247 597 365 551 318 597 b 89 542 192 597 132 571 l 46 619 b 257 692 101 656 178 692 b 428 553 338 692 396 651 b 622 692 474 651 547 692 b 829 383 763 692 829 549 b 824 306 829 357 826 329 l 461 306 b 635 76 468 164 529 76 b 767 121 686 76 731 96 l 808 43 b 631 -17 763 10 700 -17 m 254 914 l 624 914 l 624 835 l 254 835 m 129 178 b 232 75 129 113 171 75 b 393 171 283 75 344 108 b 369 336 378 219 369 275 l 369 346 b 129 178 182 318 129 260 "},"ƀ":{"ha":833,"x_min":0,"x_max":0,"o":"m 444 -17 b 235 75 379 -17 299 18 l 231 75 l 221 0 l 129 0 l 129 781 l 28 781 l 28 863 l 129 869 l 129 989 l 243 989 l 243 869 l 539 869 l 539 781 l 243 781 l 243 688 l 239 561 l 243 561 b 469 664 304 624 390 664 b 750 335 651 664 750 535 b 444 -17 750 113 606 -17 m 426 79 b 632 333 544 79 632 175 b 442 568 632 474 576 568 b 243 467 382 568 313 536 l 243 158 b 426 79 307 101 378 79 "},"ḇ":{"ha":833,"x_min":0,"x_max":0,"o":"m 444 -17 b 235 75 379 -17 299 18 l 231 75 l 221 0 l 129 0 l 129 989 l 243 989 l 243 719 l 239 589 l 243 589 b 469 692 304 651 390 692 b 750 349 651 692 750 557 b 444 -17 750 118 606 -17 m 426 79 b 632 347 544 79 632 181 b 442 596 632 496 576 596 b 243 494 382 596 313 564 l 243 158 b 426 79 307 101 378 79 m 246 -157 l 615 -157 l 615 -236 l 246 -236 "},"ç":{"ha":833,"x_min":0,"x_max":0,"o":"m 349 -258 b 500 -189 465 -250 500 -229 b 393 -122 500 -153 472 -133 l 438 -15 b 111 336 249 1 111 128 b 488 692 111 563 283 692 b 733 593 597 692 678 647 l 676 519 b 492 597 621 568 563 597 b 229 336 336 597 229 492 b 489 78 229 182 333 78 b 697 163 572 78 642 115 l 749 89 b 514 -15 682 29 601 -7 l 488 -89 b 589 -187 551 -104 589 -131 b 360 -314 589 -268 507 -307 "},"ć":{"ha":833,"x_min":0,"x_max":0,"o":"m 481 -17 b 111 336 269 -17 111 113 b 488 692 111 563 283 692 b 733 593 597 692 678 647 l 676 519 b 492 597 621 568 563 597 b 229 336 336 597 229 492 b 489 78 229 182 333 78 b 697 163 572 78 642 115 l 749 89 b 481 -17 674 22 581 -17 m 392 846 l 589 1079 l 669 1001 l 451 789 "},"ĉ":{"ha":833,"x_min":0,"x_max":0,"o":"m 481 -17 b 111 336 269 -17 111 113 b 488 692 111 563 283 692 b 733 593 597 692 678 647 l 676 519 b 492 597 621 568 563 597 b 229 336 336 597 229 492 b 489 78 229 182 333 78 b 697 163 572 78 642 115 l 749 89 b 481 -17 674 22 581 -17 m 265 833 l 424 1028 l 538 1028 l 696 833 l 647 789 l 483 946 l 478 946 l 314 789 "},"č":{"ha":833,"x_min":0,"x_max":0,"o":"m 481 -17 b 111 336 269 -17 111 113 b 488 692 111 563 283 692 b 733 593 597 692 678 647 l 676 519 b 492 597 621 568 563 597 b 229 336 336 597 229 492 b 489 78 229 182 333 78 b 697 163 572 78 642 115 l 749 89 b 481 -17 674 22 581 -17 m 265 992 l 314 1036 l 478 879 l 483 879 l 647 1036 l 696 992 l 538 797 l 424 797 "},"ċ":{"ha":833,"x_min":0,"x_max":0,"o":"m 481 -17 b 111 336 269 -17 111 113 b 488 692 111 563 283 692 b 733 593 597 692 678 647 l 676 519 b 492 597 621 568 563 597 b 229 336 336 597 229 492 b 489 78 229 182 333 78 b 697 163 572 78 642 115 l 749 89 b 481 -17 674 22 581 -17 m 481 817 b 389 906 429 817 389 851 b 481 994 389 958 429 994 b 572 906 532 994 572 958 b 481 817 572 851 532 817 "},"ď":{"ha":833,"x_min":0,"x_max":0,"o":"m 353 -17 b 75 336 186 -17 75 111 b 367 692 75 556 214 692 b 558 604 443 692 500 658 l 563 604 l 556 729 l 556 989 l 665 989 l 665 0 l 576 0 l 567 89 l 563 89 b 353 -17 508 33 433 -17 m 376 79 b 556 181 439 79 497 114 l 556 517 b 389 596 496 572 444 596 b 188 338 278 596 188 492 b 376 79 188 176 258 79 m 757 1133 l 860 1133 l 860 1021 l 840 761 l 761 761 "},"ḍ":{"ha":833,"x_min":0,"x_max":0,"o":"m 376 -17 b 83 336 200 -17 83 111 b 390 692 83 556 231 692 b 592 604 471 692 533 660 l 596 604 l 590 729 l 590 989 l 704 989 l 704 0 l 610 0 l 600 89 l 596 89 b 376 -17 540 32 460 -17 m 400 79 b 590 181 467 79 531 114 l 590 517 b 413 596 529 574 471 596 b 201 338 296 596 201 492 b 400 79 201 176 275 79 m 422 -299 b 331 -210 371 -299 331 -264 b 422 -121 331 -157 371 -121 b 514 -210 474 -121 514 -157 b 422 -299 514 -264 474 -299 "},"ḏ":{"ha":833,"x_min":0,"x_max":0,"o":"m 376 -17 b 83 336 200 -17 83 111 b 390 692 83 556 231 692 b 592 604 471 692 533 660 l 596 604 l 590 729 l 590 989 l 704 989 l 704 0 l 610 0 l 600 89 l 596 89 b 376 -17 540 32 460 -17 m 400 79 b 590 181 467 79 531 114 l 590 517 b 413 596 529 574 471 596 b 201 338 296 596 201 492 b 400 79 201 176 275 79 m 238 -157 l 607 -157 l 607 -236 l 238 -236 "},"ḑ":{"ha":833,"x_min":0,"x_max":0,"o":"m 278 -258 b 429 -189 394 -250 429 -229 b 322 -122 429 -153 401 -133 l 367 -17 b 83 336 196 -11 83 115 b 390 692 83 556 231 692 b 592 604 471 692 533 660 l 596 604 l 590 729 l 590 989 l 704 989 l 704 0 l 610 0 l 600 89 l 596 89 b 447 -6 556 49 504 13 l 417 -89 b 518 -187 481 -104 518 -131 b 289 -314 518 -268 436 -307 m 400 79 b 590 181 467 79 531 114 l 590 517 b 413 596 529 574 471 596 b 201 338 296 596 201 492 b 400 79 201 176 275 79 "},"đ":{"ha":833,"x_min":0,"x_max":0,"o":"m 376 -17 b 83 322 200 -17 83 106 b 390 664 83 533 231 664 b 592 576 472 664 533 631 l 596 576 l 590 701 l 590 781 l 347 781 l 347 869 l 590 869 l 590 989 l 704 989 l 704 869 l 806 869 l 806 789 l 704 781 l 704 0 l 610 0 l 600 89 l 596 89 b 376 -17 540 32 460 -17 m 400 79 b 590 181 467 79 531 114 l 590 489 b 414 568 529 546 471 568 b 201 324 296 568 201 468 b 400 79 201 171 275 79 "},"è":{"ha":833,"x_min":0,"x_max":0,"o":"m 442 601 b 213 394 331 601 233 528 l 643 394 b 442 601 633 533 557 601 m 458 -17 b 94 339 256 -17 94 114 b 439 692 94 558 258 692 b 747 375 633 692 747 565 b 742 306 747 349 744 324 l 210 306 b 472 75 224 153 332 75 b 678 139 553 75 617 100 l 719 64 b 458 -17 653 19 567 -17 m 250 1001 l 331 1079 l 528 846 l 468 789 "},"é":{"ha":833,"x_min":0,"x_max":0,"o":"m 442 601 b 213 394 331 601 233 528 l 643 394 b 442 601 633 533 557 601 m 458 -17 b 94 339 256 -17 94 114 b 439 692 94 558 258 692 b 747 375 633 692 747 565 b 742 306 747 349 744 324 l 210 306 b 472 75 224 153 332 75 b 678 139 553 75 617 100 l 719 64 b 458 -17 653 19 567 -17 m 350 846 l 547 1079 l 628 1001 l 410 789 "},"ê":{"ha":833,"x_min":0,"x_max":0,"o":"m 442 601 b 213 394 331 601 233 528 l 643 394 b 442 601 633 533 557 601 m 458 -17 b 94 339 256 -17 94 114 b 439 692 94 558 258 692 b 747 375 633 692 747 565 b 742 306 747 349 744 324 l 210 306 b 472 75 224 153 332 75 b 678 139 553 75 617 100 l 719 64 b 458 -17 653 19 567 -17 m 224 833 l 382 1028 l 496 1028 l 654 833 l 606 789 l 442 946 l 436 946 l 272 789 "},"ě":{"ha":833,"x_min":0,"x_max":0,"o":"m 442 601 b 213 394 331 601 233 528 l 643 394 b 442 601 633 533 557 601 m 458 -17 b 94 339 256 -17 94 114 b 439 692 94 558 258 692 b 747 375 633 692 747 565 b 742 306 747 349 744 324 l 210 306 b 472 75 224 153 332 75 b 678 139 553 75 617 100 l 719 64 b 458 -17 653 19 567 -17 m 224 992 l 272 1036 l 436 879 l 442 879 l 606 1036 l 654 992 l 496 797 l 382 797 "},"ë":{"ha":833,"x_min":0,"x_max":0,"o":"m 442 601 b 213 394 331 601 233 528 l 643 394 b 442 601 633 533 557 601 m 458 -17 b 94 339 256 -17 94 114 b 439 692 94 558 258 692 b 747 375 633 692 747 565 b 742 306 747 349 744 324 l 210 306 b 472 75 224 153 332 75 b 678 139 553 75 617 100 l 719 64 b 458 -17 653 19 567 -17 m 304 817 b 228 894 260 817 228 850 b 304 972 228 938 260 972 b 381 894 349 972 381 938 b 304 817 381 850 349 817 m 574 817 b 497 894 529 817 497 850 b 574 972 497 938 529 972 b 650 894 618 972 650 938 b 574 817 650 850 618 817 "},"ē":{"ha":833,"x_min":0,"x_max":0,"o":"m 442 601 b 213 394 331 601 233 528 l 643 394 b 442 601 633 533 557 601 m 458 -17 b 94 339 256 -17 94 114 b 439 692 94 558 258 692 b 747 375 633 692 747 565 b 742 306 747 349 744 324 l 210 306 b 472 75 224 153 332 75 b 678 139 553 75 617 100 l 719 64 b 458 -17 653 19 567 -17 m 254 914 l 624 914 l 624 835 l 254 835 "},"ĕ":{"ha":833,"x_min":0,"x_max":0,"o":"m 442 601 b 213 394 331 601 233 528 l 643 394 b 442 601 633 533 557 601 m 458 -17 b 94 339 256 -17 94 114 b 439 692 94 558 258 692 b 747 375 633 692 747 565 b 742 306 747 349 744 324 l 210 306 b 472 75 224 153 332 75 b 678 139 553 75 617 100 l 719 64 b 458 -17 653 19 567 -17 m 439 793 b 222 1003 290 793 229 900 l 293 1014 b 439 869 304 943 349 869 b 585 1014 529 869 574 943 l 656 1003 b 439 793 649 900 588 793 "},"ę":{"ha":833,"x_min":0,"x_max":0,"o":"m 442 601 b 213 394 331 601 233 528 l 643 394 b 442 601 633 533 557 601 m 586 -312 b 443 -183 503 -312 443 -271 b 549 -1 443 -110 488 -54 b 458 -17 501 -18 472 -17 b 94 336 256 -17 94 114 b 439 692 94 558 258 692 b 747 375 633 692 747 565 b 742 306 747 349 744 324 l 210 306 b 472 75 224 153 332 75 b 678 139 553 75 617 100 l 719 64 b 528 -161 578 -36 528 -89 b 610 -237 528 -212 567 -237 b 683 -208 642 -237 665 -225 l 717 -262 b 586 -312 683 -293 639 -312 "},"ė":{"ha":833,"x_min":0,"x_max":0,"o":"m 442 601 b 213 394 331 601 233 528 l 643 394 b 442 601 633 533 557 601 m 458 -17 b 94 339 256 -17 94 114 b 439 692 94 558 258 692 b 747 375 633 692 747 565 b 742 306 747 349 744 324 l 210 306 b 472 75 224 153 332 75 b 678 139 553 75 617 100 l 719 64 b 458 -17 653 19 567 -17 m 439 817 b 347 906 388 817 347 851 b 439 994 347 958 388 994 b 531 906 490 994 531 958 b 439 817 531 851 490 817 "},"ẹ":{"ha":833,"x_min":0,"x_max":0,"o":"m 442 601 b 213 394 331 601 233 528 l 643 394 b 442 601 633 533 557 601 m 458 -17 b 94 339 256 -17 94 114 b 439 692 94 558 258 692 b 747 375 633 692 747 565 b 742 306 747 349 744 324 l 210 306 b 472 75 224 153 332 75 b 678 139 553 75 617 100 l 719 64 b 458 -17 653 19 567 -17 m 439 -299 b 347 -210 388 -299 347 -264 b 439 -121 347 -157 388 -121 b 531 -210 490 -121 531 -157 b 439 -299 531 -264 490 -299 "},"ẻ":{"ha":833,"x_min":0,"x_max":0,"o":"m 442 601 b 213 394 331 601 233 528 l 643 394 b 442 601 633 533 557 601 m 458 -17 b 94 339 256 -17 94 114 b 439 692 94 558 258 692 b 747 375 633 692 747 565 b 742 306 747 349 744 324 l 210 306 b 472 75 224 153 332 75 b 678 139 553 75 617 100 l 719 64 b 458 -17 653 19 567 -17 m 382 850 b 460 915 426 861 460 879 b 344 981 460 956 422 976 l 351 1056 b 550 925 478 1053 550 1007 b 394 794 550 844 475 810 "},"ẽ":{"ha":833,"x_min":0,"x_max":0,"o":"m 442 601 b 213 394 331 601 233 528 l 643 394 b 442 601 633 533 557 601 m 458 -17 b 94 339 256 -17 94 114 b 439 692 94 558 258 692 b 747 375 633 692 747 565 b 742 306 747 349 744 324 l 210 306 b 472 75 224 153 332 75 b 678 139 553 75 617 100 l 719 64 b 458 -17 653 19 567 -17 m 539 801 b 340 918 440 801 404 918 b 275 808 299 918 279 874 l 199 813 b 339 1001 203 921 243 1001 b 539 885 438 1001 474 885 b 603 994 579 885 599 931 l 679 989 b 539 801 675 882 635 801 "},"ế":{"ha":833,"x_min":0,"x_max":0,"o":"m 442 601 b 213 394 331 601 233 528 l 643 394 b 442 601 633 533 557 601 m 458 -17 b 94 339 256 -17 94 114 b 439 692 94 558 258 692 b 747 375 633 692 747 565 b 742 306 747 349 744 324 l 210 306 b 472 75 224 153 332 75 b 678 139 553 75 617 100 l 719 64 b 458 -17 653 19 567 -17 m 253 839 l 392 967 l 486 967 l 625 839 l 585 792 l 442 892 l 436 892 l 293 792 m 576 924 l 697 1090 l 765 1043 l 625 885 "},"ề":{"ha":833,"x_min":0,"x_max":0,"o":"m 442 601 b 213 394 331 601 233 528 l 643 394 b 442 601 633 533 557 601 m 458 -17 b 94 339 256 -17 94 114 b 439 692 94 558 258 692 b 747 375 633 692 747 565 b 742 306 747 349 744 324 l 210 306 b 472 75 224 153 332 75 b 678 139 553 75 617 100 l 719 64 b 458 -17 653 19 567 -17 m 253 839 l 392 967 l 486 967 l 625 839 l 585 792 l 442 892 l 436 892 l 293 792 m 96 1040 l 163 1090 l 301 928 l 253 885 "},"ể":{"ha":833,"x_min":0,"x_max":0,"o":"m 442 601 b 213 394 331 601 233 528 l 643 394 b 442 601 633 533 557 601 m 458 -17 b 94 339 256 -17 94 114 b 439 692 94 558 258 692 b 747 375 633 692 747 565 b 742 306 747 349 744 324 l 210 306 b 472 75 224 153 332 75 b 678 139 553 75 617 100 l 719 64 b 458 -17 653 19 567 -17 m 253 839 l 392 967 l 486 967 l 625 839 l 585 792 l 442 892 l 436 892 l 293 792 m 588 931 b 646 985 622 940 646 956 b 550 1042 646 1021 618 1039 l 560 1099 b 729 997 668 1096 729 1063 b 600 882 729 924 665 897 "},"ễ":{"ha":833,"x_min":0,"x_max":0,"o":"m 442 601 b 213 394 331 601 233 528 l 643 394 b 442 601 633 533 557 601 m 458 -17 b 94 339 256 -17 94 114 b 439 692 94 558 258 692 b 747 375 633 692 747 565 b 742 306 747 349 744 324 l 210 306 b 472 75 224 153 332 75 b 678 139 553 75 617 100 l 719 64 b 458 -17 653 19 567 -17 m 253 839 l 392 961 l 486 961 l 625 839 l 585 792 l 442 888 l 436 888 l 293 792 m 529 986 b 354 1044 449 986 407 1044 b 308 986 326 1044 315 1026 l 249 992 b 349 1115 256 1064 283 1115 b 524 1057 431 1115 471 1057 b 569 1115 551 1057 563 1075 l 629 1110 b 529 986 622 1039 594 986 "},"ệ":{"ha":833,"x_min":0,"x_max":0,"o":"m 442 601 b 213 394 331 601 233 528 l 643 394 b 442 601 633 533 557 601 m 458 -17 b 94 339 256 -17 94 114 b 439 692 94 558 258 692 b 747 375 633 692 747 565 b 742 306 747 349 744 324 l 210 306 b 472 75 224 153 332 75 b 678 139 553 75 617 100 l 719 64 b 458 -17 653 19 567 -17 m 224 833 l 382 1028 l 496 1028 l 654 833 l 606 789 l 442 946 l 436 946 l 272 789 m 439 -299 b 347 -210 388 -299 347 -264 b 439 -121 347 -157 388 -121 b 531 -210 490 -121 531 -157 b 439 -299 531 -264 490 -299 "},"ḗ":{"ha":833,"x_min":0,"x_max":0,"o":"m 442 601 b 213 394 331 601 233 528 l 643 394 b 442 601 633 533 557 601 m 458 -17 b 94 339 256 -17 94 114 b 439 692 94 558 258 692 b 747 375 633 692 747 565 b 742 306 747 349 744 324 l 210 306 b 472 75 224 153 332 75 b 678 139 553 75 617 100 l 719 64 b 458 -17 653 19 567 -17 m 254 914 l 624 914 l 624 835 l 254 835 m 347 1033 l 535 1171 l 588 1103 l 392 979 "},"ǵ":{"ha":833,"x_min":0,"x_max":0,"o":"m 411 -311 b 100 -124 214 -311 100 -243 b 211 26 100 -69 139 -15 l 211 32 b 142 143 175 51 142 86 b 222 269 142 186 171 235 l 222 275 b 139 450 176 310 139 369 b 404 692 139 597 261 692 b 504 675 443 692 475 686 l 783 675 l 783 582 l 608 582 b 665 446 639 550 665 500 b 404 214 665 301 550 214 b 290 239 369 214 328 222 b 238 161 257 218 238 193 b 378 83 238 108 289 83 l 529 83 b 786 -75 703 83 786 39 b 411 -311 786 -201 640 -311 m 404 290 b 560 450 490 290 560 353 b 404 608 560 544 490 608 b 249 450 319 608 249 544 b 404 290 249 353 319 290 m 419 -228 b 674 -93 576 -228 674 -162 b 519 -11 674 -29 622 -11 l 388 -11 b 285 0 349 -11 314 -8 b 199 -112 221 -35 199 -74 b 419 -228 199 -183 275 -228 m 338 846 l 535 1079 l 615 1001 l 397 789 "},"ĝ":{"ha":833,"x_min":0,"x_max":0,"o":"m 411 -311 b 100 -124 214 -311 100 -243 b 211 26 100 -69 139 -15 l 211 32 b 142 143 175 51 142 86 b 222 269 142 186 171 235 l 222 275 b 139 450 176 310 139 369 b 404 692 139 597 261 692 b 504 675 443 692 475 686 l 783 675 l 783 582 l 608 582 b 665 446 639 550 665 500 b 404 214 665 301 550 214 b 290 239 369 214 328 222 b 238 161 257 218 238 193 b 378 83 238 108 289 83 l 529 83 b 786 -75 703 83 786 39 b 411 -311 786 -201 640 -311 m 404 290 b 560 450 490 290 560 353 b 404 608 560 544 490 608 b 249 450 319 608 249 544 b 404 290 249 353 319 290 m 419 -228 b 674 -93 576 -228 674 -162 b 519 -11 674 -29 622 -11 l 388 -11 b 285 0 349 -11 314 -8 b 199 -112 221 -35 199 -74 b 419 -228 199 -183 275 -228 m 211 833 l 369 1028 l 483 1028 l 642 833 l 593 789 l 429 946 l 424 946 l 260 789 "},"ğ":{"ha":833,"x_min":0,"x_max":0,"o":"m 411 -311 b 100 -124 214 -311 100 -243 b 211 26 100 -69 139 -15 l 211 32 b 142 143 175 51 142 86 b 222 269 142 186 171 235 l 222 275 b 139 450 176 310 139 369 b 404 692 139 597 261 692 b 504 675 443 692 475 686 l 783 675 l 783 582 l 608 582 b 665 446 639 550 665 500 b 404 214 665 301 550 214 b 290 239 369 214 328 222 b 238 161 257 218 238 193 b 378 83 238 108 289 83 l 529 83 b 786 -75 703 83 786 39 b 411 -311 786 -201 640 -311 m 404 290 b 560 450 490 290 560 353 b 404 608 560 544 490 608 b 249 450 319 608 249 544 b 404 290 249 353 319 290 m 419 -228 b 674 -93 576 -228 674 -162 b 519 -11 674 -29 622 -11 l 388 -11 b 285 0 349 -11 314 -8 b 199 -112 221 -35 199 -74 b 419 -228 199 -183 275 -228 m 426 793 b 210 1003 278 793 217 900 l 281 1014 b 426 869 292 943 336 869 b 572 1014 517 869 561 943 l 643 1003 b 426 793 636 900 575 793 "},"ġ":{"ha":833,"x_min":0,"x_max":0,"o":"m 411 -311 b 100 -124 214 -311 100 -243 b 211 26 100 -69 139 -15 l 211 32 b 142 143 175 51 142 86 b 222 269 142 186 171 235 l 222 275 b 139 450 176 310 139 369 b 404 692 139 597 261 692 b 504 675 443 692 475 686 l 783 675 l 783 582 l 608 582 b 665 446 639 550 665 500 b 404 214 665 301 550 214 b 290 239 369 214 328 222 b 238 161 257 218 238 193 b 378 83 238 108 289 83 l 529 83 b 786 -75 703 83 786 39 b 411 -311 786 -201 640 -311 m 404 290 b 560 450 490 290 560 353 b 404 608 560 544 490 608 b 249 450 319 608 249 544 b 404 290 249 353 319 290 m 419 -228 b 674 -93 576 -228 674 -162 b 519 -11 674 -29 622 -11 l 388 -11 b 285 0 349 -11 314 -8 b 199 -112 221 -35 199 -74 b 419 -228 199 -183 275 -228 m 426 817 b 335 906 375 817 335 851 b 426 994 335 958 375 994 b 518 906 478 994 518 958 b 426 817 518 851 478 817 "},"ģ":{"ha":833,"x_min":0,"x_max":0,"o":"m 411 -311 b 100 -124 214 -311 100 -243 b 211 26 100 -69 139 -15 l 211 32 b 142 143 175 51 142 86 b 222 269 142 186 171 235 l 222 275 b 139 450 176 310 139 369 b 404 692 139 597 261 692 b 504 675 443 692 475 686 l 783 675 l 783 582 l 608 582 b 665 446 639 550 665 500 b 404 214 665 301 550 214 b 290 239 369 214 328 222 b 238 161 257 218 238 193 b 378 83 238 108 289 83 l 529 83 b 786 -75 703 83 786 39 b 411 -311 786 -201 640 -311 m 404 290 b 560 450 490 290 560 353 b 404 608 560 544 490 608 b 249 450 319 608 249 544 b 404 290 249 353 319 290 m 419 -228 b 674 -93 576 -228 674 -162 b 519 -11 674 -29 622 -11 l 388 -11 b 285 0 349 -11 314 -8 b 199 -112 221 -35 199 -74 b 419 -228 199 -183 275 -228 m 481 799 b 318 906 360 813 318 843 b 547 1033 318 986 400 1025 l 558 976 b 407 910 442 969 407 949 b 506 851 407 874 442 857 l 481 799 "},"ǧ":{"ha":833,"x_min":0,"x_max":0,"o":"m 411 -311 b 100 -124 214 -311 100 -243 b 211 26 100 -69 139 -15 l 211 32 b 142 143 175 51 142 86 b 222 269 142 186 171 235 l 222 275 b 139 450 176 310 139 369 b 404 692 139 597 261 692 b 504 675 443 692 475 686 l 783 675 l 783 582 l 608 582 b 665 446 639 550 665 500 b 404 214 665 301 550 214 b 290 239 369 214 328 222 b 238 161 257 218 238 193 b 378 83 238 108 289 83 l 529 83 b 786 -75 703 83 786 39 b 411 -311 786 -201 640 -311 m 404 290 b 560 450 490 290 560 353 b 404 608 560 544 490 608 b 249 450 319 608 249 544 b 404 290 249 353 319 290 m 419 -228 b 674 -93 576 -228 674 -162 b 519 -11 674 -29 622 -11 l 388 -11 b 285 0 349 -11 314 -8 b 199 -112 221 -35 199 -74 b 419 -228 199 -183 275 -228 m 211 992 l 260 1036 l 424 879 l 429 879 l 593 1036 l 642 992 l 483 797 l 369 797 "},"ḡ":{"ha":833,"x_min":0,"x_max":0,"o":"m 411 -311 b 100 -124 214 -311 100 -243 b 211 26 100 -69 139 -15 l 211 32 b 142 143 175 51 142 86 b 222 269 142 186 171 235 l 222 275 b 139 450 176 310 139 369 b 404 692 139 597 261 692 b 504 675 443 692 475 686 l 783 675 l 783 582 l 608 582 b 665 446 639 550 665 500 b 404 214 665 301 550 214 b 290 239 369 214 328 222 b 238 161 257 218 238 193 b 378 83 238 108 289 83 l 529 83 b 786 -75 703 83 786 39 b 411 -311 786 -201 640 -311 m 404 290 b 560 450 490 290 560 353 b 404 608 560 544 490 608 b 249 450 319 608 249 544 b 404 290 249 353 319 290 m 419 -228 b 674 -93 576 -228 674 -162 b 519 -11 674 -29 622 -11 l 388 -11 b 285 0 349 -11 314 -8 b 199 -112 221 -35 199 -74 b 419 -228 199 -183 275 -228 m 242 914 l 611 914 l 611 835 l 242 835 "},"ĥ":{"ha":833,"x_min":0,"x_max":0,"o":"m 129 989 l 243 989 l 243 719 l 236 560 l 240 560 b 493 692 310 635 388 692 b 726 419 653 692 726 597 l 726 0 l 613 0 l 613 404 b 457 593 613 532 568 593 b 243 471 376 593 322 553 l 243 0 l 129 0 m -24 1090 l 122 1247 l 242 1247 l 388 1090 l 338 1054 l 185 1183 l 179 1183 l 26 1054 "},"ḧ":{"ha":833,"x_min":0,"x_max":0,"o":"m 129 989 l 243 989 l 243 719 l 236 560 l 240 560 b 493 692 310 635 388 692 b 726 419 653 692 726 597 l 726 0 l 613 0 l 613 404 b 457 593 613 532 568 593 b 243 471 376 593 322 553 l 243 0 l 129 0 m 56 1076 b -15 1147 15 1076 -15 1106 b 56 1217 -15 1189 15 1217 b 125 1147 96 1217 125 1189 b 56 1076 125 1106 96 1076 m 308 1076 b 239 1147 268 1076 239 1106 b 308 1217 239 1189 268 1217 b 379 1147 349 1217 379 1189 b 308 1076 379 1106 349 1076 "},"ḥ":{"ha":833,"x_min":0,"x_max":0,"o":"m 129 989 l 243 989 l 243 719 l 236 560 l 240 560 b 493 692 310 635 388 692 b 726 419 653 692 726 597 l 726 0 l 613 0 l 613 404 b 457 593 613 532 568 593 b 243 471 376 593 322 553 l 243 0 l 129 0 m 436 -299 b 344 -210 385 -299 344 -264 b 436 -121 344 -157 385 -121 b 528 -210 488 -121 528 -157 b 436 -299 528 -264 488 -299 "},"ẖ":{"ha":833,"x_min":0,"x_max":0,"o":"m 129 989 l 243 989 l 243 719 l 236 560 l 240 560 b 493 692 310 635 388 692 b 726 419 653 692 726 597 l 726 0 l 613 0 l 613 404 b 457 593 613 532 568 593 b 243 471 376 593 322 553 l 243 0 l 129 0 m 251 -157 l 621 -157 l 621 -236 l 251 -236 "},"ḩ":{"ha":833,"x_min":0,"x_max":0,"o":"m 129 989 l 243 989 l 243 719 l 236 560 l 240 560 b 493 692 310 635 388 692 b 726 419 653 692 726 597 l 726 0 l 613 0 l 613 404 b 457 593 613 532 568 593 b 243 471 376 593 322 553 l 243 0 l 225 0 l 193 -89 b 294 -187 257 -104 294 -131 b 65 -314 294 -268 213 -307 l 54 -258 b 206 -189 171 -250 206 -229 b 99 -122 206 -153 178 -133 l 150 0 l 129 0 "},"ḫ":{"ha":833,"x_min":0,"x_max":0,"o":"m 129 989 l 243 989 l 243 719 l 236 560 l 240 560 b 493 692 310 635 388 692 b 726 419 653 692 726 597 l 726 0 l 613 0 l 613 404 b 457 593 613 532 568 593 b 243 471 376 593 322 553 l 243 0 l 129 0 m 436 -321 b 219 -111 288 -321 226 -214 l 290 -100 b 436 -244 301 -171 346 -244 b 582 -100 526 -244 571 -171 l 653 -111 b 436 -321 646 -214 585 -321 "},"ħ":{"ha":833,"x_min":0,"x_max":0,"o":"m 129 781 l 28 781 l 28 861 l 129 869 l 129 989 l 243 989 l 243 869 l 539 869 l 539 781 l 243 781 l 243 692 l 236 532 l 240 532 b 493 664 310 607 388 664 b 726 392 653 664 726 569 l 726 0 l 613 0 l 613 376 b 457 565 613 504 568 565 b 243 443 376 565 322 525 l 243 0 l 129 0 "},"ì":{"ha":833,"x_min":0,"x_max":0,"o":"m 439 582 l 125 582 l 125 675 l 553 675 l 553 0 l 439 0 m 294 1001 l 375 1079 l 572 846 l 513 789 "},"í":{"ha":833,"x_min":0,"x_max":0,"o":"m 439 582 l 125 582 l 125 675 l 553 675 l 553 0 l 439 0 m 394 846 l 592 1079 l 672 1001 l 454 789 "},"î":{"ha":833,"x_min":0,"x_max":0,"o":"m 439 582 l 125 582 l 125 675 l 553 675 l 553 0 l 439 0 m 268 833 l 426 1028 l 540 1028 l 699 833 l 650 789 l 486 946 l 481 946 l 317 789 "},"ĩ":{"ha":833,"x_min":0,"x_max":0,"o":"m 439 582 l 125 582 l 125 675 l 553 675 l 553 0 l 439 0 m 583 801 b 385 918 485 801 449 918 b 319 808 343 918 324 874 l 243 813 b 383 1001 247 921 288 1001 b 583 885 482 1001 518 885 b 647 994 624 885 643 931 l 724 989 b 583 801 719 882 679 801 "},"ï":{"ha":833,"x_min":0,"x_max":0,"o":"m 439 582 l 125 582 l 125 675 l 553 675 l 553 0 l 439 0 m 349 817 b 272 894 304 817 272 850 b 349 972 272 938 304 972 b 425 894 393 972 425 938 b 349 817 425 850 393 817 m 618 817 b 542 894 574 817 542 850 b 618 972 542 938 574 972 b 694 894 663 972 694 938 b 618 817 694 850 663 817 "},"ī":{"ha":833,"x_min":0,"x_max":0,"o":"m 439 582 l 125 582 l 125 675 l 553 675 l 553 0 l 439 0 m 299 914 l 668 914 l 668 835 l 299 835 "},"ǐ":{"ha":833,"x_min":0,"x_max":0,"o":"m 439 582 l 125 582 l 125 675 l 553 675 l 553 0 l 439 0 m 268 992 l 317 1036 l 481 879 l 486 879 l 650 1036 l 699 992 l 540 797 l 426 797 "},"į":{"ha":833,"x_min":0,"x_max":0,"o":"m 490 -312 b 346 -183 408 -312 346 -271 b 465 0 346 -106 400 -44 l 439 0 l 439 582 l 125 582 l 125 675 l 553 675 l 553 -7 b 431 -161 471 -47 431 -106 b 514 -237 431 -212 469 -237 b 586 -208 543 -237 567 -225 l 619 -262 b 490 -312 586 -293 542 -312 m 483 817 b 392 906 432 817 392 851 b 483 994 392 958 432 994 b 575 906 535 994 575 958 b 483 817 575 851 535 817 "},"ỉ":{"ha":833,"x_min":0,"x_max":0,"o":"m 439 582 l 125 582 l 125 675 l 553 675 l 553 0 l 439 0 m 426 850 b 504 915 471 861 504 879 b 389 981 504 956 467 976 l 396 1056 b 594 925 522 1053 594 1007 b 439 794 594 844 519 810 "},"ị":{"ha":833,"x_min":0,"x_max":0,"o":"m 439 582 l 125 582 l 125 675 l 553 675 l 553 0 l 439 0 m 483 817 b 392 906 432 817 392 851 b 483 994 392 958 432 994 b 575 906 535 994 575 958 b 483 817 575 851 535 817 m 483 -299 b 392 -210 432 -299 392 -264 b 483 -121 392 -157 432 -121 b 575 -210 535 -121 575 -157 b 483 -299 575 -264 535 -299 "},"ĭ":{"ha":833,"x_min":0,"x_max":0,"o":"m 439 582 l 125 582 l 125 675 l 553 675 l 553 0 l 439 0 m 483 793 b 267 1003 335 793 274 900 l 338 1014 b 483 869 349 943 393 869 b 629 1014 574 869 618 943 l 700 1003 b 483 793 693 900 632 793 "},"ı":{"ha":833,"x_min":0,"x_max":0,"o":"m 439 582 l 125 582 l 125 675 l 553 675 l 553 0 l 439 0 "},"ĵ":{"ha":833,"x_min":0,"x_max":0,"o":"m 269 -301 b 76 -256 199 -301 131 -282 l 114 -171 b 268 -208 163 -194 217 -208 b 439 -25 403 -208 439 -140 l 439 582 l 125 582 l 125 675 l 553 675 l 553 -17 b 269 -301 553 -183 488 -301 m 268 833 l 426 1028 l 540 1028 l 699 833 l 650 789 l 486 946 l 481 946 l 317 789 "},"ķ":{"ha":833,"x_min":0,"x_max":0,"o":"m 147 989 l 261 989 l 261 319 l 267 319 l 631 675 l 761 675 l 492 410 l 797 0 l 669 0 l 421 340 l 261 183 l 261 0 l 147 0 m 333 -258 b 485 -192 450 -250 485 -229 b 386 -133 485 -156 450 -139 l 411 -81 b 574 -187 532 -94 574 -125 b 344 -314 574 -268 492 -307 "},"ḳ":{"ha":833,"x_min":0,"x_max":0,"o":"m 147 989 l 261 989 l 261 319 l 267 319 l 631 675 l 761 675 l 492 410 l 797 0 l 669 0 l 421 340 l 261 183 l 261 0 l 147 0 m 465 -299 b 374 -210 414 -299 374 -264 b 465 -121 374 -157 414 -121 b 557 -210 517 -121 557 -157 b 465 -299 557 -264 517 -299 "},"ḵ":{"ha":833,"x_min":0,"x_max":0,"o":"m 147 989 l 261 989 l 261 319 l 267 319 l 631 675 l 761 675 l 492 410 l 797 0 l 669 0 l 421 340 l 261 183 l 261 0 l 147 0 m 281 -157 l 650 -157 l 650 -236 l 281 -236 "},"ĸ":{"ha":833,"x_min":0,"x_max":0,"o":"m 147 675 l 261 675 l 261 319 l 265 321 l 631 675 l 761 675 l 492 407 l 797 0 l 669 0 l 421 333 l 261 181 l 261 0 l 147 0 "},"ĺ":{"ha":833,"x_min":0,"x_max":0,"o":"m 565 -17 b 343 226 422 -17 343 67 l 343 896 l 103 896 l 103 989 l 457 989 l 457 218 b 590 78 457 119 510 78 b 717 108 629 78 671 88 l 746 24 b 565 -17 683 -3 639 -17 m 306 1110 l 501 1288 l 567 1211 l 356 1051 "},"ľ":{"ha":833,"x_min":0,"x_max":0,"o":"m 565 -17 b 343 226 422 -17 343 67 l 343 896 l 103 896 l 103 989 l 457 989 l 457 218 b 590 78 457 119 510 78 b 717 108 629 78 671 88 l 746 24 b 565 -17 683 -3 639 -17 m 557 1133 l 660 1133 l 660 1021 l 640 761 l 561 761 "},"ļ":{"ha":833,"x_min":0,"x_max":0,"o":"m 565 -17 b 343 226 422 -17 343 67 l 343 896 l 103 896 l 103 989 l 457 989 l 457 218 b 590 78 457 119 510 78 b 717 108 629 78 671 88 l 746 24 b 565 -17 683 -3 639 -17 m 403 -258 b 554 -192 519 -250 554 -229 b 456 -133 554 -156 519 -139 l 481 -81 b 643 -187 601 -94 643 -125 b 414 -314 643 -268 561 -307 "},"ḷ":{"ha":833,"x_min":0,"x_max":0,"o":"m 565 -17 b 343 226 422 -17 343 67 l 343 896 l 103 896 l 103 989 l 457 989 l 457 218 b 590 78 457 119 510 78 b 717 108 629 78 671 88 l 746 24 b 565 -17 683 -3 639 -17 m 535 -299 b 443 -210 483 -299 443 -264 b 535 -121 443 -157 483 -121 b 626 -210 586 -121 626 -157 b 535 -299 626 -264 586 -299 "},"ḹ":{"ha":833,"x_min":0,"x_max":0,"o":"m 565 -17 b 343 226 422 -17 343 67 l 343 896 l 103 896 l 103 989 l 457 989 l 457 218 b 590 78 457 119 510 78 b 717 108 629 78 671 88 l 746 24 b 565 -17 683 -3 639 -17 m 210 1183 l 582 1183 l 582 1104 l 210 1104 m 535 -299 b 443 -210 483 -299 443 -264 b 535 -121 443 -157 483 -121 b 626 -210 586 -121 626 -157 b 535 -299 626 -264 586 -299 "},"ḻ":{"ha":833,"x_min":0,"x_max":0,"o":"m 565 -17 b 343 226 422 -17 343 67 l 343 896 l 103 896 l 103 989 l 457 989 l 457 218 b 590 78 457 119 510 78 b 717 108 629 78 671 88 l 746 24 b 565 -17 683 -3 639 -17 m 350 -157 l 719 -157 l 719 -236 l 350 -236 "},"ł":{"ha":833,"x_min":0,"x_max":0,"o":"m 565 -17 b 343 226 422 -17 343 67 l 343 465 l 193 376 l 153 451 l 343 563 l 343 896 l 103 896 l 103 989 l 457 989 l 457 615 l 663 732 l 701 657 l 457 518 l 457 218 b 590 78 457 119 510 78 b 717 108 629 78 671 88 l 746 24 b 565 -17 683 -3 639 -17 "},"ŀ":{"ha":833,"x_min":0,"x_max":0,"o":"m 511 -17 b 289 226 368 -17 289 67 l 289 896 l 49 896 l 49 989 l 403 989 l 403 218 b 536 78 403 119 456 78 b 663 108 575 78 617 88 l 692 24 b 511 -17 629 -3 585 -17 m 790 396 b 699 485 739 396 699 431 b 790 574 699 538 739 574 b 882 485 842 574 882 538 b 790 396 882 431 842 396 "},"ḿ":{"ha":833,"x_min":0,"x_max":0,"o":"m 81 675 l 172 675 l 182 586 l 185 586 b 339 692 219 649 261 692 b 467 575 406 692 447 653 b 625 692 506 647 547 692 b 775 483 719 692 775 618 l 775 0 l 661 0 l 661 475 b 589 593 661 553 639 593 b 481 489 542 593 517 558 l 481 0 l 375 0 l 375 475 b 306 593 375 553 356 593 b 194 489 258 593 228 558 l 194 0 l 81 0 m 349 846 l 546 1079 l 626 1001 l 408 789 "},"ṁ":{"ha":833,"x_min":0,"x_max":0,"o":"m 81 675 l 172 675 l 182 586 l 185 586 b 339 692 219 649 261 692 b 467 575 406 692 447 653 b 625 692 506 647 547 692 b 775 483 719 692 775 618 l 775 0 l 661 0 l 661 475 b 589 593 661 553 639 593 b 481 489 542 593 517 558 l 481 0 l 375 0 l 375 475 b 306 593 375 553 356 593 b 194 489 258 593 228 558 l 194 0 l 81 0 m 438 817 b 346 906 386 817 346 851 b 438 994 346 958 386 994 b 529 906 489 994 529 958 b 438 817 529 851 489 817 "},"ṃ":{"ha":833,"x_min":0,"x_max":0,"o":"m 81 675 l 172 675 l 182 586 l 185 586 b 339 692 219 649 261 692 b 467 575 406 692 447 653 b 625 692 506 647 547 692 b 775 483 719 692 775 618 l 775 0 l 661 0 l 661 475 b 589 593 661 553 639 593 b 481 489 542 593 517 558 l 481 0 l 375 0 l 375 475 b 306 593 375 553 356 593 b 194 489 258 593 228 558 l 194 0 l 81 0 m 428 -299 b 336 -210 376 -299 336 -264 b 428 -121 336 -157 376 -121 b 519 -210 479 -121 519 -157 b 428 -299 519 -264 479 -299 "},"ń":{"ha":833,"x_min":0,"x_max":0,"o":"m 129 675 l 224 675 l 233 560 l 239 560 b 493 692 310 635 388 692 b 726 419 653 692 726 597 l 726 0 l 613 0 l 613 404 b 457 593 613 532 568 593 b 243 471 376 593 322 553 l 243 0 l 129 0 m 353 846 l 550 1079 l 631 1001 l 413 789 "},"ǹ":{"ha":833,"x_min":0,"x_max":0,"o":"m 129 675 l 224 675 l 233 560 l 239 560 b 493 692 310 635 388 692 b 726 419 653 692 726 597 l 726 0 l 613 0 l 613 404 b 457 593 613 532 568 593 b 243 471 376 593 322 553 l 243 0 l 129 0 m 253 1001 l 333 1079 l 531 846 l 471 789 "},"ň":{"ha":833,"x_min":0,"x_max":0,"o":"m 129 675 l 224 675 l 233 560 l 239 560 b 493 692 310 635 388 692 b 726 419 653 692 726 597 l 726 0 l 613 0 l 613 404 b 457 593 613 532 568 593 b 243 471 376 593 322 553 l 243 0 l 129 0 m 226 992 l 275 1036 l 439 879 l 444 879 l 608 1036 l 657 992 l 499 797 l 385 797 "},"ñ":{"ha":833,"x_min":0,"x_max":0,"o":"m 129 675 l 224 675 l 233 560 l 239 560 b 493 692 310 635 388 692 b 726 419 653 692 726 597 l 726 0 l 613 0 l 613 404 b 457 593 613 532 568 593 b 243 471 376 593 322 553 l 243 0 l 129 0 m 542 801 b 343 918 443 801 407 918 b 278 808 301 918 282 874 l 201 813 b 342 1001 206 921 246 1001 b 542 885 440 1001 476 885 b 606 994 582 885 601 931 l 682 989 b 542 801 678 882 638 801 "},"ņ":{"ha":833,"x_min":0,"x_max":0,"o":"m 129 675 l 224 675 l 233 560 l 239 560 b 493 692 310 635 388 692 b 726 419 653 692 726 597 l 726 0 l 613 0 l 613 404 b 457 593 613 532 568 593 b 243 471 376 593 322 553 l 243 0 l 129 0 m 303 -258 b 454 -192 419 -250 454 -229 b 356 -133 454 -156 419 -139 l 381 -81 b 543 -187 501 -94 543 -125 b 314 -314 543 -268 461 -307 "},"ṅ":{"ha":833,"x_min":0,"x_max":0,"o":"m 129 675 l 224 675 l 233 560 l 239 560 b 493 692 310 635 388 692 b 726 419 653 692 726 597 l 726 0 l 613 0 l 613 404 b 457 593 613 532 568 593 b 243 471 376 593 322 553 l 243 0 l 129 0 m 442 817 b 350 906 390 817 350 851 b 442 994 350 958 390 994 b 533 906 493 994 533 958 b 442 817 533 851 493 817 "},"ṇ":{"ha":833,"x_min":0,"x_max":0,"o":"m 129 675 l 224 675 l 233 560 l 239 560 b 493 692 310 635 388 692 b 726 419 653 692 726 597 l 726 0 l 613 0 l 613 404 b 457 593 613 532 568 593 b 243 471 376 593 322 553 l 243 0 l 129 0 m 435 -299 b 343 -210 383 -299 343 -264 b 435 -121 343 -157 383 -121 b 526 -210 486 -121 526 -157 b 435 -299 526 -264 486 -299 "},"ṉ":{"ha":833,"x_min":0,"x_max":0,"o":"m 129 675 l 224 675 l 233 560 l 239 560 b 493 692 310 635 388 692 b 726 419 653 692 726 597 l 726 0 l 613 0 l 613 404 b 457 593 613 532 568 593 b 243 471 376 593 322 553 l 243 0 l 129 0 m 250 -157 l 619 -157 l 619 -236 l 250 -236 "},"ŉ":{"ha":833,"x_min":0,"x_max":0,"o":"m 272 675 l 367 675 l 376 569 l 382 569 b 615 692 447 638 517 692 b 831 428 761 692 831 600 l 831 0 l 715 0 l 715 413 b 579 593 715 535 675 593 b 386 481 507 593 458 554 l 386 0 l 272 0 m -31 553 b 114 772 56 601 108 675 b 78 764 103 767 90 764 b -21 863 19 764 -21 804 b 82 971 -21 926 22 971 b 207 803 156 971 207 908 b 8 486 207 664 132 550 "},"ò":{"ha":833,"x_min":0,"x_max":0,"o":"m 417 -17 b 83 336 239 -17 83 113 b 417 692 83 563 239 692 b 750 336 594 692 750 563 b 417 -17 750 113 594 -17 m 417 78 b 632 336 546 78 632 182 b 417 597 632 492 546 597 b 201 336 288 597 201 492 b 417 78 201 182 288 78 m 228 1001 l 308 1079 l 506 846 l 446 789 "},"ó":{"ha":833,"x_min":0,"x_max":0,"o":"m 417 -17 b 83 336 239 -17 83 113 b 417 692 83 563 239 692 b 750 336 594 692 750 563 b 417 -17 750 113 594 -17 m 417 78 b 632 336 546 78 632 182 b 417 597 632 492 546 597 b 201 336 288 597 201 492 b 417 78 201 182 288 78 m 328 846 l 525 1079 l 606 1001 l 388 789 "},"ô":{"ha":833,"x_min":0,"x_max":0,"o":"m 417 -17 b 83 336 239 -17 83 113 b 417 692 83 563 239 692 b 750 336 594 692 750 563 b 417 -17 750 113 594 -17 m 417 78 b 632 336 546 78 632 182 b 417 597 632 492 546 597 b 201 336 288 597 201 492 b 417 78 201 182 288 78 m 201 833 l 360 1028 l 474 1028 l 632 833 l 583 789 l 419 946 l 414 946 l 250 789 "},"õ":{"ha":833,"x_min":0,"x_max":0,"o":"m 417 -17 b 83 336 239 -17 83 113 b 417 692 83 563 239 692 b 750 336 594 692 750 563 b 417 -17 750 113 594 -17 m 417 78 b 632 336 546 78 632 182 b 417 597 632 492 546 597 b 201 336 288 597 201 492 b 417 78 201 182 288 78 m 517 801 b 318 918 418 801 382 918 b 253 808 276 918 257 874 l 176 813 b 317 1001 181 921 221 1001 b 517 885 415 1001 451 885 b 581 994 557 885 576 931 l 657 989 b 517 801 653 882 613 801 "},"ö":{"ha":833,"x_min":0,"x_max":0,"o":"m 417 -17 b 83 336 239 -17 83 113 b 417 692 83 563 239 692 b 750 336 594 692 750 563 b 417 -17 750 113 594 -17 m 417 78 b 632 336 546 78 632 182 b 417 597 632 492 546 597 b 201 336 288 597 201 492 b 417 78 201 182 288 78 m 282 817 b 206 894 238 817 206 850 b 282 972 206 938 238 972 b 358 894 326 972 358 938 b 282 817 358 850 326 817 m 551 817 b 475 894 507 817 475 850 b 551 972 475 938 507 972 b 628 894 596 972 628 938 b 551 817 628 850 596 817 "},"ō":{"ha":833,"x_min":0,"x_max":0,"o":"m 417 -17 b 83 336 239 -17 83 113 b 417 692 83 563 239 692 b 750 336 594 692 750 563 b 417 -17 750 113 594 -17 m 417 78 b 632 336 546 78 632 182 b 417 597 632 492 546 597 b 201 336 288 597 201 492 b 417 78 201 182 288 78 m 232 914 l 601 914 l 601 835 l 232 835 "},"ő":{"ha":833,"x_min":0,"x_max":0,"o":"m 417 -17 b 83 336 239 -17 83 113 b 417 692 83 563 239 692 b 750 336 594 692 750 563 b 417 -17 750 113 594 -17 m 417 78 b 632 336 546 78 632 182 b 417 597 632 492 546 597 b 201 336 288 597 201 492 b 417 78 201 182 288 78 m 274 818 l 394 1057 l 475 1018 l 338 789 m 483 818 l 604 1057 l 685 1018 l 547 789 "},"ǒ":{"ha":833,"x_min":0,"x_max":0,"o":"m 417 -17 b 83 336 239 -17 83 113 b 417 692 83 563 239 692 b 750 336 594 692 750 563 b 417 -17 750 113 594 -17 m 417 78 b 632 336 546 78 632 182 b 417 597 632 492 546 597 b 201 336 288 597 201 492 b 417 78 201 182 288 78 m 201 992 l 250 1036 l 414 879 l 419 879 l 583 1036 l 632 992 l 474 797 l 360 797 "},"ǫ":{"ha":833,"x_min":0,"x_max":0,"o":"m 450 -312 b 310 -183 371 -312 310 -271 b 404 -15 310 -111 356 -54 b 83 336 219 -7 83 128 b 417 692 83 563 239 692 b 750 336 594 692 750 563 b 513 -4 750 149 656 58 b 394 -161 438 -37 394 -104 b 474 -237 394 -214 435 -237 b 549 -208 508 -237 532 -224 l 582 -262 b 450 -312 550 -292 507 -312 m 417 76 b 632 336 546 76 632 181 b 417 597 632 492 546 597 b 201 336 288 597 201 492 b 417 76 201 181 288 76 "},"ọ":{"ha":833,"x_min":0,"x_max":0,"o":"m 417 -17 b 83 336 239 -17 83 113 b 417 692 83 563 239 692 b 750 336 594 692 750 563 b 417 -17 750 113 594 -17 m 417 78 b 632 336 546 78 632 182 b 417 597 632 492 546 597 b 201 336 288 597 201 492 b 417 78 201 182 288 78 m 417 -299 b 325 -210 365 -299 325 -264 b 417 -121 325 -157 365 -121 b 508 -210 468 -121 508 -157 b 417 -299 508 -264 468 -299 "},"ỏ":{"ha":833,"x_min":0,"x_max":0,"o":"m 417 -17 b 83 336 239 -17 83 113 b 417 692 83 563 239 692 b 750 336 594 692 750 563 b 417 -17 750 113 594 -17 m 417 78 b 632 336 546 78 632 182 b 417 597 632 492 546 597 b 201 336 288 597 201 492 b 417 78 201 182 288 78 m 360 850 b 438 915 404 861 438 879 b 322 981 438 956 400 976 l 329 1056 b 528 925 456 1053 528 1007 b 372 794 528 844 453 810 "},"ố":{"ha":833,"x_min":0,"x_max":0,"o":"m 417 -17 b 83 336 239 -17 83 113 b 417 692 83 563 239 692 b 750 336 594 692 750 563 b 417 -17 750 113 594 -17 m 417 78 b 632 336 546 78 632 182 b 417 597 632 492 546 597 b 201 336 288 597 201 492 b 417 78 201 182 288 78 m 231 839 l 369 967 l 464 967 l 603 839 l 563 792 l 419 892 l 414 892 l 271 792 m 554 924 l 675 1090 l 743 1043 l 603 885 "},"ồ":{"ha":833,"x_min":0,"x_max":0,"o":"m 417 -17 b 83 336 239 -17 83 113 b 417 692 83 563 239 692 b 750 336 594 692 750 563 b 417 -17 750 113 594 -17 m 417 78 b 632 336 546 78 632 182 b 417 597 632 492 546 597 b 201 336 288 597 201 492 b 417 78 201 182 288 78 m 231 839 l 369 967 l 464 967 l 603 839 l 563 792 l 419 892 l 414 892 l 271 792 m 74 1040 l 140 1090 l 279 928 l 231 885 "},"ổ":{"ha":833,"x_min":0,"x_max":0,"o":"m 417 -17 b 83 336 239 -17 83 113 b 417 692 83 563 239 692 b 750 336 594 692 750 563 b 417 -17 750 113 594 -17 m 417 78 b 632 336 546 78 632 182 b 417 597 632 492 546 597 b 201 336 288 597 201 492 b 417 78 201 182 288 78 m 231 839 l 369 967 l 464 967 l 603 839 l 563 792 l 419 892 l 414 892 l 271 792 m 565 931 b 624 985 600 940 624 956 b 528 1042 624 1021 596 1039 l 538 1099 b 707 997 646 1096 707 1063 b 578 882 707 924 643 897 "},"ỗ":{"ha":833,"x_min":0,"x_max":0,"o":"m 417 -17 b 83 336 239 -17 83 113 b 417 692 83 563 239 692 b 750 336 594 692 750 563 b 417 -17 750 113 594 -17 m 417 78 b 632 336 546 78 632 182 b 417 597 632 492 546 597 b 201 336 288 597 201 492 b 417 78 201 182 288 78 m 231 839 l 369 961 l 464 961 l 603 839 l 563 792 l 419 888 l 414 888 l 271 792 m 507 986 b 332 1044 426 986 385 1044 b 286 986 304 1044 293 1026 l 226 992 b 326 1115 233 1064 261 1115 b 501 1057 408 1115 449 1057 b 547 1115 529 1057 540 1075 l 607 1110 b 507 986 600 1039 572 986 "},"ộ":{"ha":833,"x_min":0,"x_max":0,"o":"m 417 -17 b 83 336 239 -17 83 113 b 417 692 83 563 239 692 b 750 336 594 692 750 563 b 417 -17 750 113 594 -17 m 417 78 b 632 336 546 78 632 182 b 417 597 632 492 546 597 b 201 336 288 597 201 492 b 417 78 201 182 288 78 m 201 833 l 360 1028 l 474 1028 l 632 833 l 583 789 l 419 946 l 414 946 l 250 789 m 417 -299 b 325 -210 365 -299 325 -264 b 417 -121 325 -157 365 -121 b 508 -210 468 -121 508 -157 b 417 -299 508 -264 468 -299 "},"ŏ":{"ha":833,"x_min":0,"x_max":0,"o":"m 417 -17 b 83 336 239 -17 83 113 b 417 692 83 563 239 692 b 750 336 594 692 750 563 b 417 -17 750 113 594 -17 m 417 78 b 632 336 546 78 632 182 b 417 597 632 492 546 597 b 201 336 288 597 201 492 b 417 78 201 182 288 78 m 417 793 b 200 1003 268 793 207 900 l 271 1014 b 417 869 282 943 326 869 b 563 1014 507 869 551 943 l 633 1003 b 417 793 626 900 565 793 "},"ṓ":{"ha":833,"x_min":0,"x_max":0,"o":"m 417 -17 b 83 336 239 -17 83 113 b 417 692 83 563 239 692 b 750 336 594 692 750 563 b 417 -17 750 113 594 -17 m 417 78 b 632 336 546 78 632 182 b 417 597 632 492 546 597 b 201 336 288 597 201 492 b 417 78 201 182 288 78 m 232 914 l 601 914 l 601 835 l 232 835 m 325 1033 l 513 1171 l 565 1103 l 369 979 "},"ơ":{"ha":833,"x_min":0,"x_max":0,"o":"m 417 -17 b 83 336 239 -17 83 113 b 417 692 83 563 239 692 b 557 663 467 692 514 682 b 676 800 633 679 676 721 b 656 881 676 828 669 858 l 744 922 b 776 808 764 890 776 850 b 628 618 776 701 708 644 b 750 336 701 558 750 463 b 417 -17 750 113 594 -17 m 417 78 b 632 336 546 78 632 182 b 417 597 632 492 546 597 b 201 336 288 597 201 492 b 417 78 201 182 288 78 "},"ớ":{"ha":833,"x_min":0,"x_max":0,"o":"m 417 -17 b 83 336 239 -17 83 113 b 417 692 83 563 239 692 b 557 663 467 692 514 682 b 676 800 633 679 676 721 b 656 881 676 828 669 858 l 744 922 b 776 808 764 890 776 850 b 628 618 776 701 708 644 b 750 336 701 558 750 463 b 417 -17 750 113 594 -17 m 417 78 b 632 336 546 78 632 182 b 417 597 632 492 546 597 b 201 336 288 597 201 492 b 417 78 201 182 288 78 m 328 846 l 525 1079 l 606 1001 l 388 789 "},"ờ":{"ha":833,"x_min":0,"x_max":0,"o":"m 417 -17 b 83 336 239 -17 83 113 b 417 692 83 563 239 692 b 557 663 467 692 514 682 b 676 800 633 679 676 721 b 656 881 676 828 669 858 l 744 922 b 776 808 764 890 776 850 b 628 618 776 701 708 644 b 750 336 701 558 750 463 b 417 -17 750 113 594 -17 m 417 78 b 632 336 546 78 632 182 b 417 597 632 492 546 597 b 201 336 288 597 201 492 b 417 78 201 182 288 78 m 228 1001 l 308 1079 l 506 846 l 446 789 "},"ở":{"ha":833,"x_min":0,"x_max":0,"o":"m 417 -17 b 83 336 239 -17 83 113 b 417 692 83 563 239 692 b 557 663 467 692 514 682 b 676 800 633 679 676 721 b 656 881 676 828 669 858 l 744 922 b 776 808 764 890 776 850 b 628 618 776 701 708 644 b 750 336 701 558 750 463 b 417 -17 750 113 594 -17 m 360 850 b 438 915 404 861 438 879 b 322 981 438 956 400 976 l 329 1056 b 528 925 456 1053 528 1007 b 372 794 528 844 453 810 m 417 78 b 632 336 546 78 632 182 b 417 597 632 492 546 597 b 201 336 288 597 201 492 b 417 78 201 182 288 78 "},"ỡ":{"ha":833,"x_min":0,"x_max":0,"o":"m 417 -17 b 83 336 239 -17 83 113 b 417 692 83 563 239 692 b 557 663 467 692 514 682 b 676 800 633 679 676 721 b 656 881 676 828 669 858 l 744 922 b 776 808 764 890 776 850 b 628 618 776 701 708 644 b 750 336 701 558 750 463 b 417 -17 750 113 594 -17 m 417 78 b 632 336 546 78 632 182 b 417 597 632 492 546 597 b 201 336 288 597 201 492 b 417 78 201 182 288 78 m 489 801 b 290 918 390 801 354 918 b 225 808 249 918 229 874 l 149 813 b 289 1001 153 921 193 1001 b 489 885 388 1001 424 885 b 553 994 529 885 549 931 l 629 989 b 489 801 625 882 585 801 "},"ợ":{"ha":833,"x_min":0,"x_max":0,"o":"m 417 -17 b 83 336 239 -17 83 113 b 417 692 83 563 239 692 b 557 663 467 692 514 682 b 676 800 633 679 676 721 b 656 881 676 828 669 858 l 744 922 b 776 808 764 890 776 850 b 628 618 776 701 708 644 b 750 336 701 558 750 463 b 417 -17 750 113 594 -17 m 417 -299 b 325 -210 365 -299 325 -264 b 417 -121 325 -157 365 -121 b 508 -210 468 -121 508 -157 b 417 -299 508 -264 468 -299 m 417 78 b 632 336 546 78 632 182 b 417 597 632 492 546 597 b 201 336 288 597 201 492 b 417 78 201 182 288 78 "},"ø":{"ha":833,"x_min":0,"x_max":0,"o":"m 201 336 b 233 189 201 281 213 231 l 544 554 b 417 600 511 583 467 600 b 201 336 288 600 201 492 m 86 17 l 160 103 b 83 336 113 161 83 240 b 417 692 83 563 239 692 b 611 632 488 692 556 671 l 683 717 l 747 658 l 674 572 b 750 336 721 514 750 433 b 417 -17 750 113 594 -17 b 222 43 346 -17 278 4 l 150 -42 m 417 75 b 632 336 546 75 632 182 b 600 485 632 393 621 444 l 288 119 b 417 75 322 92 367 75 "},"ǿ":{"ha":833,"x_min":0,"x_max":0,"o":"m 201 336 b 233 189 201 281 213 231 l 544 554 b 417 600 511 583 467 600 b 201 336 288 600 201 492 m 86 17 l 160 103 b 83 336 113 161 83 240 b 417 692 83 563 239 692 b 611 632 488 692 556 671 l 683 717 l 747 658 l 674 572 b 750 336 721 514 750 433 b 417 -17 750 113 594 -17 b 222 43 346 -17 278 4 l 150 -42 m 328 846 l 525 1079 l 606 1001 l 388 789 m 417 75 b 632 336 546 75 632 182 b 600 485 632 393 621 444 l 288 119 b 417 75 322 92 367 75 "},"œ":{"ha":833,"x_min":0,"x_max":0,"o":"m 261 78 b 394 338 342 78 394 183 b 261 597 394 492 342 597 b 122 336 171 597 122 493 b 261 78 122 182 171 78 m 619 601 b 483 394 547 601 493 532 l 736 394 b 619 601 732 533 693 601 m 254 -17 b 15 336 118 -17 15 113 b 256 692 15 563 119 692 b 438 525 340 692 401 639 b 629 692 474 639 543 692 b 829 383 763 692 829 550 b 824 306 829 357 826 329 l 482 306 b 647 76 490 151 557 76 b 767 121 694 76 731 96 l 808 43 b 643 -17 765 10 707 -17 b 439 146 553 -17 476 33 b 254 -17 400 33 339 -17 "},"ŕ":{"ha":833,"x_min":0,"x_max":0,"o":"m 203 675 l 297 675 l 307 515 l 311 515 b 613 692 382 624 488 692 b 746 664 663 692 704 685 l 719 565 b 594 589 672 582 647 589 b 317 396 493 589 397 536 l 317 0 l 203 0 m 392 846 l 589 1079 l 669 1001 l 451 789 "},"ŗ":{"ha":833,"x_min":0,"x_max":0,"o":"m 203 675 l 297 675 l 307 515 l 311 515 b 613 692 382 624 488 692 b 746 664 663 692 704 685 l 719 565 b 594 589 672 582 647 589 b 317 396 493 589 397 536 l 317 0 l 203 0 m 142 -258 b 293 -192 258 -250 293 -229 b 194 -133 293 -156 258 -139 l 219 -81 b 382 -187 340 -94 382 -125 b 153 -314 382 -268 300 -307 "},"ř":{"ha":833,"x_min":0,"x_max":0,"o":"m 203 675 l 297 675 l 307 515 l 311 515 b 613 692 382 624 488 692 b 746 664 663 692 704 685 l 719 565 b 594 589 672 582 647 589 b 317 396 493 589 397 536 l 317 0 l 203 0 m 265 992 l 314 1036 l 478 879 l 483 879 l 647 1036 l 696 992 l 538 797 l 424 797 "},"ṙ":{"ha":833,"x_min":0,"x_max":0,"o":"m 203 675 l 297 675 l 307 515 l 311 515 b 613 692 382 624 488 692 b 746 664 663 692 704 685 l 719 565 b 594 589 672 582 647 589 b 317 396 493 589 397 536 l 317 0 l 203 0 m 481 817 b 389 906 429 817 389 851 b 481 994 389 958 429 994 b 572 906 532 994 572 958 b 481 817 572 851 532 817 "},"ṛ":{"ha":833,"x_min":0,"x_max":0,"o":"m 203 675 l 297 675 l 307 515 l 311 515 b 613 692 382 624 488 692 b 746 664 663 692 704 685 l 719 565 b 594 589 672 582 647 589 b 317 396 493 589 397 536 l 317 0 l 203 0 m 274 -299 b 182 -210 222 -299 182 -264 b 274 -121 182 -157 222 -121 b 365 -210 325 -121 365 -157 b 274 -299 365 -264 325 -299 "},"ṝ":{"ha":833,"x_min":0,"x_max":0,"o":"m 203 675 l 297 675 l 307 515 l 311 515 b 613 692 382 624 488 692 b 746 664 663 692 704 685 l 719 565 b 594 589 672 582 647 589 b 317 396 493 589 397 536 l 317 0 l 203 0 m 296 914 l 665 914 l 665 835 l 296 835 m 274 -299 b 182 -210 222 -299 182 -264 b 274 -121 182 -157 222 -121 b 365 -210 325 -121 365 -157 b 274 -299 365 -264 325 -299 "},"ṟ":{"ha":833,"x_min":0,"x_max":0,"o":"m 203 675 l 297 675 l 307 515 l 311 515 b 613 692 382 624 488 692 b 746 664 663 692 704 685 l 719 565 b 594 589 672 582 647 589 b 317 396 493 589 397 536 l 317 0 l 203 0 m 89 -157 l 458 -157 l 458 -236 l 89 -236 "},"ś":{"ha":833,"x_min":0,"x_max":0,"o":"m 431 -17 b 99 89 299 -17 181 32 l 151 164 b 444 72 229 108 319 72 b 615 178 558 72 615 121 b 404 303 615 229 588 265 b 140 500 229 339 140 399 b 421 692 140 608 236 692 b 693 606 524 692 626 651 l 638 532 b 411 603 575 575 497 603 b 256 506 296 603 256 557 b 451 393 256 447 314 422 b 731 185 676 344 731 288 b 431 -17 731 75 624 -17 m 332 846 l 529 1079 l 610 1001 l 392 789 "},"ŝ":{"ha":833,"x_min":0,"x_max":0,"o":"m 431 -17 b 99 89 299 -17 181 32 l 151 164 b 444 72 229 108 319 72 b 615 178 558 72 615 121 b 404 303 615 229 588 265 b 140 500 229 339 140 399 b 421 692 140 608 236 692 b 693 606 524 692 626 651 l 638 532 b 411 603 575 575 497 603 b 256 506 296 603 256 557 b 451 393 256 447 314 422 b 731 185 676 344 731 288 b 431 -17 731 75 624 -17 m 206 833 l 364 1028 l 478 1028 l 636 833 l 588 789 l 424 946 l 418 946 l 254 789 "},"š":{"ha":833,"x_min":0,"x_max":0,"o":"m 431 -17 b 99 89 299 -17 181 32 l 151 164 b 444 72 229 108 319 72 b 615 178 558 72 615 121 b 404 303 615 229 588 265 b 140 500 229 339 140 399 b 421 692 140 608 236 692 b 693 606 524 692 626 651 l 638 532 b 411 603 575 575 497 603 b 256 506 296 603 256 557 b 451 393 256 447 314 422 b 731 185 676 344 731 288 b 431 -17 731 75 624 -17 m 206 992 l 254 1036 l 418 879 l 424 879 l 588 1036 l 636 992 l 478 797 l 364 797 "},"ṧ":{"ha":833,"x_min":0,"x_max":0,"o":"m 431 -17 b 99 89 299 -17 181 32 l 151 164 b 444 72 229 108 319 72 b 615 178 558 72 615 121 b 404 303 615 229 588 265 b 140 500 229 339 140 399 b 421 692 140 608 236 692 b 693 606 524 692 626 651 l 638 532 b 411 603 575 575 497 603 b 256 506 296 603 256 557 b 451 393 256 447 314 422 b 731 185 676 344 731 288 b 431 -17 731 75 624 -17 m 421 974 b 343 1051 376 974 343 1004 b 421 1129 343 1099 376 1129 b 499 1051 465 1129 499 1099 b 421 974 499 1004 465 974 m 206 992 l 249 1031 l 418 871 l 424 871 l 593 1031 l 636 992 l 478 797 l 364 797 "},"ş":{"ha":833,"x_min":0,"x_max":0,"o":"m 304 -258 b 456 -189 421 -250 456 -229 b 349 -122 456 -153 428 -133 l 393 -15 b 99 89 276 -7 172 38 l 151 164 b 444 72 229 108 319 72 b 615 178 558 72 615 121 b 404 303 615 229 588 265 b 140 500 229 339 140 399 b 421 692 140 608 236 692 b 693 606 524 692 626 651 l 638 532 b 411 603 575 575 497 603 b 256 506 296 603 256 557 b 451 393 256 447 314 422 b 731 185 676 344 731 288 b 469 -15 731 82 638 -4 l 443 -89 b 544 -187 507 -104 544 -131 b 315 -314 544 -268 463 -307 "},"ș":{"ha":833,"x_min":0,"x_max":0,"o":"m 431 -17 b 99 89 299 -17 181 32 l 151 164 b 444 72 229 108 319 72 b 615 178 558 72 615 121 b 404 303 615 229 588 265 b 140 500 229 339 140 399 b 421 692 140 608 236 692 b 693 606 524 692 626 651 l 638 532 b 411 603 575 575 497 603 b 256 506 296 603 256 557 b 451 393 256 447 314 422 b 731 185 676 344 731 288 b 431 -17 731 75 624 -17 m 297 -258 b 449 -192 414 -250 449 -229 b 350 -133 449 -156 414 -139 l 375 -81 b 538 -187 496 -94 538 -125 b 308 -314 538 -268 456 -307 "},"ṡ":{"ha":833,"x_min":0,"x_max":0,"o":"m 431 -17 b 99 89 299 -17 181 32 l 151 164 b 444 72 229 108 319 72 b 615 178 558 72 615 121 b 404 303 615 229 588 265 b 140 500 229 339 140 399 b 421 692 140 608 236 692 b 693 606 524 692 626 651 l 638 532 b 411 603 575 575 497 603 b 256 506 296 603 256 557 b 451 393 256 447 314 422 b 731 185 676 344 731 288 b 431 -17 731 75 624 -17 m 421 817 b 329 906 369 817 329 851 b 421 994 329 958 369 994 b 513 906 472 994 513 958 b 421 817 513 851 472 817 "},"ṣ":{"ha":833,"x_min":0,"x_max":0,"o":"m 431 -17 b 99 89 299 -17 181 32 l 151 164 b 444 72 229 108 319 72 b 615 178 558 72 615 121 b 404 303 615 229 588 265 b 140 500 229 339 140 399 b 421 692 140 608 236 692 b 693 606 524 692 626 651 l 638 532 b 411 603 575 575 497 603 b 256 506 296 603 256 557 b 451 393 256 447 314 422 b 731 185 676 344 731 288 b 431 -17 731 75 624 -17 m 429 -299 b 338 -210 378 -299 338 -264 b 429 -121 338 -157 378 -121 b 521 -210 481 -121 521 -157 b 429 -299 521 -264 481 -299 "},"ß":{"ha":833,"x_min":0,"x_max":0,"o":"m 557 -17 b 357 46 479 -17 415 7 l 403 126 b 554 72 454 90 500 72 b 675 181 632 72 675 124 b 394 506 675 342 394 313 b 519 793 394 632 519 675 b 400 913 519 861 476 913 b 236 704 299 913 236 842 l 236 0 l 122 0 l 122 721 b 401 1006 122 892 228 1006 b 629 800 549 1006 629 910 b 504 519 629 661 504 615 b 783 190 504 385 783 410 b 557 -17 783 74 694 -17 "},"ſ":{"ha":833,"x_min":0,"x_max":0,"o":"m 336 582 l 143 582 l 143 668 l 336 675 l 336 732 b 608 1006 336 897 422 1006 b 803 967 675 1006 739 993 l 776 881 b 619 913 721 906 678 913 b 449 736 499 913 449 846 l 449 0 l 336 0 "},"ť":{"ha":833,"x_min":0,"x_max":0,"o":"m 547 -17 b 286 263 350 -17 286 96 l 286 582 l 96 582 l 96 668 l 290 675 l 306 892 l 400 892 l 400 675 l 732 675 l 732 582 l 400 582 l 400 261 b 571 76 400 140 440 76 b 733 107 635 76 685 89 l 758 24 b 547 -17 697 1 632 -17 m 550 1133 l 653 1133 l 653 1021 l 633 761 l 554 761 "},"ţ":{"ha":833,"x_min":0,"x_max":0,"o":"m 408 -258 b 560 -189 525 -250 560 -229 b 453 -122 560 -153 532 -133 l 497 -14 b 286 263 339 4 286 111 l 286 582 l 96 582 l 96 668 l 290 675 l 306 892 l 400 892 l 400 675 l 732 675 l 732 582 l 400 582 l 400 261 b 571 76 400 140 440 76 b 733 107 635 76 685 89 l 758 24 b 574 -17 704 4 646 -12 l 547 -89 b 649 -187 611 -104 649 -131 b 419 -314 649 -268 567 -307 "},"ț":{"ha":833,"x_min":0,"x_max":0,"o":"m 547 -17 b 286 263 350 -17 286 96 l 286 582 l 96 582 l 96 668 l 290 675 l 306 892 l 400 892 l 400 675 l 732 675 l 732 582 l 400 582 l 400 261 b 571 76 400 140 440 76 b 733 107 635 76 685 89 l 758 24 b 547 -17 697 1 632 -17 m 394 -258 b 546 -192 511 -250 546 -229 b 447 -133 546 -156 511 -139 l 472 -81 b 635 -187 593 -94 635 -125 b 406 -314 635 -268 553 -307 "},"ṭ":{"ha":833,"x_min":0,"x_max":0,"o":"m 547 -17 b 286 263 350 -17 286 96 l 286 582 l 96 582 l 96 668 l 290 675 l 306 892 l 400 892 l 400 675 l 732 675 l 732 582 l 400 582 l 400 261 b 571 76 400 140 440 76 b 733 107 635 76 685 89 l 758 24 b 547 -17 697 1 632 -17 m 526 -299 b 435 -210 475 -299 435 -264 b 526 -121 435 -157 475 -121 b 618 -210 578 -121 618 -157 b 526 -299 618 -264 578 -299 "},"ṯ":{"ha":833,"x_min":0,"x_max":0,"o":"m 547 -17 b 286 263 350 -17 286 96 l 286 582 l 96 582 l 96 668 l 290 675 l 306 892 l 400 892 l 400 675 l 732 675 l 732 582 l 400 582 l 400 261 b 571 76 400 140 440 76 b 733 107 635 76 685 89 l 758 24 b 547 -17 697 1 632 -17 m 342 -157 l 711 -157 l 711 -236 l 342 -236 "},"ẗ":{"ha":833,"x_min":0,"x_max":0,"o":"m 547 -17 b 286 263 350 -17 286 96 l 286 582 l 96 582 l 96 668 l 290 675 l 306 892 l 400 892 l 400 675 l 732 675 l 732 582 l 400 582 l 400 261 b 571 76 400 140 440 76 b 733 107 635 76 685 89 l 758 24 b 547 -17 697 1 632 -17 m 229 1004 b 153 1082 185 1004 153 1038 b 229 1160 153 1125 185 1160 b 306 1082 274 1160 306 1125 b 229 1004 306 1038 274 1004 m 499 1004 b 422 1082 454 1004 422 1038 b 499 1160 422 1125 454 1160 b 575 1082 543 1160 575 1125 b 499 1004 575 1038 543 1004 "},"ŧ":{"ha":833,"x_min":0,"x_max":0,"o":"m 547 -17 b 286 263 350 -17 286 96 l 286 306 l 97 306 l 97 386 l 286 394 l 286 582 l 96 582 l 96 668 l 290 675 l 306 892 l 400 892 l 400 675 l 732 675 l 732 582 l 400 582 l 400 394 l 706 394 l 706 306 l 400 306 l 400 261 b 571 76 400 140 440 76 b 733 107 635 76 685 89 l 758 24 b 547 -17 697 1 632 -17 "},"ù":{"ha":833,"x_min":0,"x_max":0,"o":"m 342 -17 b 107 256 181 -17 107 78 l 107 675 l 222 675 l 222 271 b 378 82 222 143 265 82 b 588 207 456 82 513 119 l 588 675 l 701 675 l 701 0 l 608 0 l 599 118 l 593 118 b 342 -17 525 39 446 -17 m 221 1001 l 301 1079 l 499 846 l 439 789 "},"ú":{"ha":833,"x_min":0,"x_max":0,"o":"m 342 -17 b 107 256 181 -17 107 78 l 107 675 l 222 675 l 222 271 b 378 82 222 143 265 82 b 588 207 456 82 513 119 l 588 675 l 701 675 l 701 0 l 608 0 l 599 118 l 593 118 b 342 -17 525 39 446 -17 m 321 846 l 518 1079 l 599 1001 l 381 789 "},"û":{"ha":833,"x_min":0,"x_max":0,"o":"m 342 -17 b 107 256 181 -17 107 78 l 107 675 l 222 675 l 222 271 b 378 82 222 143 265 82 b 588 207 456 82 513 119 l 588 675 l 701 675 l 701 0 l 608 0 l 599 118 l 593 118 b 342 -17 525 39 446 -17 m 194 833 l 353 1028 l 467 1028 l 625 833 l 576 789 l 413 946 l 407 946 l 243 789 "},"ũ":{"ha":833,"x_min":0,"x_max":0,"o":"m 342 -17 b 107 256 181 -17 107 78 l 107 675 l 222 675 l 222 271 b 378 82 222 143 265 82 b 588 207 456 82 513 119 l 588 675 l 701 675 l 701 0 l 608 0 l 599 118 l 593 118 b 342 -17 525 39 446 -17 m 510 801 b 311 918 411 801 375 918 b 246 808 269 918 250 874 l 169 813 b 310 1001 174 921 214 1001 b 510 885 408 1001 444 885 b 574 994 550 885 569 931 l 650 989 b 510 801 646 882 606 801 "},"ü":{"ha":833,"x_min":0,"x_max":0,"o":"m 342 -17 b 107 256 181 -17 107 78 l 107 675 l 222 675 l 222 271 b 378 82 222 143 265 82 b 588 207 456 82 513 119 l 588 675 l 701 675 l 701 0 l 608 0 l 599 118 l 593 118 b 342 -17 525 39 446 -17 m 275 817 b 199 894 231 817 199 850 b 275 972 199 938 231 972 b 351 894 319 972 351 938 b 275 817 351 850 319 817 m 544 817 b 468 894 500 817 468 850 b 544 972 468 938 500 972 b 621 894 589 972 621 938 b 544 817 621 850 589 817 "},"ū":{"ha":833,"x_min":0,"x_max":0,"o":"m 342 -17 b 107 256 181 -17 107 78 l 107 675 l 222 675 l 222 271 b 378 82 222 143 265 82 b 588 207 456 82 513 119 l 588 675 l 701 675 l 701 0 l 608 0 l 599 118 l 593 118 b 342 -17 525 39 446 -17 m 225 914 l 594 914 l 594 835 l 225 835 "},"ŭ":{"ha":833,"x_min":0,"x_max":0,"o":"m 342 -17 b 107 256 181 -17 107 78 l 107 675 l 222 675 l 222 271 b 378 82 222 143 265 82 b 588 207 456 82 513 119 l 588 675 l 701 675 l 701 0 l 608 0 l 599 118 l 593 118 b 342 -17 525 39 446 -17 m 410 793 b 193 1003 261 793 200 900 l 264 1014 b 410 869 275 943 319 869 b 556 1014 500 869 544 943 l 626 1003 b 410 793 619 900 558 793 "},"ů":{"ha":833,"x_min":0,"x_max":0,"o":"m 342 -17 b 107 256 181 -17 107 78 l 107 675 l 222 675 l 222 271 b 378 82 222 143 265 82 b 588 207 456 82 513 119 l 588 675 l 701 675 l 701 0 l 608 0 l 599 118 l 593 118 b 342 -17 525 39 446 -17 m 410 790 b 257 924 314 790 257 849 b 410 1057 257 999 314 1057 b 563 924 506 1057 563 999 b 410 790 563 849 506 790 m 410 842 b 489 924 454 842 489 878 b 410 1006 489 971 454 1006 b 331 924 365 1006 331 971 b 410 842 331 878 365 842 "},"ű":{"ha":833,"x_min":0,"x_max":0,"o":"m 342 -17 b 107 256 181 -17 107 78 l 107 675 l 222 675 l 222 271 b 378 82 222 143 265 82 b 588 207 456 82 513 119 l 588 675 l 701 675 l 701 0 l 608 0 l 599 118 l 593 118 b 342 -17 525 39 446 -17 m 267 818 l 388 1057 l 468 1018 l 331 789 m 476 818 l 597 1057 l 678 1018 l 540 789 "},"ǔ":{"ha":833,"x_min":0,"x_max":0,"o":"m 342 -17 b 107 256 181 -17 107 78 l 107 675 l 222 675 l 222 271 b 378 82 222 143 265 82 b 588 207 456 82 513 119 l 588 675 l 701 675 l 701 0 l 608 0 l 599 118 l 593 118 b 342 -17 525 39 446 -17 m 194 992 l 243 1036 l 407 879 l 413 879 l 576 1036 l 625 992 l 467 797 l 353 797 "},"ų":{"ha":833,"x_min":0,"x_max":0,"o":"m 619 -312 b 476 -183 539 -312 476 -271 b 608 0 476 -104 536 -44 l 599 118 l 593 118 b 342 -17 525 39 446 -17 b 107 256 181 -17 107 78 l 107 675 l 222 675 l 222 271 b 378 82 222 143 265 82 b 588 207 456 82 513 119 l 588 675 l 701 675 l 701 -7 b 561 -161 601 -51 561 -107 b 643 -237 561 -212 601 -237 b 715 -208 674 -237 699 -225 l 749 -262 b 619 -312 717 -293 672 -312 "},"ǖ":{"ha":833,"x_min":0,"x_max":0,"o":"m 342 -17 b 107 256 181 -17 107 78 l 107 675 l 222 675 l 222 271 b 378 82 222 143 265 82 b 588 207 456 82 513 119 l 588 675 l 701 675 l 701 0 l 608 0 l 599 118 l 593 118 b 342 -17 525 39 446 -17 m 276 817 b 213 879 240 817 213 844 b 276 943 213 915 240 943 b 339 879 313 943 339 915 b 276 817 339 844 313 817 m 543 817 b 481 879 507 817 481 844 b 543 943 481 915 507 943 b 607 879 579 943 607 915 b 543 817 607 844 579 817 m 224 1107 l 594 1107 l 594 1042 l 224 1042 "},"ǘ":{"ha":833,"x_min":0,"x_max":0,"o":"m 342 -17 b 107 256 181 -17 107 78 l 107 675 l 222 675 l 222 271 b 378 82 222 143 265 82 b 588 207 456 82 513 119 l 588 675 l 701 675 l 701 0 l 608 0 l 599 118 l 593 118 b 342 -17 525 39 446 -17 m 276 817 b 213 879 240 817 213 844 b 276 943 213 915 240 943 b 339 879 313 943 339 915 b 276 817 339 844 313 817 m 543 817 b 481 879 507 817 481 844 b 543 943 481 915 507 943 b 607 879 579 943 607 915 b 543 817 607 844 579 817 m 351 1013 l 465 1172 l 533 1125 l 400 979 "},"ǚ":{"ha":833,"x_min":0,"x_max":0,"o":"m 342 -17 b 107 256 181 -17 107 78 l 107 675 l 222 675 l 222 271 b 378 82 222 143 265 82 b 588 207 456 82 513 119 l 588 675 l 701 675 l 701 0 l 608 0 l 599 118 l 593 118 b 342 -17 525 39 446 -17 m 276 817 b 213 879 240 817 213 844 b 276 943 213 915 240 943 b 339 879 313 943 339 915 b 276 817 339 844 313 817 m 543 817 b 481 879 507 817 481 844 b 543 943 481 915 507 943 b 607 879 579 943 607 915 b 543 817 607 844 579 817 m 232 1128 l 274 1167 l 407 1065 l 413 1065 l 546 1167 l 588 1128 l 457 1000 l 363 1000 "},"ǜ":{"ha":833,"x_min":0,"x_max":0,"o":"m 342 -17 b 107 256 181 -17 107 78 l 107 675 l 222 675 l 222 271 b 378 82 222 143 265 82 b 588 207 456 82 513 119 l 588 675 l 701 675 l 701 0 l 608 0 l 599 118 l 593 118 b 342 -17 525 39 446 -17 m 276 817 b 213 879 240 817 213 844 b 276 943 213 915 240 943 b 339 879 313 943 339 915 b 276 817 339 844 313 817 m 543 817 b 481 879 507 817 481 844 b 543 943 481 915 507 943 b 607 879 579 943 607 915 b 543 817 607 844 579 817 m 286 1125 l 354 1172 l 468 1013 l 419 979 "},"ụ":{"ha":833,"x_min":0,"x_max":0,"o":"m 342 -17 b 107 256 181 -17 107 78 l 107 675 l 222 675 l 222 271 b 378 82 222 143 265 82 b 588 207 456 82 513 119 l 588 675 l 701 675 l 701 0 l 608 0 l 599 118 l 593 118 b 342 -17 525 39 446 -17 m 426 -299 b 335 -210 375 -299 335 -264 b 426 -121 335 -157 375 -121 b 518 -210 478 -121 518 -157 b 426 -299 518 -264 478 -299 "},"ủ":{"ha":833,"x_min":0,"x_max":0,"o":"m 342 -17 b 107 256 181 -17 107 78 l 107 675 l 222 675 l 222 271 b 378 82 222 143 265 82 b 588 207 456 82 513 119 l 588 675 l 701 675 l 701 0 l 608 0 l 599 118 l 593 118 b 342 -17 525 39 446 -17 m 353 850 b 431 915 397 861 431 879 b 315 981 431 956 393 976 l 322 1056 b 521 925 449 1053 521 1007 b 365 794 521 844 446 810 "},"ư":{"ha":833,"x_min":0,"x_max":0,"o":"m 342 -17 b 107 256 181 -17 107 78 l 107 675 l 222 675 l 222 271 b 378 82 222 143 265 82 b 588 207 456 82 513 119 l 588 675 l 610 675 b 729 808 676 685 729 717 b 710 889 729 836 724 867 l 799 931 b 831 817 818 900 831 858 b 701 635 831 710 767 660 l 701 0 l 608 0 l 599 118 l 593 118 b 342 -17 525 39 446 -17 "},"ứ":{"ha":833,"x_min":0,"x_max":0,"o":"m 342 -17 b 107 256 181 -17 107 78 l 107 675 l 222 675 l 222 271 b 378 82 222 143 265 82 b 588 207 456 82 513 119 l 588 675 l 610 675 b 729 808 676 685 729 717 b 710 889 729 836 724 867 l 799 931 b 831 817 818 900 831 858 b 701 635 831 710 767 660 l 701 0 l 608 0 l 599 118 l 593 118 b 342 -17 525 39 446 -17 m 321 846 l 518 1079 l 599 1001 l 381 789 "},"ừ":{"ha":833,"x_min":0,"x_max":0,"o":"m 342 -17 b 107 256 181 -17 107 78 l 107 675 l 222 675 l 222 271 b 378 82 222 143 265 82 b 588 207 456 82 513 119 l 588 675 l 610 675 b 729 808 676 685 729 717 b 710 889 729 836 724 867 l 799 931 b 831 817 818 900 831 858 b 701 635 831 710 767 660 l 701 0 l 608 0 l 599 118 l 593 118 b 342 -17 525 39 446 -17 m 221 1001 l 301 1079 l 499 846 l 439 789 "},"ử":{"ha":833,"x_min":0,"x_max":0,"o":"m 342 -17 b 107 256 181 -17 107 78 l 107 675 l 222 675 l 222 271 b 378 82 222 143 265 82 b 588 207 456 82 513 119 l 588 675 l 610 675 b 729 808 676 685 729 717 b 710 889 729 836 724 867 l 799 931 b 831 817 818 900 831 858 b 701 635 831 710 767 660 l 701 0 l 608 0 l 599 118 l 593 118 b 342 -17 525 39 446 -17 m 353 850 b 431 915 397 861 431 879 b 315 981 431 956 393 976 l 322 1056 b 521 925 449 1053 521 1007 b 365 794 521 844 446 810 "},"ữ":{"ha":833,"x_min":0,"x_max":0,"o":"m 342 -17 b 107 256 181 -17 107 78 l 107 675 l 222 675 l 222 271 b 378 82 222 143 265 82 b 588 207 456 82 513 119 l 588 675 l 610 675 b 729 808 676 685 729 717 b 710 889 729 836 724 867 l 799 931 b 831 817 818 900 831 858 b 701 635 831 710 767 660 l 701 0 l 608 0 l 599 118 l 593 118 b 342 -17 525 39 446 -17 m 499 801 b 300 918 400 801 364 918 b 235 808 258 918 239 874 l 158 813 b 299 1001 163 921 203 1001 b 499 885 397 1001 433 885 b 563 994 539 885 558 931 l 639 989 b 499 801 635 882 594 801 "},"ự":{"ha":833,"x_min":0,"x_max":0,"o":"m 342 -17 b 107 256 181 -17 107 78 l 107 675 l 222 675 l 222 271 b 378 82 222 143 265 82 b 588 207 456 82 513 119 l 588 675 l 610 675 b 729 808 676 685 729 717 b 710 889 729 836 724 867 l 799 931 b 831 817 818 900 831 858 b 701 635 831 710 767 660 l 701 0 l 608 0 l 599 118 l 593 118 b 342 -17 525 39 446 -17 m 426 -299 b 335 -210 375 -299 335 -264 b 426 -121 335 -157 375 -121 b 518 -210 478 -121 518 -157 b 426 -299 518 -264 478 -299 "},"ṿ":{"ha":833,"x_min":0,"x_max":0,"o":"m 71 675 l 186 675 l 342 292 b 418 93 369 224 394 157 l 424 93 b 497 292 447 157 469 224 l 653 675 l 763 675 l 483 0 l 356 0 m 417 -299 b 325 -210 365 -299 325 -264 b 417 -121 325 -157 365 -121 b 508 -210 468 -121 508 -157 b 417 -299 508 -264 468 -299 "},"ẁ":{"ha":833,"x_min":0,"x_max":0,"o":"m 11 675 l 125 675 l 206 283 b 236 97 218 219 228 161 l 242 97 b 281 283 250 161 265 221 l 364 633 l 478 633 l 558 283 b 600 97 574 219 592 161 l 606 97 b 636 283 617 161 624 219 l 717 675 l 822 675 l 678 0 l 531 0 l 453 322 b 419 522 442 369 431 436 l 414 522 b 381 322 403 436 392 369 l 306 0 l 158 0 m 228 1001 l 308 1079 l 506 846 l 446 789 "},"ẃ":{"ha":833,"x_min":0,"x_max":0,"o":"m 11 675 l 125 675 l 206 283 b 236 97 218 219 228 161 l 242 97 b 281 283 250 161 265 221 l 364 633 l 478 633 l 558 283 b 600 97 574 219 592 161 l 606 97 b 636 283 617 161 624 219 l 717 675 l 822 675 l 678 0 l 531 0 l 453 322 b 419 522 442 369 431 436 l 414 522 b 381 322 403 436 392 369 l 306 0 l 158 0 m 328 846 l 525 1079 l 606 1001 l 388 789 "},"ŵ":{"ha":833,"x_min":0,"x_max":0,"o":"m 11 675 l 125 675 l 206 283 b 236 97 218 219 228 161 l 242 97 b 281 283 250 161 265 221 l 364 633 l 478 633 l 558 283 b 600 97 574 219 592 161 l 606 97 b 636 283 617 161 624 219 l 717 675 l 822 675 l 678 0 l 531 0 l 453 322 b 419 522 442 369 431 436 l 414 522 b 381 322 403 436 392 369 l 306 0 l 158 0 m 201 833 l 360 1028 l 474 1028 l 632 833 l 583 789 l 419 946 l 414 946 l 250 789 "},"ẅ":{"ha":833,"x_min":0,"x_max":0,"o":"m 11 675 l 125 675 l 206 283 b 236 97 218 219 228 161 l 242 97 b 281 283 250 161 265 221 l 364 633 l 478 633 l 558 283 b 600 97 574 219 592 161 l 606 97 b 636 283 617 161 624 219 l 717 675 l 822 675 l 678 0 l 531 0 l 453 322 b 419 522 442 369 431 436 l 414 522 b 381 322 403 436 392 369 l 306 0 l 158 0 m 282 817 b 206 894 238 817 206 850 b 282 972 206 938 238 972 b 358 894 326 972 358 938 b 282 817 358 850 326 817 m 551 817 b 475 894 507 817 475 850 b 551 972 475 938 507 972 b 628 894 596 972 628 938 b 551 817 628 850 596 817 "},"ỳ":{"ha":833,"x_min":0,"x_max":0,"o":"m 182 -290 b 93 -276 150 -290 117 -285 l 117 -186 b 178 -196 135 -192 157 -196 b 363 -51 272 -196 329 -135 l 383 -1 l 68 675 l 183 675 l 349 301 b 432 106 375 242 404 171 l 438 106 b 510 301 461 169 488 240 l 657 675 l 765 675 l 468 -56 b 182 -290 418 -189 335 -290 m 233 1001 l 314 1079 l 511 846 l 451 789 "},"ý":{"ha":833,"x_min":0,"x_max":0,"o":"m 182 -290 b 93 -276 150 -290 117 -285 l 117 -186 b 178 -196 135 -192 157 -196 b 363 -51 272 -196 329 -135 l 383 -1 l 68 675 l 183 675 l 349 301 b 432 106 375 242 404 171 l 438 106 b 510 301 461 169 488 240 l 657 675 l 765 675 l 468 -56 b 182 -290 418 -189 335 -290 m 333 846 l 531 1079 l 611 1001 l 393 789 "},"ŷ":{"ha":833,"x_min":0,"x_max":0,"o":"m 182 -290 b 93 -276 150 -290 117 -285 l 117 -186 b 178 -196 135 -192 157 -196 b 363 -51 272 -196 329 -135 l 383 -1 l 68 675 l 183 675 l 349 301 b 432 106 375 242 404 171 l 438 106 b 510 301 461 169 488 240 l 657 675 l 765 675 l 468 -56 b 182 -290 418 -189 335 -290 m 207 833 l 365 1028 l 479 1028 l 638 833 l 589 789 l 425 946 l 419 946 l 256 789 "},"ÿ":{"ha":833,"x_min":0,"x_max":0,"o":"m 182 -290 b 93 -276 150 -290 117 -285 l 117 -186 b 178 -196 135 -192 157 -196 b 363 -51 272 -196 329 -135 l 383 -1 l 68 675 l 183 675 l 349 301 b 432 106 375 242 404 171 l 438 106 b 510 301 461 169 488 240 l 657 675 l 765 675 l 468 -56 b 182 -290 418 -189 335 -290 m 288 817 b 211 894 243 817 211 850 b 288 972 211 938 243 972 b 364 894 332 972 364 938 b 288 817 364 850 332 817 m 557 817 b 481 894 513 817 481 850 b 557 972 481 938 513 972 b 633 894 601 972 633 938 b 557 817 633 850 601 817 "},"ẏ":{"ha":833,"x_min":0,"x_max":0,"o":"m 182 -290 b 93 -276 150 -290 117 -285 l 117 -186 b 178 -196 135 -192 157 -196 b 363 -51 272 -196 329 -135 l 383 -1 l 68 675 l 183 675 l 349 301 b 432 106 375 242 404 171 l 438 106 b 510 301 461 169 488 240 l 657 675 l 765 675 l 468 -56 b 182 -290 418 -189 335 -290 m 422 817 b 331 906 371 817 331 851 b 422 994 331 958 371 994 b 514 906 474 994 514 958 b 422 817 514 851 474 817 "},"ỵ":{"ha":833,"x_min":0,"x_max":0,"o":"m 182 -290 b 93 -276 150 -290 117 -285 l 117 -186 b 178 -196 135 -192 157 -196 b 363 -51 272 -196 329 -135 l 383 -1 l 68 675 l 183 675 l 349 301 b 432 106 375 242 404 171 l 438 106 b 510 301 461 169 488 240 l 657 675 l 765 675 l 468 -56 b 182 -290 418 -189 335 -290 m 636 -293 b 544 -204 585 -293 544 -258 b 636 -115 544 -151 585 -115 b 728 -204 688 -115 728 -151 b 636 -293 728 -258 688 -293 "},"ỷ":{"ha":833,"x_min":0,"x_max":0,"o":"m 182 -290 b 93 -276 150 -290 117 -285 l 117 -186 b 178 -196 135 -192 157 -196 b 363 -51 272 -196 329 -135 l 383 -1 l 68 675 l 183 675 l 349 301 b 432 106 375 242 404 171 l 438 106 b 510 301 461 169 488 240 l 657 675 l 765 675 l 468 -56 b 182 -290 418 -189 335 -290 m 365 850 b 443 915 410 861 443 879 b 328 981 443 956 406 976 l 335 1056 b 533 925 461 1053 533 1007 b 378 794 533 844 458 810 "},"ỹ":{"ha":833,"x_min":0,"x_max":0,"o":"m 182 -290 b 93 -276 150 -290 117 -285 l 117 -186 b 178 -196 135 -192 157 -196 b 363 -51 272 -196 329 -135 l 383 -1 l 68 675 l 183 675 l 349 301 b 432 106 375 242 404 171 l 438 106 b 510 301 461 169 488 240 l 657 675 l 765 675 l 468 -56 b 182 -290 418 -189 335 -290 m 522 801 b 324 918 424 801 388 918 b 258 808 282 918 263 874 l 182 813 b 322 1001 186 921 226 1001 b 522 885 421 1001 457 885 b 586 994 563 885 582 931 l 663 989 b 522 801 658 882 618 801 "},"ź":{"ha":833,"x_min":0,"x_max":0,"o":"m 99 61 l 561 582 l 150 582 l 150 675 l 725 675 l 725 614 l 261 93 l 738 93 l 738 0 l 99 0 m 358 846 l 556 1079 l 636 1001 l 418 789 "},"ž":{"ha":833,"x_min":0,"x_max":0,"o":"m 99 61 l 561 582 l 150 582 l 150 675 l 725 675 l 725 614 l 261 93 l 738 93 l 738 0 l 99 0 m 232 992 l 281 1036 l 444 879 l 450 879 l 614 1036 l 663 992 l 504 797 l 390 797 "},"ż":{"ha":833,"x_min":0,"x_max":0,"o":"m 99 61 l 561 582 l 150 582 l 150 675 l 725 675 l 725 614 l 261 93 l 738 93 l 738 0 l 99 0 m 447 817 b 356 906 396 817 356 851 b 447 994 356 958 396 994 b 539 906 499 994 539 958 b 447 817 539 851 499 817 "},"ẑ":{"ha":833,"x_min":0,"x_max":0,"o":"m 99 61 l 561 582 l 150 582 l 150 675 l 725 675 l 725 614 l 261 93 l 738 93 l 738 0 l 99 0 m 232 833 l 390 1028 l 504 1028 l 663 833 l 614 789 l 450 946 l 444 946 l 281 789 "},"ẓ":{"ha":833,"x_min":0,"x_max":0,"o":"m 99 61 l 561 582 l 150 582 l 150 675 l 725 675 l 725 614 l 261 93 l 738 93 l 738 0 l 99 0 m 436 -299 b 344 -210 385 -299 344 -264 b 436 -121 344 -157 385 -121 b 528 -210 488 -121 528 -157 b 436 -299 528 -264 488 -299 "},"ẕ":{"ha":833,"x_min":0,"x_max":0,"o":"m 99 61 l 561 582 l 150 582 l 150 675 l 725 675 l 725 614 l 261 93 l 738 93 l 738 0 l 99 0 m 251 -157 l 621 -157 l 621 -236 l 251 -236 "},"ð":{"ha":833,"x_min":0,"x_max":0,"o":"m 190 308 b 417 78 190 169 293 78 b 635 353 564 78 635 192 b 633 414 635 374 635 394 b 417 532 568 500 489 532 b 190 308 268 532 190 436 m 414 -17 b 83 308 239 -17 83 107 b 400 621 83 497 217 621 b 621 510 486 621 569 579 b 461 794 596 632 542 722 l 250 686 l 208 758 l 389 850 b 229 942 342 883 288 913 l 282 1014 b 482 897 353 981 421 943 l 672 994 l 714 925 l 550 840 b 744 357 667 728 744 576 b 414 -17 744 135 617 -17 "},"þ":{"ha":833,"x_min":0,"x_max":0,"o":"m 129 989 l 243 989 l 243 710 l 239 589 l 243 589 b 468 692 306 651 389 692 b 750 347 650 692 750 557 b 443 -17 750 118 603 -17 b 243 71 376 -17 301 18 l 239 71 l 243 -57 l 243 -285 l 129 -285 m 424 79 b 632 347 542 79 632 181 b 440 596 632 496 575 596 b 243 494 381 596 313 564 l 243 158 b 424 79 307 101 376 79 "},"ŋ":{"ha":833,"x_min":0,"x_max":0,"o":"m 538 -254 b 432 -235 496 -254 457 -244 l 454 -147 b 525 -161 474 -154 499 -161 b 613 -19 594 -161 613 -107 l 613 404 b 457 593 613 532 568 593 b 243 471 376 593 322 553 l 243 0 l 129 0 l 129 675 l 224 675 l 233 560 l 239 560 b 493 692 310 635 388 692 b 726 419 653 692 726 597 l 726 -19 b 538 -254 726 -164 672 -254 "},"ȷ":{"ha":833,"x_min":0,"x_max":0,"o":"m 269 -301 b 76 -256 199 -301 131 -282 l 114 -171 b 268 -208 163 -194 217 -208 b 439 -25 403 -208 439 -140 l 439 582 l 125 582 l 125 675 l 553 675 l 553 -17 b 269 -301 553 -183 488 -301 "},"ĳ":{"ha":833,"x_min":0,"x_max":0,"o":"m 156 675 l 269 675 l 269 0 l 156 0 m 214 814 b 129 894 165 814 129 846 b 214 975 129 943 165 975 b 297 894 261 975 297 943 b 214 814 297 846 261 814 m 515 -301 b 417 -283 474 -301 440 -293 l 439 -197 b 503 -208 457 -203 479 -208 b 586 -76 571 -208 586 -158 l 586 675 l 700 675 l 700 -76 b 515 -301 700 -214 650 -301 m 644 814 b 560 894 596 814 560 846 b 644 975 560 943 596 975 b 728 894 692 975 728 943 b 644 814 728 846 692 814 "},"ɐ":{"ha":833,"x_min":0,"x_max":0,"o":"m 406 -17 b 131 261 221 -17 131 93 l 131 675 l 225 675 l 235 583 l 239 583 b 504 692 313 642 410 692 b 735 500 632 692 735 622 b 246 249 735 349 593 275 b 424 78 249 156 294 78 b 661 158 513 78 599 119 l 706 81 b 406 -17 638 36 524 -17 m 246 322 b 624 492 535 346 624 403 b 475 600 624 568 553 600 b 246 500 397 600 322 564 l 246 322 "},"ɒ":{"ha":833,"x_min":0,"x_max":0,"o":"m 444 -17 b 235 75 378 -17 299 18 l 231 75 l 221 0 l 129 0 l 129 675 l 224 675 l 233 586 l 238 586 b 471 692 292 643 381 692 b 750 349 651 692 750 557 b 444 -17 750 118 606 -17 m 425 79 b 632 343 543 79 632 181 b 440 596 632 496 575 596 b 243 494 374 596 303 561 l 243 158 b 425 79 308 100 375 79 "},"ɓ":{"ha":833,"x_min":0,"x_max":0,"o":"m 446 -17 b 235 75 379 -17 299 17 l 231 75 l 221 0 l 129 0 l 129 746 b 379 1006 129 900 211 1006 b 508 979 426 1006 474 993 l 482 892 b 390 913 451 906 418 913 b 243 749 290 913 247 851 l 238 579 l 243 579 b 469 682 304 642 390 682 b 750 343 651 682 750 549 b 446 -17 750 115 604 -17 m 426 79 b 632 342 543 79 632 179 b 442 586 632 488 575 586 b 243 485 382 586 311 554 l 243 158 b 426 79 307 100 378 79 "},"ɔ":{"ha":833,"x_min":0,"x_max":0,"o":"m 357 -17 b 85 89 253 -17 157 22 l 136 163 b 346 78 190 115 263 78 b 604 336 500 78 604 182 b 358 597 604 492 501 597 b 157 519 278 597 214 568 l 99 593 b 365 692 156 647 243 692 b 722 336 558 692 722 563 b 357 -17 722 113 563 -17 "},"ɕ":{"ha":833,"x_min":0,"x_max":0,"o":"m 572 211 b 385 96 518 211 447 168 b 501 75 419 82 460 75 b 656 154 603 75 656 108 b 572 211 656 188 632 211 m 164 -103 b 244 60 186 -43 213 13 b 111 336 163 119 111 214 b 479 692 111 563 283 692 b 733 593 594 692 675 650 l 678 522 b 483 601 624 572 561 601 b 224 336 336 601 224 494 b 306 143 224 254 254 188 b 579 293 392 239 492 293 b 746 156 686 293 746 239 b 499 -17 746 60 663 -17 b 325 15 436 -17 378 -6 b 257 -142 297 -32 274 -85 "},"ɖ":{"ha":833,"x_min":0,"x_max":0,"o":"m 758 -244 b 590 -54 643 -244 590 -172 l 593 85 l 589 85 b 374 -17 536 29 457 -17 b 83 336 200 -17 83 111 b 389 692 83 556 231 692 b 589 604 469 692 531 658 l 593 604 l 586 729 l 586 989 l 701 989 l 701 -29 b 771 -151 701 -106 717 -151 b 821 -139 789 -151 807 -144 l 843 -226 b 758 -244 824 -236 793 -244 m 400 79 b 586 181 465 79 528 114 l 586 517 b 408 596 525 574 465 596 b 201 338 294 596 201 492 b 400 79 201 176 276 79 "},"ɗ":{"ha":833,"x_min":0,"x_max":0,"o":"m 374 -17 b 83 336 199 -17 83 111 b 388 692 83 556 229 692 b 588 604 467 692 529 660 l 592 604 l 589 729 l 589 807 b 769 1008 589 932 647 1008 b 847 994 801 1008 826 1003 l 825 907 b 782 915 813 911 799 915 b 700 788 721 915 700 865 l 700 0 l 606 0 l 596 89 l 592 89 b 374 -17 538 32 457 -17 m 399 79 b 586 181 464 79 526 114 l 586 517 b 407 596 525 574 465 596 b 201 338 294 596 201 492 b 399 79 201 176 275 79 "},"ɘ":{"ha":833,"x_min":0,"x_max":0,"o":"m 403 601 b 190 394 288 601 201 533 l 621 394 b 403 601 601 528 514 601 m 375 -17 b 115 63 267 -17 182 19 l 156 138 b 363 75 218 99 282 75 b 624 306 501 75 610 153 l 92 306 b 88 375 89 322 88 351 b 410 692 88 565 217 692 b 738 336 588 692 738 557 b 375 -17 738 115 575 -17 "},"ɑ":{"ha":833,"x_min":0,"x_max":0,"o":"m 375 -17 b 83 336 201 -17 83 111 b 392 692 83 556 229 692 b 599 600 471 692 536 660 l 603 600 l 613 675 l 704 675 l 704 0 l 610 0 l 600 89 l 596 89 b 375 -17 542 32 460 -17 m 400 79 b 590 181 467 79 531 114 l 590 517 b 413 596 529 574 471 596 b 201 338 296 596 201 492 b 400 79 201 176 275 79 "},"ʙ":{"ha":833,"x_min":0,"x_max":0,"o":"m 160 675 l 472 675 b 735 504 628 675 735 626 b 617 360 735 429 689 382 l 617 356 b 764 193 696 336 764 290 b 483 0 764 60 647 0 l 160 0 m 453 394 b 624 493 575 394 624 431 b 461 583 624 556 575 583 l 272 583 l 272 394 m 471 92 b 650 200 593 92 650 125 b 464 306 650 268 586 306 l 272 306 l 272 92 "},"ə":{"ha":833,"x_min":0,"x_max":0,"o":"m 413 -17 b 96 311 210 -17 96 118 b 101 381 96 335 99 364 l 631 381 b 388 601 617 526 525 601 b 181 538 307 601 242 576 l 139 613 b 400 692 207 656 292 692 b 746 339 604 692 746 560 b 413 -17 746 114 599 -17 m 410 75 b 631 292 531 75 617 149 l 199 292 b 410 75 208 149 285 75 "},"ɚ":{"ha":833,"x_min":0,"x_max":0,"o":"m 301 -17 b 31 274 131 -17 44 113 l 454 456 b 278 601 424 558 357 601 b 111 544 207 601 160 578 l 71 622 b 288 692 131 664 197 692 b 556 499 413 692 510 625 l 657 543 l 717 519 b 785 393 725 414 746 393 b 832 414 803 393 821 404 l 863 354 b 776 319 842 338 814 319 b 649 450 724 319 667 350 l 575 419 b 582 328 579 390 582 360 b 301 -17 582 129 471 -17 m 474 306 b 471 375 474 331 472 353 l 131 231 b 300 74 156 119 218 74 b 474 306 406 74 474 168 "},"ɛ":{"ha":833,"x_min":0,"x_max":0,"o":"m 442 -17 b 126 188 254 -17 126 57 b 285 356 126 283 196 332 l 285 361 b 161 511 208 390 161 444 b 453 692 161 633 283 692 b 726 606 565 692 654 657 l 681 531 b 458 601 615 575 550 601 b 275 497 340 601 275 567 b 479 394 275 431 344 394 l 553 394 l 553 306 l 460 306 b 240 197 318 306 240 274 b 460 75 240 118 319 75 b 693 157 550 75 626 97 l 743 82 b 442 -17 658 8 564 -17 "},"ɜ":{"ha":833,"x_min":0,"x_max":0,"o":"m 389 -17 b 86 85 279 -17 182 7 l 136 160 b 379 75 214 96 296 75 b 599 196 519 75 599 118 b 390 306 599 272 525 306 l 274 306 l 274 394 l 374 394 b 567 499 503 394 567 432 b 381 601 567 567 503 601 b 150 525 283 601 221 576 l 103 601 b 388 692 181 658 269 692 b 679 510 558 692 679 633 b 558 360 679 443 639 390 l 558 354 b 713 186 650 331 713 283 b 389 -17 713 57 582 -17 "},"ɞ":{"ha":833,"x_min":0,"x_max":0,"o":"m 454 -17 b 85 335 243 -17 85 104 b 446 692 85 569 257 692 b 711 510 596 692 711 633 b 594 360 711 443 671 385 l 594 354 b 746 186 676 336 746 282 b 454 -17 746 57 632 -17 m 456 75 b 632 196 568 75 632 118 b 458 306 632 269 558 306 l 410 306 l 410 394 l 447 394 b 600 497 543 394 600 435 b 450 601 600 567 540 601 b 200 335 308 601 200 503 b 456 75 200 164 299 75 "},"ɟ":{"ha":833,"x_min":0,"x_max":0,"o":"m 269 -301 b 76 -256 199 -301 131 -282 l 114 -171 b 268 -208 163 -194 217 -208 b 439 -25 403 -208 439 -140 l 439 286 l 169 286 l 169 369 l 439 378 l 439 582 l 125 582 l 125 675 l 553 675 l 553 378 l 783 378 l 783 286 l 553 286 l 553 -17 b 269 -301 553 -183 488 -301 "},"ɠ":{"ha":833,"x_min":0,"x_max":0,"o":"m 388 -300 b 132 -226 300 -300 207 -274 l 175 -146 b 388 -208 243 -190 319 -208 b 586 -31 517 -208 585 -139 l 592 104 l 588 104 b 374 7 536 50 457 7 b 83 347 200 7 83 135 b 390 692 83 558 232 692 b 588 604 469 692 533 657 l 592 604 l 589 671 b 771 874 589 792 646 874 b 849 860 803 874 828 868 l 826 772 b 783 781 814 778 800 781 b 701 653 722 781 701 731 l 701 -33 b 388 -300 701 -200 583 -300 m 400 101 b 586 203 465 101 526 136 l 586 517 b 408 596 525 575 465 596 b 201 349 294 596 201 493 b 400 101 201 197 276 101 "},"ɡ":{"ha":833,"x_min":0,"x_max":0,"o":"m 389 -301 b 132 -229 301 -301 206 -276 l 174 -147 b 389 -210 243 -192 321 -210 b 593 -31 518 -210 590 -139 l 596 104 l 592 104 b 375 7 539 50 458 7 b 83 347 201 7 83 135 b 392 692 83 558 228 692 b 599 600 471 692 539 657 l 603 600 l 613 675 l 704 675 l 704 -26 b 389 -301 704 -196 589 -301 m 400 101 b 590 203 465 101 529 136 l 590 517 b 411 596 529 574 471 596 b 200 349 297 596 200 493 b 400 101 200 197 276 101 "},"ɢ":{"ha":833,"x_min":0,"x_max":0,"o":"m 471 -17 b 108 338 271 -17 108 108 b 478 692 108 558 279 692 b 728 594 597 692 672 646 l 671 522 b 483 601 624 564 571 601 b 225 338 344 601 225 506 b 476 75 225 174 332 75 b 631 126 538 75 592 94 l 631 282 l 444 282 l 444 364 l 731 364 l 731 79 b 471 -17 674 25 581 -17 "},"ɣ":{"ha":833,"x_min":0,"x_max":0,"o":"m 419 -311 b 258 -147 317 -311 258 -244 b 344 72 258 -82 294 -25 l 71 675 l 188 675 l 344 306 b 417 135 371 242 389 197 l 422 135 b 496 306 450 197 469 242 l 651 675 l 763 675 l 494 72 b 581 -147 544 -25 581 -82 b 419 -311 581 -244 522 -311 m 419 -232 b 482 -150 463 -232 482 -196 b 422 15 482 -103 457 -47 l 415 15 b 357 -150 382 -47 357 -106 b 419 -232 357 -196 378 -232 "},"ɤ":{"ha":833,"x_min":0,"x_max":0,"o":"m 417 -17 b 158 218 258 -17 158 72 b 338 504 158 321 232 415 b 186 597 281 567 238 597 b 119 578 161 597 138 590 l 83 661 b 200 692 113 681 157 692 b 417 571 275 692 343 649 b 633 692 489 649 558 692 b 750 661 676 692 721 681 l 714 578 b 647 597 696 590 672 597 b 496 504 594 597 553 567 b 675 218 600 415 675 321 b 417 -17 675 72 575 -17 m 417 78 b 565 221 508 78 565 138 b 417 450 565 301 503 376 b 268 221 331 376 268 301 b 417 78 268 138 325 78 "},"ɥ":{"ha":833,"x_min":0,"x_max":0,"o":"m 590 -43 l 596 115 b 340 -17 524 42 446 -17 b 107 256 181 -17 107 78 l 107 675 l 221 675 l 221 271 b 376 82 221 143 265 82 b 590 204 457 82 511 124 l 590 675 l 704 675 l 704 -285 l 590 -285 "},"ɦ":{"ha":833,"x_min":0,"x_max":0,"o":"m 129 746 b 379 1006 129 900 211 1006 b 508 979 426 1006 474 993 l 482 892 b 390 913 451 906 418 913 b 243 749 290 913 247 851 l 235 550 l 240 550 b 493 682 310 624 388 682 b 726 408 653 682 726 588 l 726 0 l 613 0 l 613 394 b 457 582 613 522 568 582 b 243 461 376 582 322 542 l 243 0 l 129 0 "},"ɧ":{"ha":833,"x_min":0,"x_max":0,"o":"m 533 -254 b 425 -235 489 -254 450 -244 l 447 -147 b 521 -161 467 -154 493 -161 b 613 -19 594 -161 613 -107 l 613 394 b 457 582 613 522 568 582 b 243 461 376 582 322 542 l 243 0 l 129 0 l 129 746 b 379 1006 129 900 211 1006 b 508 979 426 1006 472 993 l 482 892 b 390 913 450 906 418 913 b 243 749 290 913 247 851 l 235 550 l 240 550 b 493 682 310 624 388 682 b 726 408 653 682 726 588 l 726 -19 b 533 -254 726 -164 674 -254 "},"ʜ":{"ha":833,"x_min":0,"x_max":0,"o":"m 129 675 l 243 675 l 243 401 l 590 401 l 590 675 l 704 675 l 704 0 l 590 0 l 590 300 l 243 300 l 243 0 l 129 0 "},"ɨ":{"ha":833,"x_min":0,"x_max":0,"o":"m 439 292 l 183 292 l 183 369 l 439 378 l 439 582 l 125 582 l 125 675 l 553 675 l 553 378 l 783 378 l 783 292 l 553 292 l 553 0 l 439 0 m 483 817 b 392 906 432 817 392 851 b 483 994 392 958 432 994 b 575 906 535 994 575 958 b 483 817 575 851 535 817 "},"ɪ":{"ha":833,"x_min":0,"x_max":0,"o":"m 119 93 l 358 93 l 358 582 l 119 582 l 119 675 l 714 675 l 714 582 l 472 582 l 472 93 l 714 93 l 714 0 l 119 0 "},"ʝ":{"ha":833,"x_min":0,"x_max":0,"o":"m 581 -347 b 493 -215 553 -294 524 -251 b 279 -301 449 -269 378 -301 b 78 -147 150 -301 78 -231 b 257 -8 78 -65 140 -8 b 439 -54 315 -8 378 -22 l 439 -51 l 439 582 l 125 582 l 125 675 l 553 675 l 553 -28 b 539 -128 553 -64 549 -97 b 669 -306 586 -172 631 -231 l 581 -347 m 169 -146 b 278 -211 169 -182 208 -211 b 417 -144 351 -211 394 -183 b 256 -90 363 -106 308 -90 b 169 -146 196 -90 169 -114 m 483 817 b 392 906 432 817 392 851 b 483 994 392 958 432 994 b 575 906 535 994 575 958 b 483 817 575 851 535 817 "},"ʞ":{"ha":833,"x_min":0,"x_max":0,"o":"m 572 356 l 567 356 l 176 0 l 39 0 l 342 279 l 75 675 l 193 675 l 414 346 l 572 492 l 572 675 l 686 675 l 686 -285 l 572 -285 "},"ɫ":{"ha":833,"x_min":0,"x_max":0,"o":"m 565 -17 b 343 226 422 -17 343 67 l 343 531 b 278 554 322 544 301 554 b 214 446 238 554 218 510 l 138 460 b 269 638 143 560 179 638 b 343 622 297 638 321 632 l 343 896 l 103 896 l 103 989 l 457 989 l 457 544 b 522 521 478 531 499 521 b 586 628 563 521 582 565 l 663 615 b 531 438 657 515 621 438 b 457 453 503 438 479 443 l 457 218 b 590 78 457 119 510 78 b 717 108 629 78 671 88 l 746 24 b 565 -17 683 -3 639 -17 "},"ɬ":{"ha":833,"x_min":0,"x_max":0,"o":"m 343 508 l 343 517 b 242 606 343 558 311 606 b 197 561 217 606 197 589 b 297 508 197 528 231 508 m 565 -17 b 343 226 422 -17 343 67 l 343 419 l 322 419 b 106 567 167 419 106 481 b 231 686 106 636 158 686 b 343 639 282 686 318 667 l 343 896 l 103 896 l 103 989 l 457 989 l 457 508 l 651 508 l 651 419 l 457 419 l 457 218 b 590 78 457 119 510 78 b 717 108 629 78 671 88 l 746 24 b 565 -17 683 -3 639 -17 "},"ɭ":{"ha":833,"x_min":0,"x_max":0,"o":"m 564 -254 b 343 -11 421 -254 343 -171 l 343 896 l 103 896 l 103 989 l 457 989 l 457 -19 b 589 -158 457 -118 508 -158 b 717 -128 628 -158 667 -150 l 746 -214 b 564 -254 685 -236 638 -254 "},"ɮ":{"ha":833,"x_min":0,"x_max":0,"o":"m 110 989 l 224 989 l 224 675 l 763 675 l 763 614 l 497 264 b 793 3 689 279 793 156 b 497 -301 793 -192 650 -301 b 215 -193 358 -301 274 -249 l 272 -121 b 488 -207 321 -167 385 -207 b 676 0 592 -207 676 -125 b 493 183 676 114 607 183 b 396 163 446 183 426 176 l 349 224 l 619 582 l 224 582 l 224 0 l 110 0 "},"ʟ":{"ha":833,"x_min":0,"x_max":0,"o":"m 206 675 l 319 675 l 319 93 l 739 93 l 739 0 l 206 0 "},"ɯ":{"ha":833,"x_min":0,"x_max":0,"o":"m 753 0 l 661 0 l 651 89 l 649 89 b 494 -17 614 26 572 -17 b 367 100 428 -17 386 22 b 208 -17 328 28 286 -17 b 58 192 114 -17 58 57 l 58 675 l 172 675 l 172 200 b 244 82 172 122 194 82 b 353 186 292 82 317 117 l 353 675 l 458 675 l 458 200 b 528 82 458 122 478 82 b 639 186 575 82 606 117 l 639 675 l 753 675 "},"ɰ":{"ha":833,"x_min":0,"x_max":0,"o":"m 644 -46 l 653 93 l 647 93 b 494 -17 611 25 572 -17 b 367 100 428 -17 386 22 b 208 -17 328 28 286 -17 b 58 192 114 -17 58 57 l 58 675 l 172 675 l 172 200 b 244 82 172 122 194 82 b 353 186 292 82 317 117 l 353 675 l 458 675 l 458 200 b 528 82 458 122 478 82 b 639 186 575 82 606 117 l 639 675 l 753 675 l 753 -285 l 644 -285 "},"ɱ":{"ha":833,"x_min":0,"x_max":0,"o":"m 604 -254 b 513 -237 568 -254 535 -247 l 535 -150 b 592 -161 550 -156 571 -161 b 661 -39 651 -161 661 -112 l 661 475 b 589 593 661 553 639 593 b 481 489 542 593 517 558 l 481 0 l 375 0 l 375 475 b 306 593 375 553 356 593 b 194 489 258 593 228 558 l 194 0 l 81 0 l 81 675 l 172 675 l 182 586 l 185 586 b 339 692 219 649 261 692 b 467 575 406 692 447 653 b 625 692 506 647 547 692 b 775 483 719 692 775 618 l 775 -44 b 604 -254 775 -175 725 -254 "},"ɲ":{"ha":833,"x_min":0,"x_max":0,"o":"m 78 -254 b -7 -236 43 -254 13 -246 l 15 -149 b 65 -161 29 -154 47 -161 b 135 -39 119 -161 135 -115 l 135 675 l 229 675 l 239 560 l 244 560 b 494 692 315 635 392 692 b 726 419 653 692 726 597 l 726 0 l 613 0 l 613 404 b 461 593 613 536 567 593 b 250 471 381 593 328 553 l 250 -39 b 78 -254 250 -172 204 -254 "},"ɳ":{"ha":833,"x_min":0,"x_max":0,"o":"m 778 -254 b 607 -39 653 -254 607 -172 l 607 404 b 454 593 607 536 561 593 b 243 471 375 593 322 553 l 243 0 l 129 0 l 129 675 l 224 675 l 233 560 l 239 560 b 488 692 310 635 385 692 b 721 419 647 692 721 597 l 721 -39 b 790 -161 721 -115 736 -161 b 840 -149 808 -161 826 -154 l 863 -236 b 778 -254 843 -246 813 -254 "},"ɴ":{"ha":833,"x_min":0,"x_max":0,"o":"m 133 675 l 243 675 l 504 293 b 597 149 532 251 568 192 l 603 149 b 592 394 597 236 592 322 l 592 675 l 700 675 l 700 0 l 590 0 l 329 382 b 236 526 301 424 264 483 l 231 526 b 242 281 236 439 242 353 l 242 0 l 133 0 "},"ɵ":{"ha":833,"x_min":0,"x_max":0,"o":"m 417 -17 b 83 336 238 -17 83 104 b 417 692 83 571 238 692 b 750 336 596 692 750 571 b 417 -17 750 104 596 -17 m 417 603 b 196 394 300 603 215 526 l 638 394 b 417 603 618 526 533 603 m 417 74 b 640 306 542 74 629 158 l 193 306 b 417 74 204 158 292 74 "},"ɶ":{"ha":833,"x_min":0,"x_max":0,"o":"m 331 -17 b 46 338 175 -17 46 106 b 331 692 46 569 175 692 b 467 675 375 692 413 689 l 801 675 l 801 581 l 538 581 l 538 394 l 750 394 l 750 306 l 538 306 l 538 94 l 815 94 l 815 0 l 467 0 b 331 -17 415 -12 375 -17 m 340 76 b 432 93 368 76 403 85 l 432 581 b 340 597 404 589 369 597 b 164 338 242 597 164 513 b 340 76 164 158 242 76 "},"ɸ":{"ha":833,"x_min":0,"x_max":0,"o":"m 361 -12 b 61 339 200 -3 61 121 b 361 688 61 556 200 678 l 361 989 l 472 989 l 472 688 b 772 339 633 678 772 556 b 472 -12 772 121 633 -3 l 472 -285 l 361 -285 m 178 339 b 361 79 178 182 256 88 l 361 596 b 178 339 256 588 178 494 m 656 339 b 472 596 656 494 578 588 l 472 79 b 656 339 578 88 656 182 "},"ɹ":{"ha":833,"x_min":0,"x_max":0,"o":"m 631 0 l 536 0 l 526 160 l 522 160 b 221 -17 451 51 346 -17 b 88 11 171 -17 129 -10 l 114 110 b 239 86 161 93 186 86 b 517 279 340 86 436 139 l 517 675 l 631 675 "},"ɺ":{"ha":833,"x_min":0,"x_max":0,"o":"m 221 -17 b 88 11 171 -17 129 -10 l 114 110 b 239 86 161 93 186 86 b 517 279 340 86 436 139 l 517 989 l 631 989 l 631 0 l 536 0 l 526 160 l 522 160 b 221 -17 451 51 346 -17 "},"ɻ":{"ha":833,"x_min":0,"x_max":0,"o":"m 606 -254 b 419 -35 469 -254 419 -174 l 419 128 l 415 128 b 208 -17 369 39 299 -17 b 88 11 169 -17 131 -10 l 114 110 b 221 86 154 93 176 86 b 410 251 289 86 361 129 l 410 675 l 524 675 l 524 -21 b 618 -161 524 -119 547 -161 b 697 -142 644 -161 675 -151 l 722 -228 b 606 -254 694 -242 647 -254 "},"ɽ":{"ha":833,"x_min":0,"x_max":0,"o":"m 463 -254 b 203 25 267 -254 203 -142 l 203 675 l 297 675 l 307 515 l 311 515 b 613 692 382 624 488 692 b 746 664 663 692 704 685 l 719 565 b 594 589 672 582 647 589 b 317 396 493 589 397 536 l 317 24 b 488 -161 317 -97 357 -161 b 650 -131 553 -161 601 -149 l 674 -214 b 463 -254 613 -236 550 -254 "},"ɾ":{"ha":833,"x_min":0,"x_max":0,"o":"m 203 346 b 557 692 203 569 340 692 b 746 664 632 692 696 682 l 719 565 b 569 590 663 585 622 590 b 317 322 435 590 317 510 l 317 0 l 203 0 "},"ʀ":{"ha":833,"x_min":0,"x_max":0,"o":"m 138 675 l 471 675 b 726 475 617 675 726 624 b 556 272 726 358 650 294 l 757 0 l 628 0 l 438 264 l 253 264 l 253 0 l 138 0 m 451 353 b 613 472 553 353 613 393 b 451 583 613 553 553 583 l 253 583 l 253 353 "},"ʁ":{"ha":833,"x_min":0,"x_max":0,"o":"m 253 92 l 451 92 b 613 203 553 92 613 122 b 451 322 613 282 553 322 l 253 322 m 757 675 l 556 403 b 726 200 650 381 726 317 b 471 0 726 51 617 0 l 138 0 l 138 675 l 253 675 l 253 411 l 438 411 l 628 675 "},"ʂ":{"ha":833,"x_min":0,"x_max":0,"o":"m 431 -17 b 201 32 347 -17 268 3 l 201 -42 b 286 -162 201 -114 219 -162 b 350 -151 310 -162 333 -157 l 372 -236 b 274 -254 350 -246 315 -254 b 99 -29 150 -254 99 -176 l 99 89 l 151 164 b 444 72 229 108 319 72 b 615 178 558 72 615 121 b 404 303 615 229 588 265 b 140 500 229 339 140 399 b 421 692 140 608 236 692 b 693 606 524 692 626 651 l 638 532 b 411 603 575 575 497 603 b 256 506 296 603 256 557 b 451 393 256 447 314 422 b 731 185 676 344 731 288 b 431 -17 731 75 624 -17 "},"ʃ":{"ha":833,"x_min":0,"x_max":0,"o":"m 260 -301 b 78 -257 186 -301 131 -283 l 114 -172 b 246 -208 156 -192 199 -208 b 361 -40 340 -208 361 -142 l 361 747 b 592 1008 361 910 425 1008 b 751 965 658 1008 701 990 l 719 881 b 604 915 679 901 646 915 b 475 747 501 915 475 849 l 475 -42 b 260 -301 475 -204 417 -301 "},"ʄ":{"ha":833,"x_min":0,"x_max":0,"o":"m 260 -301 b 78 -257 186 -301 131 -283 l 114 -172 b 246 -208 156 -192 199 -208 b 361 -40 340 -208 361 -142 l 361 308 l 117 308 l 117 389 l 361 397 l 361 747 b 592 1008 361 910 425 1008 b 751 965 658 1008 701 990 l 719 881 b 604 915 679 901 646 915 b 475 747 501 915 475 849 l 475 397 l 717 397 l 717 308 l 475 308 l 475 -42 b 260 -301 475 -204 417 -301 "},"ʇ":{"ha":833,"x_min":0,"x_max":0,"o":"m 286 692 b 547 413 483 692 547 579 l 547 93 l 738 93 l 738 7 l 543 0 l 528 -217 l 433 -217 l 433 0 l 101 0 l 101 93 l 433 93 l 433 414 b 263 599 433 535 393 599 b 100 568 199 599 149 586 l 75 651 b 286 692 136 674 201 692 "},"ʈ":{"ha":833,"x_min":0,"x_max":0,"o":"m 546 -254 b 286 25 350 -254 286 -142 l 286 582 l 96 582 l 96 668 l 290 675 l 306 892 l 400 892 l 400 675 l 732 675 l 732 582 l 400 582 l 400 24 b 571 -161 400 -97 440 -161 b 733 -131 635 -161 686 -149 l 758 -214 b 546 -254 697 -236 619 -254 "},"ʉ":{"ha":833,"x_min":0,"x_max":0,"o":"m 342 -17 b 136 247 200 -17 136 75 l 136 353 l 3 353 l 3 433 l 136 442 l 136 675 l 250 675 l 250 442 l 558 442 l 558 675 l 672 675 l 672 442 l 814 442 l 814 353 l 672 353 l 672 0 l 578 0 l 569 106 l 567 106 b 342 -17 503 31 435 -17 m 250 261 b 378 83 250 136 289 83 b 558 197 447 83 494 117 l 558 353 l 250 353 l 250 261 "},"ʊ":{"ha":833,"x_min":0,"x_max":0,"o":"m 417 -17 b 86 290 207 -17 86 133 b 217 579 86 428 156 521 l 217 582 l 69 582 l 69 675 l 340 675 l 340 601 b 203 314 261 535 203 449 b 417 78 203 188 275 78 b 631 314 558 78 631 188 b 493 601 631 449 572 535 l 493 675 l 764 675 l 764 582 l 617 582 l 617 579 b 747 290 678 521 747 428 b 417 -17 747 133 626 -17 "},"ʋ":{"ha":833,"x_min":0,"x_max":0,"o":"m 413 -17 b 107 294 238 -17 107 79 l 107 675 l 222 675 l 222 304 b 417 78 222 142 308 78 b 632 390 556 78 632 213 b 510 600 632 526 593 600 b 461 592 485 600 479 597 l 443 681 b 533 692 469 688 489 692 b 750 407 665 692 750 601 b 413 -17 750 163 635 -17 "},"ʌ":{"ha":833,"x_min":0,"x_max":0,"o":"m 763 0 l 647 0 l 492 383 b 415 582 464 451 439 518 l 410 582 b 336 383 386 518 364 451 l 181 0 l 71 0 l 350 675 l 478 675 "},"ʍ":{"ha":833,"x_min":0,"x_max":0,"o":"m 822 0 l 708 0 l 628 392 b 597 578 615 456 606 514 l 592 578 b 553 392 583 514 568 454 l 469 42 l 356 42 l 275 392 b 233 578 260 456 242 514 l 228 578 b 197 392 217 514 210 456 l 117 0 l 11 0 l 156 675 l 303 675 l 381 353 b 414 153 392 306 403 239 l 419 153 b 453 353 431 239 442 306 l 528 675 l 675 675 "},"ʎ":{"ha":833,"x_min":0,"x_max":0,"o":"m 382 769 b 657 1006 432 903 511 1006 b 746 992 689 1006 721 1000 l 721 901 b 663 911 704 907 685 911 b 488 764 574 911 519 849 l 450 676 l 765 0 l 650 0 l 485 374 b 401 569 458 433 429 504 l 396 569 b 324 374 372 506 346 435 l 176 0 l 68 0 "},"ʏ":{"ha":833,"x_min":0,"x_max":0,"o":"m 361 228 l 79 675 l 203 675 l 321 483 b 417 314 353 425 385 375 l 422 314 b 518 483 453 375 482 424 l 635 675 l 757 675 l 475 228 l 475 0 l 361 0 "},"ʐ":{"ha":833,"x_min":0,"x_max":0,"o":"m 776 -254 b 604 -50 650 -254 604 -172 l 604 0 l 99 0 l 99 61 l 551 582 l 150 582 l 150 675 l 715 675 l 715 614 l 261 93 l 718 93 l 718 -39 b 789 -161 718 -115 735 -161 b 839 -149 807 -161 825 -154 l 861 -236 b 776 -254 842 -246 811 -254 "},"ʑ":{"ha":833,"x_min":0,"x_max":0,"o":"m 675 217 b 558 89 636 217 594 181 b 618 89 578 89 597 89 b 722 169 686 89 722 128 b 675 217 722 200 703 217 m 411 -147 b 443 0 421 -93 431 -44 l 99 0 l 99 61 l 549 582 l 150 582 l 150 675 l 699 675 l 699 614 l 250 93 b 471 90 332 92 403 90 b 683 300 524 229 596 300 b 808 175 756 300 808 250 b 592 0 808 75 736 0 l 529 0 b 497 -161 518 -46 507 -99 "},"ʒ":{"ha":833,"x_min":0,"x_max":0,"o":"m 400 -301 b 82 -171 243 -301 151 -236 l 138 -97 b 390 -207 199 -154 271 -207 b 617 6 514 -207 617 -122 b 385 197 617 125 533 197 b 251 163 325 197 303 186 l 206 226 l 554 582 l 138 582 l 138 675 l 703 675 l 703 614 l 372 269 b 432 278 394 275 415 278 b 732 8 619 278 732 169 b 400 -301 732 -190 572 -301 "},"ʤ":{"ha":833,"x_min":0,"x_max":0,"o":"m 215 -17 b 0 336 90 -17 0 114 b 228 692 0 553 107 692 b 353 614 283 692 325 661 l 356 614 l 350 743 l 350 989 l 456 989 l 456 675 l 829 675 l 829 614 l 633 271 b 650 272 639 272 644 272 b 858 0 782 272 858 150 b 625 -301 858 -192 756 -301 b 428 -219 533 -301 476 -267 l 482 -147 b 617 -207 519 -183 557 -207 b 744 0 692 -207 744 -139 b 621 183 744 117 701 183 b 551 163 592 183 576 176 l 506 235 l 708 582 l 456 582 l 456 0 l 374 0 l 364 81 l 360 81 b 215 -17 331 31 281 -17 m 239 79 b 350 183 288 79 322 122 l 350 517 b 247 596 319 567 292 596 b 114 338 168 596 114 490 b 239 79 114 178 157 79 "},"ʦ":{"ha":833,"x_min":0,"x_max":0,"o":"m 456 -17 b 136 244 217 -17 136 76 l 136 582 l 35 582 l 35 668 l 140 675 l 154 892 l 250 892 l 250 675 l 511 675 b 606 692 539 686 571 692 b 783 625 674 692 735 667 l 739 558 b 614 607 699 590 661 607 b 525 526 560 607 525 578 b 792 185 525 400 792 418 b 456 -17 792 60 703 -17 m 461 72 b 688 186 632 72 688 117 b 417 529 688 358 417 338 b 424 582 417 549 419 567 l 250 582 l 250 243 b 461 72 250 122 303 72 "},"ʧ":{"ha":833,"x_min":0,"x_max":0,"o":"m 490 -301 b 393 -283 450 -301 417 -293 l 417 -197 b 481 -208 433 -203 457 -208 b 558 -76 543 -208 558 -158 l 558 582 l 282 582 l 282 207 b 378 76 282 124 306 76 b 458 94 404 76 433 85 l 479 8 b 357 -17 442 -4 399 -17 b 167 208 215 -17 167 75 l 167 582 l 67 582 l 67 668 l 171 675 l 186 892 l 282 892 l 282 675 l 558 675 l 558 786 b 754 1008 558 921 614 1008 b 838 990 789 1008 817 1000 l 815 903 b 765 915 801 908 783 915 b 672 782 690 915 672 864 l 672 -76 b 490 -301 672 -214 621 -301 "},"ʔ":{"ha":833,"x_min":0,"x_max":0,"o":"m 332 432 b 592 726 514 535 592 606 b 385 911 592 839 517 911 b 160 799 279 911 208 857 l 99 872 b 393 1006 160 940 251 1006 b 708 728 568 1006 708 911 b 446 382 708 567 599 481 l 446 0 l 332 0 "},"ʕ":{"ha":833,"x_min":0,"x_max":0,"o":"m 386 382 b 124 728 232 481 124 567 b 438 1006 124 911 264 1006 b 732 872 581 1006 672 940 l 672 799 b 446 911 622 857 551 911 b 239 726 315 911 239 839 b 500 432 239 606 318 535 l 500 0 l 386 0 "},"ʡ":{"ha":833,"x_min":0,"x_max":0,"o":"m 332 349 l 103 349 l 103 429 l 208 436 l 350 436 b 592 726 503 524 592 615 b 390 911 592 839 519 911 b 160 799 283 911 211 856 l 99 872 b 399 1006 160 939 254 1006 b 708 728 571 1006 708 911 b 508 436 708 596 614 508 l 719 436 l 719 349 l 446 349 l 446 0 l 332 0 "},"ʢ":{"ha":833,"x_min":0,"x_max":0,"o":"m 388 349 l 114 349 l 114 429 l 219 436 l 325 436 b 125 728 219 508 125 596 b 435 1006 125 911 261 1006 b 735 872 579 1006 672 939 l 674 799 b 443 911 622 856 550 911 b 240 726 314 911 240 839 b 482 436 240 615 331 524 l 731 436 l 731 349 l 501 349 l 501 0 l 388 0 "},"ǂ":{"ha":833,"x_min":0,"x_max":0,"o":"m 361 214 l 117 214 l 117 294 l 361 300 l 361 450 l 117 450 l 117 531 l 361 536 l 361 989 l 472 989 l 472 536 l 717 536 l 717 450 l 472 450 l 472 300 l 717 300 l 717 214 l 472 214 l 472 -285 l 361 -285 "},"ʘ":{"ha":833,"x_min":0,"x_max":0,"o":"m 417 -17 b 83 499 214 -17 83 142 b 417 1006 83 829 214 1006 b 751 499 619 1006 751 829 b 417 -17 751 142 619 -17 m 417 78 b 642 499 544 78 642 189 b 417 911 642 782 544 911 b 192 499 289 911 192 782 b 417 78 192 189 289 78 m 417 411 b 331 499 371 411 331 449 b 417 588 331 553 371 588 b 503 499 463 588 503 553 b 417 411 503 449 463 411 "},"Α":{"ha":833,"x_min":0,"x_max":0,"o":"m 279 371 l 551 371 l 508 510 b 418 817 476 611 446 711 l 413 817 b 322 510 383 711 354 611 m 351 911 l 482 911 l 789 0 l 667 0 l 581 278 l 250 278 l 163 0 l 44 0 "},"Β":{"ha":833,"x_min":0,"x_max":0,"o":"m 138 911 l 396 911 b 708 689 582 911 708 849 b 549 490 708 599 657 518 l 549 485 b 760 267 682 464 760 392 b 417 0 760 88 621 0 l 138 0 m 376 528 b 594 679 532 528 594 578 b 382 814 594 778 522 814 l 253 814 l 253 528 m 400 97 b 646 272 556 97 646 149 b 400 431 646 385 560 431 l 253 431 l 253 97 "},"Γ":{"ha":833,"x_min":0,"x_max":0,"o":"m 188 911 l 743 911 l 743 814 l 303 814 l 303 0 l 188 0 "},"Δ":{"ha":833,"x_min":0,"x_max":0,"o":"m 60 69 l 350 911 l 483 911 l 774 69 l 774 0 l 60 0 m 646 99 l 511 506 b 418 813 479 604 449 707 l 413 813 b 319 506 381 707 350 604 l 186 99 "},"Ε":{"ha":833,"x_min":0,"x_max":0,"o":"m 158 911 l 722 911 l 722 814 l 275 814 l 275 528 l 653 528 l 653 429 l 275 429 l 275 99 l 736 99 l 736 0 l 158 0 "},"Ζ":{"ha":833,"x_min":0,"x_max":0,"o":"m 90 69 l 599 815 l 135 815 l 135 913 l 742 913 l 742 843 l 232 99 l 749 99 l 749 0 l 90 0 "},"Η":{"ha":833,"x_min":0,"x_max":0,"o":"m 110 911 l 226 911 l 226 529 l 607 529 l 607 911 l 724 911 l 724 0 l 607 0 l 607 429 l 226 429 l 226 0 l 110 0 "},"Θ":{"ha":833,"x_min":0,"x_max":0,"o":"m 417 -17 b 67 460 211 -17 67 167 b 417 928 67 751 211 928 b 767 460 622 928 767 750 b 417 -17 767 167 622 -17 m 417 85 b 647 460 556 85 647 232 b 417 826 647 686 556 826 b 186 460 278 826 186 686 b 417 85 186 232 278 85 m 279 529 l 554 529 l 554 429 l 279 429 "},"Ι":{"ha":833,"x_min":0,"x_max":0,"o":"m 132 99 l 358 99 l 358 814 l 132 814 l 132 911 l 701 911 l 701 814 l 475 814 l 475 99 l 701 99 l 701 0 l 132 0 "}}}
